<?xml version="1.0" encoding="UTF-8"?>
<svg xmlns="http://www.w3.org/2000/svg" xmlns:xlink="http://www.w3.org/1999/xlink" width="18pt" height="17pt" viewBox="0 0 18 17" version="1.1">
<g id="surface1">
<path style=" stroke:none;fill-rule:nonzero;fill:rgb(0%,0%,0%);fill-opacity:1;" d="M 15.363281 5.140625 C 13.664062 3.53125 11.402344 2.644531 9 2.644531 C 6.597656 2.644531 4.335938 3.53125 2.636719 5.140625 C 0.9375 6.746094 0 8.886719 0 11.160156 C 0 11.789062 0.0703125 12.410156 0.214844 13.015625 C 0.296875 13.367188 0.402344 13.714844 0.53125 14.050781 C 0.609375 14.257812 0.8125 14.382812 1.03125 14.382812 C 1.09375 14.382812 1.152344 14.375 1.210938 14.355469 C 1.488281 14.257812 1.632812 13.972656 1.53125 13.710938 C 1.417969 13.414062 1.324219 13.105469 1.253906 12.796875 C 1.167969 12.425781 1.109375 12.046875 1.082031 11.664062 L 2.71875 11.664062 C 3.011719 11.664062 3.25 11.4375 3.25 11.160156 C 3.25 10.882812 3.011719 10.65625 2.71875 10.65625 L 1.082031 10.65625 C 1.152344 9.65625 1.433594 8.707031 1.878906 7.851562 L 3.292969 8.625 C 3.378906 8.671875 3.46875 8.691406 3.558594 8.691406 C 3.742188 8.691406 3.921875 8.601562 4.019531 8.441406 C 4.167969 8.199219 4.082031 7.890625 3.828125 7.753906 L 2.410156 6.980469 C 2.988281 6.171875 3.726562 5.472656 4.582031 4.925781 L 5.398438 6.265625 C 5.496094 6.425781 5.675781 6.515625 5.859375 6.515625 C 5.949219 6.515625 6.042969 6.496094 6.125 6.449219 C 6.378906 6.3125 6.46875 6.003906 6.320312 5.761719 L 5.503906 4.421875 C 6.40625 4 7.410156 3.734375 8.46875 3.667969 L 8.46875 5.21875 C 8.46875 5.496094 8.707031 5.722656 9 5.722656 C 9.292969 5.722656 9.53125 5.496094 9.53125 5.21875 L 9.53125 3.667969 C 10.589844 3.734375 11.59375 4 12.496094 4.421875 L 11.679688 5.761719 C 11.53125 6.003906 11.621094 6.3125 11.875 6.449219 C 11.957031 6.496094 12.050781 6.515625 12.140625 6.515625 C 12.324219 6.515625 12.503906 6.425781 12.601562 6.265625 L 13.417969 4.925781 C 14.273438 5.472656 15.011719 6.171875 15.589844 6.980469 L 14.171875 7.753906 C 13.917969 7.890625 13.832031 8.199219 13.980469 8.441406 C 14.078125 8.601562 14.257812 8.691406 14.441406 8.691406 C 14.53125 8.691406 14.621094 8.671875 14.707031 8.625 L 16.121094 7.851562 C 16.566406 8.707031 16.847656 9.65625 16.917969 10.65625 L 15.28125 10.65625 C 14.988281 10.65625 14.75 10.882812 14.75 11.160156 C 14.75 11.4375 14.988281 11.664062 15.28125 11.664062 L 16.917969 11.664062 C 16.890625 12.027344 16.839844 12.386719 16.761719 12.738281 C 16.695312 13.03125 16.609375 13.320312 16.507812 13.601562 C 16.410156 13.863281 16.558594 14.152344 16.839844 14.242188 C 17.117188 14.332031 17.417969 14.191406 17.515625 13.929688 C 17.628906 13.609375 17.726562 13.28125 17.800781 12.949219 C 17.933594 12.367188 18 11.765625 18 11.160156 C 18 8.886719 17.0625 6.746094 15.363281 5.140625 Z M 15.363281 5.140625 "/>
<path style=" stroke:none;fill-rule:nonzero;fill:rgb(0%,0%,0%);fill-opacity:1;" d="M 11.984375 7.617188 L 9.714844 9.929688 C 9.5 9.8125 9.246094 9.746094 8.980469 9.746094 C 8.15625 9.746094 7.484375 10.382812 7.484375 11.160156 C 7.484375 11.941406 8.15625 12.574219 8.980469 12.574219 C 9.804688 12.574219 10.472656 11.941406 10.472656 11.160156 C 10.472656 11.007812 10.449219 10.855469 10.398438 10.71875 L 12.765625 8.304688 C 12.964844 8.097656 12.953125 7.78125 12.738281 7.589844 C 12.523438 7.402344 12.1875 7.414062 11.984375 7.617188 Z M 8.980469 11.570312 C 8.742188 11.570312 8.546875 11.386719 8.546875 11.160156 C 8.546875 10.9375 8.742188 10.753906 8.980469 10.753906 C 9.21875 10.753906 9.410156 10.9375 9.410156 11.160156 C 9.410156 11.386719 9.21875 11.570312 8.980469 11.570312 Z M 8.980469 11.570312 "/>
</g>
</svg>
