<?xml version="1.0" encoding="UTF-8"?>
<svg xmlns="http://www.w3.org/2000/svg" xmlns:xlink="http://www.w3.org/1999/xlink" width="18pt" height="18pt" viewBox="0 0 18 18" version="1.1">
<g id="surface1">
<path style=" stroke:none;fill-rule:nonzero;fill:rgb(0%,0%,0%);fill-opacity:1;" d="M 16.875 4.5 L 1.125 4.5 C 0.503906 4.5 0 3.996094 0 3.375 L 0 1.125 C 0 0.503906 0.503906 0 1.125 0 L 16.875 0 C 17.496094 0 18 0.503906 18 1.125 L 18 3.375 C 18 3.996094 17.496094 4.5 16.875 4.5 Z M 1.125 0.75 C 0.917969 0.75 0.75 0.917969 0.75 1.125 L 0.75 3.375 C 0.75 3.582031 0.917969 3.75 1.125 3.75 L 16.875 3.75 C 17.082031 3.75 17.25 3.582031 17.25 3.375 L 17.25 1.125 C 17.25 0.917969 17.082031 0.75 16.875 0.75 Z M 1.125 0.75 "/>
<path style=" stroke:none;fill-rule:nonzero;fill:rgb(0%,0%,0%);fill-opacity:1;" d="M 7.125 18 L 1.125 18 C 0.503906 18 0 17.496094 0 16.875 L 0 7.125 C 0 6.503906 0.503906 6 1.125 6 L 7.125 6 C 7.746094 6 8.25 6.503906 8.25 7.125 L 8.25 16.875 C 8.25 17.496094 7.746094 18 7.125 18 Z M 1.125 6.75 C 0.917969 6.75 0.75 6.917969 0.75 7.125 L 0.75 16.875 C 0.75 17.082031 0.917969 17.25 1.125 17.25 L 7.125 17.25 C 7.332031 17.25 7.5 17.082031 7.5 16.875 L 7.5 7.125 C 7.5 6.917969 7.332031 6.75 7.125 6.75 Z M 1.125 6.75 "/>
<path style=" stroke:none;fill-rule:nonzero;fill:rgb(0%,0%,0%);fill-opacity:1;" d="M 16.875 11.25 L 10.875 11.25 C 10.253906 11.25 9.75 10.746094 9.75 10.125 L 9.75 7.125 C 9.75 6.503906 10.253906 6 10.875 6 L 16.875 6 C 17.496094 6 18 6.503906 18 7.125 L 18 10.125 C 18 10.746094 17.496094 11.25 16.875 11.25 Z M 10.875 6.75 C 10.667969 6.75 10.5 6.917969 10.5 7.125 L 10.5 10.125 C 10.5 10.332031 10.667969 10.5 10.875 10.5 L 16.875 10.5 C 17.082031 10.5 17.25 10.332031 17.25 10.125 L 17.25 7.125 C 17.25 6.917969 17.082031 6.75 16.875 6.75 Z M 10.875 6.75 "/>
<path style=" stroke:none;fill-rule:nonzero;fill:rgb(0%,0%,0%);fill-opacity:1;" d="M 16.875 18 L 10.875 18 C 10.253906 18 9.75 17.496094 9.75 16.875 L 9.75 13.875 C 9.75 13.253906 10.253906 12.75 10.875 12.75 L 16.875 12.75 C 17.496094 12.75 18 13.253906 18 13.875 L 18 16.875 C 18 17.496094 17.496094 18 16.875 18 Z M 10.875 13.5 C 10.667969 13.5 10.5 13.667969 10.5 13.875 L 10.5 16.875 C 10.5 17.082031 10.667969 17.25 10.875 17.25 L 16.875 17.25 C 17.082031 17.25 17.25 17.082031 17.25 16.875 L 17.25 13.875 C 17.25 13.667969 17.082031 13.5 16.875 13.5 Z M 10.875 13.5 "/>
</g>
</svg>
