<?xml version="1.0" encoding="UTF-8"?>
<svg xmlns="http://www.w3.org/2000/svg" xmlns:xlink="http://www.w3.org/1999/xlink" width="18pt" height="18pt" viewBox="0 0 18 18" version="1.1">
<g id="surface1">
<path style=" stroke:none;fill-rule:nonzero;fill:rgb(38.431373%,38.431373%,38.431373%);fill-opacity:1;" d="M 17.101562 12 L 13.199219 12 C 13.199219 11.492188 12.808594 11.101562 12.300781 11.101562 L 12 11.101562 C 11.492188 11.101562 11.101562 11.492188 11.101562 12 L 10.800781 12 C 10.289062 12 9.898438 12.390625 9.898438 12.898438 L 9.898438 16.5 C 9.898438 17.007812 10.289062 17.398438 10.800781 17.398438 L 11.160156 17.398438 C 11.28125 17.757812 11.609375 18 12 18 L 12.300781 18 C 12.691406 18 13.019531 17.757812 13.140625 17.398438 L 17.101562 17.398438 C 17.609375 17.398438 18 17.007812 18 16.5 L 18 12.898438 C 18 12.390625 17.609375 12 17.101562 12 Z M 10.5 16.5 L 10.5 12.898438 C 10.5 12.71875 10.621094 12.601562 10.800781 12.601562 L 11.101562 12.601562 L 11.101562 16.800781 L 10.800781 16.800781 C 10.621094 16.800781 10.5 16.679688 10.5 16.5 Z M 12.601562 17.101562 C 12.601562 17.28125 12.480469 17.398438 12.300781 17.398438 L 12 17.398438 C 11.820312 17.398438 11.699219 17.28125 11.699219 17.101562 L 11.699219 12 C 11.699219 11.820312 11.820312 11.699219 12 11.699219 L 12.300781 11.699219 C 12.480469 11.699219 12.601562 11.820312 12.601562 12 Z M 17.398438 16.5 C 17.398438 16.679688 17.28125 16.800781 17.101562 16.800781 L 13.199219 16.800781 L 13.199219 12.601562 L 17.101562 12.601562 C 17.28125 12.601562 17.398438 12.71875 17.398438 12.898438 Z M 17.398438 16.5 "/>
<path style=" stroke:none;fill-rule:nonzero;fill:rgb(38.431373%,38.431373%,38.431373%);fill-opacity:1;" d="M 1.199219 12.601562 L 1.800781 12.601562 L 1.800781 13.199219 L 1.199219 13.199219 Z M 1.199219 12.601562 "/>
<path style=" stroke:none;fill-rule:nonzero;fill:rgb(38.431373%,38.431373%,38.431373%);fill-opacity:1;" d="M 2.398438 12.601562 L 3 12.601562 L 3 13.199219 L 2.398438 13.199219 Z M 2.398438 12.601562 "/>
<path style=" stroke:none;fill-rule:nonzero;fill:rgb(38.431373%,38.431373%,38.431373%);fill-opacity:1;" d="M 8.101562 18 L 8.101562 14.398438 C 8.609375 14.398438 9 14.007812 9 13.5 L 9 10.199219 L 8.101562 10.199219 L 8.101562 9 L 7.5 9 L 7.5 10.199219 L 1.5 10.199219 L 1.5 7.800781 L 6.359375 7.800781 C 6.480469 8.160156 6.808594 8.398438 7.199219 8.398438 L 10.441406 8.398438 L 10.230469 9.898438 L 9.300781 9.898438 L 9.300781 10.5 L 14.699219 10.5 L 14.699219 9.898438 L 13.769531 9.898438 L 13.558594 8.398438 L 16.800781 8.398438 C 17.308594 8.398438 17.699219 8.011719 17.699219 7.5 L 17.699219 0.898438 C 17.699219 0.390625 17.308594 0 16.800781 0 L 7.199219 0 C 6.691406 0 6.300781 0.390625 6.300781 0.898438 L 6.300781 7.199219 L 0.898438 7.199219 L 0.898438 10.199219 L 0 10.199219 L 0 13.5 C 0 14.007812 0.390625 14.398438 0.898438 14.398438 L 0.898438 18 Z M 13.140625 9.898438 L 10.828125 9.898438 L 11.039062 8.398438 L 12.929688 8.398438 Z M 16.800781 7.800781 L 7.199219 7.800781 C 7.019531 7.800781 6.898438 7.679688 6.898438 7.5 L 6.898438 7.199219 L 17.101562 7.199219 L 17.101562 7.5 C 17.101562 7.679688 16.980469 7.800781 16.800781 7.800781 Z M 7.199219 0.601562 L 16.800781 0.601562 C 16.980469 0.601562 17.101562 0.71875 17.101562 0.898438 L 17.101562 6.601562 L 6.898438 6.601562 L 6.898438 1.800781 L 16.5 1.800781 L 16.5 1.199219 L 6.898438 1.199219 L 6.898438 0.898438 C 6.898438 0.71875 7.019531 0.601562 7.199219 0.601562 Z M 0.601562 13.5 L 0.601562 10.800781 L 8.398438 10.800781 L 8.398438 13.5 C 8.398438 13.679688 8.28125 13.800781 8.101562 13.800781 L 0.898438 13.800781 C 0.71875 13.800781 0.601562 13.679688 0.601562 13.5 Z M 7.5 14.398438 L 7.5 17.398438 L 1.5 17.398438 L 1.5 14.398438 Z M 7.5 14.398438 "/>
<path style=" stroke:none;fill-rule:nonzero;fill:rgb(38.431373%,38.431373%,38.431373%);fill-opacity:1;" d="M 2.101562 16.199219 L 6.898438 16.199219 L 6.898438 16.800781 L 2.101562 16.800781 Z M 2.101562 16.199219 "/>
<path style=" stroke:none;fill-rule:nonzero;fill:rgb(38.431373%,38.431373%,38.431373%);fill-opacity:1;" d="M 13.800781 13.199219 L 14.398438 13.199219 L 14.398438 13.800781 L 13.800781 13.800781 Z M 13.800781 13.199219 "/>
<path style=" stroke:none;fill-rule:nonzero;fill:rgb(38.431373%,38.431373%,38.431373%);fill-opacity:1;" d="M 15 13.199219 L 15.601562 13.199219 L 15.601562 13.800781 L 15 13.800781 Z M 15 13.199219 "/>
<path style=" stroke:none;fill-rule:nonzero;fill:rgb(38.431373%,38.431373%,38.431373%);fill-opacity:1;" d="M 16.199219 13.199219 L 16.800781 13.199219 L 16.800781 13.800781 L 16.199219 13.800781 Z M 16.199219 13.199219 "/>
<path style=" stroke:none;fill-rule:nonzero;fill:rgb(38.431373%,38.431373%,38.431373%);fill-opacity:1;" d="M 13.800781 14.398438 L 14.398438 14.398438 L 14.398438 15 L 13.800781 15 Z M 13.800781 14.398438 "/>
<path style=" stroke:none;fill-rule:nonzero;fill:rgb(38.431373%,38.431373%,38.431373%);fill-opacity:1;" d="M 15 14.398438 L 15.601562 14.398438 L 15.601562 15 L 15 15 Z M 15 14.398438 "/>
<path style=" stroke:none;fill-rule:nonzero;fill:rgb(38.431373%,38.431373%,38.431373%);fill-opacity:1;" d="M 16.199219 14.398438 L 16.800781 14.398438 L 16.800781 15 L 16.199219 15 Z M 16.199219 14.398438 "/>
<path style=" stroke:none;fill-rule:nonzero;fill:rgb(38.431373%,38.431373%,38.431373%);fill-opacity:1;" d="M 13.800781 15.601562 L 14.398438 15.601562 L 14.398438 16.199219 L 13.800781 16.199219 Z M 13.800781 15.601562 "/>
<path style=" stroke:none;fill-rule:nonzero;fill:rgb(38.431373%,38.431373%,38.431373%);fill-opacity:1;" d="M 15 15.601562 L 15.601562 15.601562 L 15.601562 16.199219 L 15 16.199219 Z M 15 15.601562 "/>
<path style=" stroke:none;fill-rule:nonzero;fill:rgb(38.431373%,38.431373%,38.431373%);fill-opacity:1;" d="M 16.199219 15.601562 L 16.800781 15.601562 L 16.800781 16.199219 L 16.199219 16.199219 Z M 16.199219 15.601562 "/>
<path style=" stroke:none;fill-rule:nonzero;fill:rgb(38.431373%,38.431373%,38.431373%);fill-opacity:1;" d="M 2.101562 15 L 6.898438 15 L 6.898438 15.601562 L 2.101562 15.601562 Z M 2.101562 15 "/>
<path style=" stroke:none;fill-rule:nonzero;fill:rgb(38.431373%,38.431373%,38.431373%);fill-opacity:1;" d="M 1.800781 6.601562 L 4.5 6.601562 C 5.007812 6.601562 5.398438 6.210938 5.398438 5.699219 L 5.398438 0.898438 C 5.398438 0.390625 5.007812 0 4.5 0 L 1.800781 0 C 1.289062 0 0.898438 0.390625 0.898438 0.898438 L 0.898438 5.699219 C 0.898438 6.210938 1.289062 6.601562 1.800781 6.601562 Z M 4.5 6 L 1.800781 6 C 1.621094 6 1.5 5.878906 1.5 5.699219 L 1.5 5.398438 L 4.800781 5.398438 L 4.800781 5.699219 C 4.800781 5.878906 4.679688 6 4.5 6 Z M 1.5 4.800781 L 1.5 1.800781 L 4.800781 1.800781 L 4.800781 4.800781 Z M 1.800781 0.601562 L 4.5 0.601562 C 4.679688 0.601562 4.800781 0.71875 4.800781 0.898438 L 4.800781 1.199219 L 1.5 1.199219 L 1.5 0.898438 C 1.5 0.71875 1.621094 0.601562 1.800781 0.601562 Z M 1.800781 0.601562 "/>
</g>
</svg>
