<?xml version="1.0" encoding="UTF-8"?>
<svg xmlns="http://www.w3.org/2000/svg" xmlns:xlink="http://www.w3.org/1999/xlink" width="18pt" height="16pt" viewBox="0 0 18 16" version="1.1">
<g id="surface1">
<path style=" stroke:none;fill-rule:nonzero;fill:rgb(38.431373%,38.431373%,38.431373%);fill-opacity:1;" d="M 7.957031 0.578125 L 7.53125 0.898438 L 6.125 0.898438 C 4.742188 0.898438 4.726562 0.898438 4.550781 1.054688 L 4.371094 1.210938 L 4.371094 2.695312 C 4.371094 3.511719 4.351562 4.179688 4.324219 4.179688 C 4.300781 4.179688 4.179688 4.109375 4.058594 4.027344 C 3.316406 3.523438 2.046875 3.722656 1.359375 4.445312 C 1.210938 4.597656 1.015625 4.898438 0.914062 5.113281 C 0.765625 5.433594 0.742188 5.582031 0.742188 6.046875 C 0.742188 6.519531 0.765625 6.644531 0.925781 6.976562 C 1.027344 7.191406 1.25 7.5 1.417969 7.664062 L 1.722656 7.96875 L 1.722656 9.066406 L 2.871094 9.066406 L 2.871094 9.261719 C 2.871094 9.363281 2.847656 9.453125 2.808594 9.453125 C 2.777344 9.453125 2.691406 9.519531 2.617188 9.59375 C 2.425781 9.800781 2.4375 10.316406 2.636719 10.496094 L 2.78125 10.628906 L 2.636719 10.777344 C 2.417969 10.996094 2.429688 11.453125 2.648438 11.679688 L 2.8125 11.84375 L 2.648438 11.972656 C 2.519531 12.078125 2.488281 12.15625 2.488281 12.40625 C 2.488281 12.695312 2.621094 12.992188 2.75 12.992188 C 2.808594 12.992188 3.023438 13.203125 3.414062 13.644531 C 3.484375 13.730469 3.605469 13.761719 3.859375 13.761719 C 4.160156 13.761719 4.222656 13.742188 4.3125 13.601562 L 4.417969 13.441406 L 4.542969 13.601562 C 4.644531 13.738281 4.722656 13.761719 5.007812 13.761719 C 5.296875 13.761719 5.371094 13.738281 5.476562 13.601562 C 5.621094 13.421875 5.679688 13.394531 5.679688 13.535156 C 5.679688 13.671875 5.890625 13.761719 6.222656 13.761719 C 6.46875 13.761719 6.554688 13.730469 6.699219 13.570312 C 7.027344 13.222656 7.089844 13.292969 7.0625 13.953125 L 7.046875 14.535156 L 8.164062 14.535156 L 8.457031 14.847656 C 8.613281 15.023438 8.914062 15.246094 9.113281 15.34375 C 9.425781 15.5 9.558594 15.523438 10.050781 15.523438 C 10.542969 15.53125 10.675781 15.503906 10.988281 15.355469 C 11.472656 15.132812 11.894531 14.726562 12.105469 14.28125 C 12.265625 13.960938 12.285156 13.851562 12.285156 13.28125 C 12.285156 12.789062 12.257812 12.585938 12.175781 12.417969 C 12.113281 12.296875 12.058594 12.1875 12.058594 12.171875 C 12.058594 12.167969 12.175781 12.15625 12.324219 12.15625 C 12.535156 12.15625 12.621094 12.117188 12.800781 11.9375 L 13.019531 11.71875 L 13.019531 8.558594 L 13.214844 8.457031 C 13.523438 8.296875 13.785156 7.820312 13.785156 7.425781 C 13.785156 7.234375 13.746094 7.042969 13.679688 6.957031 C 13.628906 6.882812 13.597656 6.816406 13.613281 6.816406 C 13.6875 6.816406 17.164062 5.730469 17.273438 5.671875 C 17.414062 5.59375 17.675781 5.113281 17.675781 4.933594 C 17.675781 4.71875 17.496094 4.40625 16.972656 3.664062 C 16.6875 3.261719 16.414062 2.886719 16.375 2.84375 C 16.308594 2.773438 16.164062 2.824219 15.582031 3.113281 C 15.195312 3.3125 14.863281 3.472656 14.84375 3.472656 C 14.832031 3.472656 14.460938 3.644531 14.027344 3.859375 L 13.242188 4.246094 L 13.132812 4.109375 C 13.039062 3.992188 13.019531 3.839844 13.019531 3.082031 C 13.019531 2.191406 13.019531 2.1875 12.832031 1.980469 C 12.691406 1.820312 12.597656 1.773438 12.375 1.761719 C 12.09375 1.75 12.09375 1.75 12.054688 1.484375 C 12.035156 1.316406 11.957031 1.152344 11.855469 1.046875 L 11.691406 0.886719 L 10.503906 0.894531 C 9.8125 0.898438 9.316406 0.882812 9.316406 0.84375 C 9.316406 0.785156 8.519531 0.257812 8.4375 0.257812 C 8.410156 0.257812 8.199219 0.40625 7.957031 0.578125 Z M 8.769531 0.753906 C 8.980469 0.886719 9.265625 1.234375 9.941406 2.1875 C 10.441406 2.875 11.105469 3.808594 11.429688 4.257812 C 11.746094 4.714844 12.03125 5.082031 12.054688 5.082031 C 12.117188 5.082031 16.042969 3.210938 16.132812 3.132812 C 16.175781 3.101562 16.222656 3.082031 16.226562 3.09375 C 16.59375 3.570312 17.351562 4.699219 17.382812 4.804688 C 17.410156 4.886719 17.382812 5.042969 17.324219 5.171875 C 17.191406 5.460938 17.292969 5.421875 14.039062 6.40625 C 13.636719 6.527344 13.265625 6.644531 13.222656 6.65625 C 13.164062 6.675781 13.203125 6.765625 13.335938 6.953125 C 13.578125 7.292969 13.59375 7.59375 13.367188 7.929688 C 13.101562 8.316406 12.6875 8.46875 12.40625 8.269531 C 12.335938 8.21875 12.113281 7.953125 11.914062 7.671875 C 11.523438 7.136719 11.382812 6.945312 9.828125 4.757812 C 9.289062 4 8.75 3.261719 8.632812 3.113281 C 8.519531 2.964844 8.421875 2.828125 8.421875 2.796875 C 8.421875 2.773438 8.316406 2.609375 8.1875 2.445312 C 7.804688 1.953125 7.433594 1.414062 7.433594 1.355469 C 7.433594 1.292969 8.359375 0.585938 8.441406 0.578125 C 8.46875 0.578125 8.613281 0.65625 8.769531 0.753906 Z M 7.128906 1.191406 C 7.011719 1.273438 7.03125 1.3125 7.460938 1.910156 C 7.707031 2.257812 8.4375 3.28125 9.082031 4.179688 C 9.726562 5.082031 10.601562 6.308594 11.027344 6.90625 L 11.804688 7.992188 L 11.804688 9.351562 C 11.804688 10.476562 11.785156 10.734375 11.703125 10.855469 L 11.609375 10.996094 L 4.792969 10.996094 L 4.695312 10.855469 C 4.613281 10.734375 4.59375 10.457031 4.59375 9.144531 C 4.59375 7.980469 4.574219 7.59375 4.515625 7.628906 C 4.472656 7.652344 4.46875 7.644531 4.492188 7.59375 C 4.515625 7.554688 4.5625 7.535156 4.59375 7.554688 C 4.675781 7.609375 4.953125 7.214844 5.105469 6.816406 C 5.378906 6.128906 5.207031 5.125 4.726562 4.574219 C 4.601562 4.425781 4.59375 4.347656 4.59375 2.925781 C 4.59375 1.59375 4.609375 1.414062 4.710938 1.292969 C 4.8125 1.164062 4.886719 1.15625 5.902344 1.136719 C 6.503906 1.132812 7.046875 1.117188 7.117188 1.113281 C 7.238281 1.101562 7.238281 1.101562 7.128906 1.191406 Z M 11.695312 1.300781 C 11.785156 1.410156 11.804688 1.570312 11.804688 2.386719 L 11.804688 3.34375 L 11.542969 3.480469 C 11.382812 3.554688 11.261719 3.589844 11.238281 3.550781 C 11.191406 3.480469 10.828125 2.972656 10.109375 1.960938 C 9.820312 1.5625 9.578125 1.214844 9.554688 1.183594 C 9.535156 1.152344 9.953125 1.132812 10.546875 1.144531 C 11.5 1.164062 11.589844 1.175781 11.695312 1.300781 Z M 12.601562 2.15625 C 12.75 2.296875 12.761719 2.355469 12.761719 2.9375 L 12.753906 3.570312 L 12.628906 3.414062 C 12.558594 3.332031 12.480469 3.214844 12.449219 3.164062 C 12.410156 3.09375 12.367188 3.085938 12.265625 3.144531 C 12.195312 3.183594 12.113281 3.214844 12.078125 3.214844 C 12.054688 3.214844 12.035156 2.9375 12.046875 2.605469 L 12.066406 1.992188 L 12.257812 1.992188 C 12.375 1.992188 12.507812 2.050781 12.601562 2.15625 Z M 12.535156 3.722656 C 12.691406 3.9375 12.761719 4.101562 12.761719 4.25 C 12.761719 4.449219 12.738281 4.480469 12.449219 4.617188 C 12.277344 4.695312 12.117188 4.757812 12.097656 4.757812 C 12.035156 4.757812 12.054688 4.515625 12.125 4.46875 C 12.203125 4.417969 12.441406 3.953125 12.441406 3.859375 C 12.441406 3.71875 12.15625 3.820312 12.136719 3.96875 C 12.125 4.050781 12.085938 4.117188 12.046875 4.117188 C 12.011719 4.117188 11.996094 4.039062 12.023438 3.917969 C 12.039062 3.808594 12.058594 3.660156 12.058594 3.59375 C 12.058594 3.535156 12.113281 3.464844 12.175781 3.453125 C 12.234375 3.433594 12.289062 3.421875 12.296875 3.414062 C 12.304688 3.414062 12.40625 3.550781 12.535156 3.722656 Z M 11.804688 3.988281 C 11.804688 4.160156 11.792969 4.308594 11.78125 4.308594 C 11.765625 4.308594 11.683594 4.191406 11.589844 4.050781 L 11.417969 3.792969 L 11.5625 3.730469 C 11.800781 3.640625 11.804688 3.644531 11.804688 3.988281 Z M 2.871094 4.199219 C 2.871094 4.40625 2.851562 4.417969 2.515625 4.527344 C 1.398438 4.882812 1.046875 6.347656 1.894531 7.152344 C 2.558594 7.789062 3.734375 7.691406 4.230469 6.964844 C 4.453125 6.628906 4.53125 6.410156 4.53125 6.0625 C 4.53125 5.285156 4.019531 4.636719 3.285156 4.476562 C 3.121094 4.4375 3.09375 4.40625 3.101562 4.226562 C 3.105469 4.039062 3.125 4.019531 3.292969 4.039062 C 3.5625 4.070312 4.089844 4.320312 4.34375 4.554688 C 4.675781 4.847656 4.925781 5.382812 4.964844 5.902344 C 4.992188 6.269531 4.964844 6.40625 4.835938 6.738281 C 4.652344 7.195312 4.382812 7.542969 4.128906 7.660156 C 3.949219 7.738281 3.949219 7.742188 3.960938 8.257812 L 3.976562 8.777344 L 2.980469 8.796875 L 1.980469 8.816406 L 2.011719 8.308594 L 2.035156 7.808594 L 1.734375 7.589844 C 1.519531 7.425781 1.371094 7.234375 1.210938 6.917969 C 1.019531 6.535156 0.996094 6.425781 1 6.019531 C 1.015625 5.09375 1.609375 4.316406 2.488281 4.078125 C 2.886719 3.96875 2.871094 3.960938 2.871094 4.199219 Z M 3.582031 4.863281 C 3.816406 4.984375 4.121094 5.351562 4.210938 5.632812 C 4.554688 6.667969 3.445312 7.664062 2.449219 7.210938 C 1.925781 6.972656 1.59375 6.328125 1.714844 5.789062 C 1.90625 4.925781 2.828125 4.46875 3.582031 4.863281 Z M 4.417969 7.941406 C 4.429688 8.070312 4.429688 8.1875 4.410156 8.199219 C 4.398438 8.21875 4.371094 8.789062 4.351562 9.480469 C 4.320312 11.0625 4.398438 11.253906 5.035156 11.253906 C 5.285156 11.253906 5.296875 11.261719 5.296875 11.453125 C 5.296875 11.703125 5.460938 11.992188 5.660156 12.082031 C 5.742188 12.121094 6.09375 12.15625 6.445312 12.15625 L 7.078125 12.15625 L 7.078125 12.644531 C 7.078125 13.214844 6.988281 13.300781 6.707031 12.996094 C 6.546875 12.824219 6.476562 12.796875 6.203125 12.796875 C 5.882812 12.796875 5.679688 12.90625 5.679688 13.074219 C 5.679688 13.117188 5.609375 13.066406 5.519531 12.972656 C 5.378906 12.824219 5.304688 12.796875 5.007812 12.796875 C 4.722656 12.796875 4.644531 12.824219 4.550781 12.953125 L 4.429688 13.105469 L 4.296875 12.953125 C 4.1875 12.828125 4.097656 12.796875 3.835938 12.796875 C 3.574219 12.796875 3.496094 12.824219 3.390625 12.964844 C 3.316406 13.054688 3.230469 13.113281 3.191406 13.085938 C 3.144531 13.0625 3.179688 12.992188 3.285156 12.894531 C 3.496094 12.6875 3.515625 12.160156 3.316406 11.960938 C 3.191406 11.832031 3.191406 11.832031 3.316406 11.703125 C 3.445312 11.574219 3.464844 11.519531 3.457031 11.125 C 3.457031 10.964844 3.40625 10.863281 3.292969 10.757812 L 3.132812 10.625 L 3.285156 10.519531 C 3.425781 10.429688 3.445312 10.367188 3.445312 10.03125 C 3.445312 9.699219 3.425781 9.632812 3.292969 9.550781 C 3.210938 9.492188 3.125 9.363281 3.113281 9.261719 L 3.082031 9.066406 L 4.210938 9.066406 L 4.210938 8.496094 C 4.210938 7.921875 4.242188 7.71875 4.339844 7.71875 C 4.363281 7.71875 4.402344 7.820312 4.417969 7.941406 Z M 12.023438 8.078125 C 12.078125 8.097656 12.113281 8.140625 12.09375 8.171875 C 12.046875 8.238281 11.867188 8.171875 11.867188 8.097656 C 11.867188 8.027344 11.886719 8.027344 12.023438 8.078125 Z M 12.582031 8.617188 L 12.769531 8.617188 L 12.75 10.167969 C 12.730469 11.921875 12.738281 11.898438 12.203125 11.898438 C 11.957031 11.898438 11.867188 11.859375 11.644531 11.652344 C 11.5 11.523438 11.328125 11.382812 11.257812 11.335938 C 11.148438 11.273438 11.171875 11.261719 11.410156 11.261719 C 11.625 11.253906 11.726562 11.214844 11.875 11.066406 L 12.058594 10.882812 L 12.058594 8.355469 L 12.226562 8.480469 C 12.324219 8.558594 12.480469 8.617188 12.582031 8.617188 Z M 3.179688 10.007812 C 3.199219 10.261719 3.191406 10.277344 3 10.300781 C 2.769531 10.335938 2.742188 10.320312 2.742188 10.089844 C 2.742188 9.792969 2.808594 9.703125 2.992188 9.722656 C 3.140625 9.742188 3.160156 9.773438 3.179688 10.007812 Z M 3.179688 11.246094 L 3.199219 11.519531 L 2.988281 11.5 C 2.808594 11.480469 2.769531 11.453125 2.757812 11.300781 C 2.722656 11.027344 2.769531 10.957031 2.972656 10.964844 C 3.144531 10.976562 3.160156 10.996094 3.179688 11.246094 Z M 8.769531 11.441406 C 8.632812 11.535156 8.460938 11.683594 8.398438 11.761719 C 8.28125 11.890625 8.226562 11.898438 7.039062 11.898438 C 5.890625 11.898438 5.800781 11.890625 5.679688 11.769531 C 5.609375 11.699219 5.550781 11.554688 5.550781 11.445312 L 5.550781 11.253906 L 9.015625 11.253906 Z M 10.855469 11.425781 C 11.019531 11.503906 11.277344 11.671875 11.421875 11.808594 C 11.722656 12.078125 12.058594 12.71875 12.058594 13.007812 C 12.058594 13.175781 12.039062 13.191406 11.863281 13.171875 C 11.691406 13.152344 11.652344 13.113281 11.554688 12.824219 C 11.097656 11.441406 9.285156 11.300781 8.679688 12.605469 C 8.550781 12.875 8.539062 12.957031 8.601562 13.0625 C 8.667969 13.15625 8.667969 13.183594 8.601562 13.171875 C 8.480469 13.144531 8.539062 13.664062 8.691406 14 C 9.117188 14.914062 10.40625 15.132812 11.136719 14.425781 C 11.390625 14.171875 11.609375 13.753906 11.613281 13.519531 C 11.613281 13.394531 11.644531 13.375 11.835938 13.375 C 12.039062 13.375 12.058594 13.394531 12.058594 13.554688 C 12.058594 13.832031 11.703125 14.496094 11.410156 14.757812 C 11.007812 15.125 10.644531 15.265625 10.082031 15.265625 C 9.476562 15.273438 9.011719 15.0625 8.589844 14.589844 L 8.308594 14.277344 L 7.339844 14.277344 L 7.332031 13.871094 C 7.324219 13.652344 7.320312 13.175781 7.320312 12.808594 C 7.304688 12.199219 7.339844 12.058594 7.433594 12.21875 C 7.492188 12.308594 7.742188 12.296875 7.84375 12.199219 C 7.914062 12.136719 7.925781 12.136719 7.886719 12.199219 C 7.855469 12.257812 7.90625 12.28125 8.070312 12.28125 C 8.269531 12.28125 8.347656 12.230469 8.632812 11.929688 C 9.238281 11.28125 10.089844 11.085938 10.855469 11.425781 Z M 3.191406 12.457031 C 3.183594 12.726562 3.179688 12.753906 3.101562 12.648438 C 3 12.515625 2.871094 12.507812 2.871094 12.644531 C 2.871094 12.695312 2.847656 12.71875 2.808594 12.699219 C 2.738281 12.65625 2.71875 12.261719 2.789062 12.199219 C 2.808594 12.171875 2.910156 12.15625 3.011719 12.15625 C 3.183594 12.15625 3.191406 12.167969 3.191406 12.457031 Z M 10.984375 12.359375 C 11.613281 12.996094 11.441406 14.019531 10.625 14.457031 C 10.515625 14.515625 10.28125 14.558594 10.082031 14.558594 C 9.617188 14.566406 9.277344 14.386719 9.015625 13.992188 C 8.839844 13.738281 8.804688 13.621094 8.804688 13.324219 C 8.804688 12.914062 8.984375 12.480469 9.234375 12.28125 C 9.375 12.171875 9.496094 12.15625 10.089844 12.15625 L 10.773438 12.15625 Z M 4.097656 13.246094 C 4.117188 13.355469 4.109375 13.453125 4.097656 13.472656 C 4.03125 13.53125 3.582031 13.503906 3.542969 13.441406 C 3.523438 13.402344 3.546875 13.375 3.601562 13.375 C 3.65625 13.375 3.703125 13.332031 3.703125 13.28125 C 3.703125 13.226562 3.675781 13.183594 3.636719 13.183594 C 3.605469 13.183594 3.574219 13.152344 3.574219 13.117188 C 3.574219 13.082031 3.683594 13.054688 3.820312 13.054688 C 4.046875 13.054688 4.070312 13.074219 4.097656 13.246094 Z M 5.296875 13.285156 L 5.296875 13.511719 L 5.027344 13.492188 C 4.824219 13.480469 4.746094 13.441406 4.734375 13.355469 C 4.691406 13.132812 4.773438 13.054688 5.039062 13.054688 C 5.289062 13.054688 5.296875 13.0625 5.296875 13.285156 Z M 6.476562 13.28125 C 6.476562 13.460938 6.457031 13.472656 6.210938 13.492188 L 5.933594 13.511719 L 5.933594 13.046875 L 6.210938 13.066406 C 6.457031 13.085938 6.476562 13.101562 6.476562 13.28125 Z M 6.476562 13.28125 "/>
<path style=" stroke:none;fill-rule:nonzero;fill:rgb(38.431373%,38.431373%,38.431373%);fill-opacity:1;" d="M 8.523438 2.078125 C 8.417969 2.160156 8.429688 2.1875 8.714844 2.585938 C 8.886719 2.816406 9.183594 3.222656 9.367188 3.480469 C 9.554688 3.742188 10.03125 4.40625 10.421875 4.953125 C 10.816406 5.5 11.296875 6.171875 11.488281 6.445312 C 11.671875 6.71875 11.851562 6.945312 11.875 6.945312 C 11.894531 6.945312 11.953125 6.898438 11.996094 6.847656 C 12.054688 6.777344 12.035156 6.714844 11.882812 6.515625 C 11.691406 6.269531 8.921875 2.40625 8.742188 2.136719 C 8.660156 2.007812 8.632812 2 8.523438 2.078125 Z M 8.523438 2.078125 "/>
<path style=" stroke:none;fill-rule:nonzero;fill:rgb(38.431373%,38.431373%,38.431373%);fill-opacity:1;" d="M 15.382812 4.335938 C 15.320312 4.40625 15.367188 4.5 15.582031 4.816406 C 15.859375 5.203125 15.992188 5.285156 16.054688 5.117188 C 16.085938 5.035156 15.589844 4.257812 15.5 4.25 C 15.476562 4.246094 15.421875 4.28125 15.382812 4.335938 Z M 15.382812 4.335938 "/>
<path style=" stroke:none;fill-rule:nonzero;fill:rgb(38.431373%,38.431373%,38.431373%);fill-opacity:1;" d="M 14.742188 4.589844 C 14.683594 4.667969 14.722656 4.757812 14.9375 5.0625 C 15.089844 5.265625 15.21875 5.441406 15.226562 5.453125 C 15.246094 5.492188 15.441406 5.382812 15.441406 5.332031 C 15.441406 5.261719 14.914062 4.507812 14.863281 4.507812 C 14.835938 4.5 14.785156 4.539062 14.742188 4.589844 Z M 14.742188 4.589844 "/>
<path style=" stroke:none;fill-rule:nonzero;fill:rgb(38.431373%,38.431373%,38.431373%);fill-opacity:1;" d="M 14.121094 4.804688 C 13.992188 4.847656 14.019531 4.925781 14.261719 5.242188 C 14.382812 5.402344 14.503906 5.582031 14.535156 5.632812 C 14.585938 5.730469 14.804688 5.699219 14.804688 5.589844 C 14.804688 5.519531 14.273438 4.757812 14.230469 4.765625 C 14.210938 4.765625 14.160156 4.785156 14.121094 4.804688 Z M 14.121094 4.804688 "/>
<path style=" stroke:none;fill-rule:nonzero;fill:rgb(38.431373%,38.431373%,38.431373%);fill-opacity:1;" d="M 6.382812 7.523438 C 6.382812 7.652344 6.425781 7.652344 8.199219 7.652344 C 9.972656 7.652344 10.019531 7.652344 10.019531 7.523438 C 10.019531 7.394531 9.972656 7.394531 8.199219 7.394531 C 6.425781 7.394531 6.382812 7.394531 6.382812 7.523438 Z M 6.382812 7.523438 "/>
<path style=" stroke:none;fill-rule:nonzero;fill:rgb(38.431373%,38.431373%,38.431373%);fill-opacity:1;" d="M 6.394531 8.757812 L 6.414062 8.90625 L 8.21875 8.925781 L 10.019531 8.9375 L 10.019531 8.617188 L 6.375 8.617188 Z M 6.394531 8.757812 "/>
<path style=" stroke:none;fill-rule:nonzero;fill:rgb(38.431373%,38.431373%,38.431373%);fill-opacity:1;" d="M 2.648438 7.878906 C 2.558594 7.960938 2.488281 8.109375 2.488281 8.199219 C 2.488281 8.390625 2.75 8.683594 2.914062 8.683594 C 3.164062 8.683594 3.3125 8.597656 3.402344 8.410156 C 3.644531 7.902344 3.039062 7.480469 2.648438 7.878906 Z M 3.179688 7.988281 C 3.179688 8.320312 3.125 8.429688 2.988281 8.410156 C 2.792969 8.386719 2.699219 8.207031 2.800781 8.078125 C 2.851562 8.019531 2.941406 7.972656 3.003906 7.972656 C 3.074219 7.972656 3.125 7.941406 3.125 7.910156 C 3.125 7.871094 3.140625 7.84375 3.152344 7.84375 C 3.171875 7.84375 3.183594 7.910156 3.179688 7.988281 Z M 3.179688 7.988281 "/>
<path style=" stroke:none;fill-rule:nonzero;fill:rgb(38.431373%,38.431373%,38.431373%);fill-opacity:1;" d="M 7.59375 12.925781 C 7.515625 13.003906 7.464844 13.136719 7.464844 13.28125 C 7.464844 13.691406 7.914062 13.910156 8.226562 13.644531 C 8.421875 13.484375 8.429688 13.074219 8.238281 12.914062 C 8.046875 12.757812 7.753906 12.765625 7.59375 12.925781 Z M 8.089844 13.390625 C 7.984375 13.609375 7.695312 13.484375 7.734375 13.242188 C 7.761719 13.035156 8.054688 12.957031 8.109375 13.144531 C 8.128906 13.222656 8.125 13.332031 8.089844 13.390625 Z M 8.089844 13.390625 "/>
</g>
</svg>
