<?xml version="1.0" encoding="UTF-8"?>
<svg xmlns="http://www.w3.org/2000/svg" xmlns:xlink="http://www.w3.org/1999/xlink" width="18pt" height="18pt" viewBox="0 0 18 18" version="1.1">
<g id="surface1">
<path style=" stroke:none;fill-rule:nonzero;fill:rgb(38.431373%,38.431373%,38.431373%);fill-opacity:1;" d="M 17.421875 14.550781 L 17.421875 11.902344 C 17.421875 11.527344 17.175781 11.207031 16.839844 11.085938 L 16.839844 10.742188 C 16.839844 10.261719 16.445312 9.871094 15.96875 9.871094 L 12.71875 9.871094 C 12.601562 9.535156 12.28125 9.289062 11.902344 9.289062 L 11.902344 5.65625 C 11.902344 4.929688 11.511719 4.253906 10.875 3.890625 L 5.3125 0.71875 C 5.058594 0.292969 4.597656 0 4.066406 0 C 3.269531 0 2.617188 0.644531 2.613281 1.441406 L 2.332031 9.898438 C 1.664062 10.03125 1.160156 10.617188 1.160156 11.324219 C 1.160156 11.636719 1.261719 11.921875 1.429688 12.160156 L 0.605469 13.121094 C 0.214844 13.578125 0 14.15625 0 14.757812 C 0 15.429688 0.261719 16.058594 0.734375 16.535156 L 1.605469 17.40625 C 1.992188 17.789062 2.5 18 3.042969 18 L 6.097656 18 L 6.097656 17.421875 L 5.515625 17.421875 L 5.515625 15.828125 L 4.519531 15.03125 C 4.214844 14.789062 4.023438 14.445312 3.984375 14.058594 L 3.773438 12.183594 C 3.953125 11.941406 4.066406 11.644531 4.066406 11.324219 C 4.066406 10.871094 3.855469 10.476562 3.53125 10.207031 L 4.882812 2.648438 C 4.933594 2.613281 4.976562 2.574219 5.023438 2.53125 L 8.003906 5.511719 C 7.902344 5.683594 7.839844 5.882812 7.839844 6.097656 C 7.839844 6.636719 8.210938 7.085938 8.710938 7.21875 L 8.710938 9.289062 L 8.605469 9.289062 C 8.191406 9.289062 7.832031 9.585938 7.75 9.992188 L 6.972656 13.878906 L 6.96875 14.546875 C 6.609375 14.914062 6.386719 15.414062 6.386719 15.96875 C 6.386719 17.085938 7.300781 18 8.421875 18 L 15.96875 18 C 17.089844 18 18 17.085938 18 15.96875 C 18 15.417969 17.777344 14.914062 17.421875 14.550781 Z M 2.613281 10.453125 C 3.09375 10.453125 3.484375 10.84375 3.484375 11.324219 C 3.484375 11.800781 3.09375 12.195312 2.613281 12.195312 C 2.132812 12.195312 1.742188 11.800781 1.742188 11.324219 C 1.742188 10.84375 2.132812 10.453125 2.613281 10.453125 Z M 4.15625 15.484375 L 4.933594 16.109375 L 4.933594 16.257812 L 4.355469 16.257812 L 4.355469 16.839844 L 4.933594 16.839844 L 4.933594 17.421875 L 3.042969 17.421875 C 2.65625 17.421875 2.289062 17.265625 2.015625 16.992188 L 1.144531 16.121094 C 0.78125 15.757812 0.578125 15.273438 0.578125 14.757812 C 0.578125 14.296875 0.746094 13.851562 1.046875 13.5 L 1.855469 12.554688 C 2.078125 12.691406 2.335938 12.773438 2.613281 12.773438 C 2.839844 12.773438 3.050781 12.71875 3.238281 12.625 L 3.40625 14.121094 C 3.464844 14.660156 3.734375 15.144531 4.15625 15.484375 Z M 2.992188 9.925781 C 2.964844 9.921875 2.941406 9.910156 2.914062 9.902344 L 3.15625 2.574219 C 3.40625 2.777344 3.71875 2.902344 4.066406 2.902344 C 4.128906 2.902344 4.1875 2.894531 4.25 2.882812 Z M 4.066406 2.324219 C 3.585938 2.324219 3.195312 1.933594 3.195312 1.453125 C 3.195312 0.972656 3.585938 0.578125 4.066406 0.578125 C 4.546875 0.578125 4.933594 0.972656 4.933594 1.453125 C 4.933594 1.933594 4.546875 2.324219 4.066406 2.324219 Z M 12.773438 11.613281 L 13.355469 11.613281 L 13.355469 11.03125 L 12.773438 11.03125 L 12.773438 10.453125 L 15.96875 10.453125 C 16.128906 10.453125 16.257812 10.582031 16.257812 10.742188 L 16.257812 11.03125 L 13.933594 11.03125 L 13.933594 11.613281 L 16.546875 11.613281 C 16.707031 11.613281 16.839844 11.742188 16.839844 11.902344 L 16.839844 14.132812 C 16.574219 14.007812 16.28125 13.933594 15.96875 13.933594 L 12.773438 13.933594 Z M 5.375 2.0625 C 5.457031 1.890625 5.503906 1.703125 5.511719 1.503906 L 10.589844 4.394531 C 11.042969 4.652344 11.324219 5.136719 11.324219 5.65625 L 11.324219 9.289062 L 9.289062 9.289062 L 9.289062 7.21875 C 9.789062 7.085938 10.160156 6.636719 10.160156 6.097656 C 10.160156 5.457031 9.640625 4.933594 9 4.933594 C 8.785156 4.933594 8.585938 4.996094 8.414062 5.101562 Z M 8.421875 6.097656 C 8.421875 5.777344 8.679688 5.515625 9 5.515625 C 9.320312 5.515625 9.582031 5.777344 9.582031 6.097656 C 9.582031 6.417969 9.320312 6.675781 9 6.675781 C 8.679688 6.675781 8.421875 6.417969 8.421875 6.097656 Z M 7.546875 13.964844 L 8.320312 10.105469 C 8.347656 9.96875 8.46875 9.871094 8.605469 9.871094 L 11.902344 9.871094 C 12.0625 9.871094 12.195312 10 12.195312 10.160156 L 12.195312 13.933594 L 8.421875 13.933594 C 8.109375 13.933594 7.8125 14.007812 7.546875 14.132812 Z M 15.96875 17.421875 L 8.421875 17.421875 C 7.617188 17.421875 6.96875 16.769531 6.96875 15.96875 C 6.96875 15.167969 7.617188 14.515625 8.421875 14.515625 L 15.96875 14.515625 C 16.769531 14.515625 17.421875 15.167969 17.421875 15.96875 C 17.421875 16.769531 16.769531 17.421875 15.96875 17.421875 Z M 15.96875 17.421875 "/>
<path style=" stroke:none;fill-rule:nonzero;fill:rgb(38.431373%,38.431373%,38.431373%);fill-opacity:1;" d="M 15.675781 14.804688 C 15.328125 14.804688 15.019531 14.964844 14.804688 15.207031 C 14.59375 14.964844 14.285156 14.804688 13.933594 14.804688 C 13.585938 14.804688 13.277344 14.964844 13.066406 15.207031 C 12.851562 14.964844 12.542969 14.804688 12.195312 14.804688 C 11.84375 14.804688 11.535156 14.964844 11.324219 15.207031 C 11.109375 14.964844 10.800781 14.804688 10.453125 14.804688 C 10.101562 14.804688 9.792969 14.964844 9.582031 15.207031 C 9.367188 14.964844 9.058594 14.804688 8.710938 14.804688 C 8.070312 14.804688 7.546875 15.328125 7.546875 15.96875 C 7.546875 16.609375 8.070312 17.128906 8.710938 17.128906 C 9.058594 17.128906 9.367188 16.972656 9.582031 16.730469 C 9.792969 16.972656 10.101562 17.128906 10.453125 17.128906 C 10.800781 17.128906 11.109375 16.972656 11.324219 16.730469 C 11.535156 16.972656 11.84375 17.128906 12.195312 17.128906 C 12.542969 17.128906 12.851562 16.972656 13.066406 16.730469 C 13.277344 16.972656 13.585938 17.128906 13.933594 17.128906 C 14.285156 17.128906 14.59375 16.972656 14.804688 16.730469 C 15.019531 16.972656 15.328125 17.128906 15.675781 17.128906 C 16.320312 17.128906 16.839844 16.609375 16.839844 15.96875 C 16.839844 15.328125 16.320312 14.804688 15.675781 14.804688 Z M 8.710938 16.546875 C 8.390625 16.546875 8.128906 16.289062 8.128906 15.96875 C 8.128906 15.648438 8.390625 15.386719 8.710938 15.386719 C 9.03125 15.386719 9.289062 15.648438 9.289062 15.96875 C 9.289062 16.289062 9.03125 16.546875 8.710938 16.546875 Z M 10.453125 16.546875 C 10.132812 16.546875 9.871094 16.289062 9.871094 15.96875 C 9.871094 15.648438 10.132812 15.386719 10.453125 15.386719 C 10.773438 15.386719 11.03125 15.648438 11.03125 15.96875 C 11.03125 16.289062 10.773438 16.546875 10.453125 16.546875 Z M 12.195312 16.546875 C 11.875 16.546875 11.613281 16.289062 11.613281 15.96875 C 11.613281 15.648438 11.875 15.386719 12.195312 15.386719 C 12.515625 15.386719 12.773438 15.648438 12.773438 15.96875 C 12.773438 16.289062 12.515625 16.546875 12.195312 16.546875 Z M 13.933594 16.546875 C 13.617188 16.546875 13.355469 16.289062 13.355469 15.96875 C 13.355469 15.648438 13.617188 15.386719 13.933594 15.386719 C 14.257812 15.386719 14.515625 15.648438 14.515625 15.96875 C 14.515625 16.289062 14.257812 16.546875 13.933594 16.546875 Z M 15.675781 16.546875 C 15.359375 16.546875 15.097656 16.289062 15.097656 15.96875 C 15.097656 15.648438 15.359375 15.386719 15.675781 15.386719 C 15.996094 15.386719 16.257812 15.648438 16.257812 15.96875 C 16.257812 16.289062 15.996094 16.546875 15.675781 16.546875 Z M 15.675781 16.546875 "/>
<path style=" stroke:none;fill-rule:nonzero;fill:rgb(38.431373%,38.431373%,38.431373%);fill-opacity:1;" d="M 11.902344 10.453125 L 8.761719 10.453125 L 8.425781 12.136719 L 8.421875 12.773438 L 11.902344 12.773438 Z M 11.324219 12.195312 L 9.007812 12.195312 L 9.238281 11.03125 L 11.324219 11.03125 Z M 11.324219 12.195312 "/>
<path style=" stroke:none;fill-rule:nonzero;fill:rgb(38.431373%,38.431373%,38.431373%);fill-opacity:1;" d="M 15.097656 12.195312 L 16.257812 12.195312 L 16.257812 12.773438 L 15.097656 12.773438 Z M 15.097656 12.195312 "/>
<path style=" stroke:none;fill-rule:nonzero;fill:rgb(38.431373%,38.431373%,38.431373%);fill-opacity:1;" d="M 13.355469 12.195312 L 14.515625 12.195312 L 14.515625 12.773438 L 13.355469 12.773438 Z M 13.355469 12.195312 "/>
</g>
</svg>
