<?xml version="1.0" encoding="UTF-8"?>
<svg xmlns="http://www.w3.org/2000/svg" xmlns:xlink="http://www.w3.org/1999/xlink" width="18pt" height="18pt" viewBox="0 0 18 18" version="1.1">
<g id="surface1">
<path style=" stroke:none;fill-rule:nonzero;fill:rgb(38.431373%,38.431373%,38.431373%);fill-opacity:1;" d="M 9 0.75 L 2.25 3.75 L 2.25 8.25 C 2.25 12.414062 5.128906 16.304688 9 17.25 C 12.871094 16.304688 15.75 12.414062 15.75 8.25 L 15.75 3.75 Z M 14.25 8.25 C 14.25 9.636719 13.867188 10.988281 13.214844 12.15625 L 12.128906 11.070312 C 13.109375 9.582031 12.910156 7.613281 11.648438 6.351562 C 10.183594 4.890625 7.8125 4.890625 6.347656 6.351562 C 4.882812 7.816406 4.882812 10.191406 6.347656 11.65625 C 7.605469 12.914062 9.574219 13.113281 11.0625 12.132812 L 12.351562 13.425781 C 11.460938 14.492188 10.304688 15.308594 9 15.703125 C 5.984375 14.765625 3.75 11.640625 3.75 8.25 L 3.75 4.726562 L 9 2.390625 L 14.25 4.726562 Z M 9 11.25 C 7.753906 11.25 6.75 10.246094 6.75 9 C 6.75 7.753906 7.753906 6.75 9 6.75 C 10.246094 6.75 11.25 7.753906 11.25 9 C 11.25 10.246094 10.246094 11.25 9 11.25 Z M 9 11.25 "/>
</g>
</svg>
