<?xml version="1.0" encoding="UTF-8"?>
<svg xmlns="http://www.w3.org/2000/svg" xmlns:xlink="http://www.w3.org/1999/xlink" width="18pt" height="18pt" viewBox="0 0 18 18" version="1.1">
<g id="surface1">
<path style=" stroke:none;fill-rule:nonzero;fill:rgb(38.431373%,38.431373%,38.431373%);fill-opacity:1;" d="M 15.488281 12.691406 C 15.484375 12.691406 15.480469 12.6875 15.480469 12.683594 C 15.464844 12.65625 15.449219 12.632812 15.433594 12.609375 C 15.425781 12.597656 15.417969 12.582031 15.40625 12.570312 C 15.398438 12.550781 15.386719 12.535156 15.375 12.523438 C 15.359375 12.5 15.34375 12.480469 15.328125 12.460938 C 15.324219 12.453125 15.320312 12.445312 15.316406 12.441406 C 15.3125 12.4375 15.3125 12.433594 15.308594 12.429688 C 15.289062 12.40625 15.269531 12.382812 15.25 12.359375 C 15.246094 12.351562 15.238281 12.339844 15.234375 12.335938 C 15.214844 12.3125 15.195312 12.289062 15.175781 12.265625 C 15.167969 12.257812 15.160156 12.246094 15.152344 12.238281 C 15.136719 12.21875 15.117188 12.203125 15.101562 12.183594 C 15.089844 12.171875 15.078125 12.15625 15.066406 12.144531 C 15.058594 12.136719 15.046875 12.125 15.039062 12.117188 C 14.671875 11.75 14.226562 11.480469 13.71875 11.332031 C 13.710938 11.328125 13.703125 11.328125 13.695312 11.324219 C 13.695312 11.324219 11.308594 10.882812 11.308594 10.882812 C 11.304688 10.882812 11.300781 10.882812 11.296875 10.878906 C 11.1875 10.863281 11.070312 10.875 10.96875 10.921875 C 10.886719 10.820312 10.832031 10.679688 10.832031 10.550781 L 10.832031 10.117188 C 10.980469 10.023438 11.128906 9.914062 11.269531 9.792969 C 11.859375 9.285156 12.234375 8.550781 12.3125 7.75 C 12.746094 7.730469 13.09375 7.371094 13.09375 6.929688 L 13.09375 6.316406 C 13.09375 6.070312 12.980469 5.839844 12.792969 5.683594 L 12.792969 4.273438 C 13.65625 3.847656 13.84375 3.351562 13.84375 3 C 13.84375 2.402344 13.285156 1.652344 12.386719 1.042969 C 11.808594 0.652344 10.605469 0 9 0 C 7.394531 0 6.191406 0.652344 5.613281 1.042969 C 4.714844 1.652344 4.15625 2.402344 4.15625 3 C 4.15625 3.351562 4.34375 3.847656 5.207031 4.273438 L 5.207031 5.683594 C 5.019531 5.839844 4.90625 6.070312 4.90625 6.316406 L 4.90625 6.929688 C 4.90625 7.371094 5.253906 7.730469 5.6875 7.75 C 5.765625 8.550781 6.140625 9.285156 6.730469 9.792969 C 6.871094 9.914062 7.019531 10.023438 7.167969 10.117188 L 7.167969 10.550781 C 7.167969 10.679688 7.113281 10.820312 7.03125 10.921875 C 6.925781 10.875 6.804688 10.859375 6.691406 10.882812 L 4.304688 11.324219 C 4.296875 11.328125 4.289062 11.328125 4.28125 11.332031 C 3.773438 11.480469 3.328125 11.75 2.964844 12.117188 C 2.953125 12.125 2.941406 12.136719 2.933594 12.148438 C 2.921875 12.15625 2.910156 12.171875 2.898438 12.183594 C 2.882812 12.203125 2.863281 12.21875 2.847656 12.238281 C 2.839844 12.246094 2.832031 12.257812 2.824219 12.265625 C 2.804688 12.289062 2.785156 12.3125 2.765625 12.335938 C 2.761719 12.339844 2.753906 12.351562 2.746094 12.359375 C 2.730469 12.382812 2.710938 12.40625 2.691406 12.429688 C 2.6875 12.433594 2.6875 12.4375 2.683594 12.441406 C 2.679688 12.445312 2.675781 12.453125 2.671875 12.460938 C 2.65625 12.480469 2.640625 12.5 2.625 12.523438 C 2.613281 12.535156 2.601562 12.550781 2.59375 12.570312 C 2.585938 12.582031 2.574219 12.597656 2.566406 12.609375 C 2.550781 12.632812 2.535156 12.65625 2.519531 12.683594 C 2.519531 12.6875 2.515625 12.691406 2.515625 12.691406 C 2.222656 13.171875 2.070312 13.71875 2.070312 14.285156 L 2.070312 14.609375 C 2.070312 14.753906 2.1875 14.871094 2.332031 14.871094 C 2.476562 14.871094 2.59375 14.753906 2.59375 14.609375 L 2.59375 14.285156 C 2.59375 14.03125 2.636719 13.777344 2.707031 13.539062 C 2.863281 13.664062 3.050781 13.730469 3.246094 13.730469 C 3.277344 13.730469 3.308594 13.726562 3.339844 13.722656 C 3.574219 13.699219 3.78125 13.585938 3.925781 13.40625 L 4.210938 13.050781 C 4.359375 12.867188 4.425781 12.640625 4.398438 12.410156 C 4.382812 12.226562 4.304688 12.058594 4.183594 11.921875 C 4.257812 11.890625 4.335938 11.863281 4.417969 11.839844 L 5.9375 11.558594 L 7.144531 13.246094 C 7.265625 13.414062 7.453125 13.507812 7.652344 13.507812 C 7.734375 13.507812 7.816406 13.492188 7.898438 13.460938 L 7.976562 13.425781 L 8.328125 13.832031 L 7.824219 17.472656 L 4.507812 17.472656 L 4.507812 15.335938 C 4.507812 15.1875 4.386719 15.070312 4.242188 15.070312 C 4.097656 15.070312 3.980469 15.1875 3.980469 15.335938 L 3.980469 17.472656 L 2.925781 17.472656 C 2.742188 17.472656 2.597656 17.324219 2.597656 17.144531 L 2.597656 15.835938 C 2.597656 15.691406 2.476562 15.574219 2.332031 15.574219 C 2.1875 15.574219 2.070312 15.691406 2.070312 15.835938 L 2.070312 17.144531 C 2.070312 17.617188 2.453125 18 2.925781 18 L 15.074219 18 C 15.546875 18 15.929688 17.617188 15.929688 17.144531 L 15.929688 14.285156 C 15.929688 13.71875 15.777344 13.171875 15.488281 12.691406 Z M 3.800781 12.71875 L 3.515625 13.074219 C 3.457031 13.144531 3.375 13.1875 3.285156 13.199219 C 3.195312 13.207031 3.105469 13.183594 3.035156 13.125 L 2.921875 13.035156 C 2.945312 12.992188 2.972656 12.953125 3 12.914062 C 3 12.910156 3 12.910156 3 12.910156 C 3.023438 12.875 3.046875 12.84375 3.070312 12.808594 C 3.074219 12.796875 3.082031 12.789062 3.089844 12.777344 C 3.109375 12.75 3.132812 12.71875 3.15625 12.691406 C 3.160156 12.6875 3.167969 12.679688 3.171875 12.671875 C 3.199219 12.640625 3.222656 12.609375 3.25 12.578125 C 3.257812 12.570312 3.265625 12.5625 3.273438 12.554688 C 3.300781 12.527344 3.328125 12.5 3.355469 12.46875 C 3.359375 12.46875 3.359375 12.464844 3.363281 12.464844 C 3.464844 12.363281 3.574219 12.273438 3.691406 12.1875 L 3.75 12.234375 C 3.820312 12.292969 3.867188 12.375 3.875 12.464844 C 3.886719 12.554688 3.859375 12.644531 3.800781 12.71875 Z M 14.25 12.234375 L 14.308594 12.1875 C 14.425781 12.269531 14.535156 12.363281 14.636719 12.464844 C 14.640625 12.464844 14.640625 12.46875 14.644531 12.46875 C 14.671875 12.5 14.699219 12.527344 14.726562 12.554688 C 14.734375 12.5625 14.742188 12.570312 14.75 12.578125 C 14.777344 12.609375 14.800781 12.640625 14.828125 12.671875 C 14.832031 12.679688 14.839844 12.6875 14.84375 12.691406 C 14.867188 12.71875 14.890625 12.75 14.910156 12.777344 C 14.917969 12.789062 14.925781 12.796875 14.929688 12.808594 C 14.953125 12.84375 14.976562 12.875 15 12.910156 C 15 12.910156 15 12.910156 15 12.914062 C 15.027344 12.953125 15.054688 12.992188 15.078125 13.035156 L 14.964844 13.125 C 14.894531 13.183594 14.804688 13.207031 14.714844 13.199219 C 14.625 13.1875 14.542969 13.144531 14.484375 13.074219 L 14.195312 12.71875 C 14.078125 12.570312 14.101562 12.355469 14.25 12.234375 Z M 11.101562 11.460938 L 11.171875 11.410156 C 11.183594 11.402344 11.199219 11.398438 11.214844 11.402344 L 11.492188 11.453125 L 10.425781 12.941406 C 10.398438 12.976562 10.351562 12.992188 10.308594 12.972656 L 9.527344 12.640625 Z M 9 12.375 L 7.464844 11.226562 C 7.609375 11.035156 7.695312 10.792969 7.695312 10.550781 L 7.695312 10.394531 C 8.101562 10.566406 8.535156 10.65625 8.996094 10.660156 C 9 10.660156 9 10.660156 9 10.660156 C 9 10.660156 9 10.660156 9.003906 10.660156 C 9.464844 10.65625 9.898438 10.566406 10.304688 10.394531 L 10.304688 10.550781 C 10.304688 10.792969 10.390625 11.035156 10.535156 11.226562 Z M 9.511719 13.207031 L 9.273438 13.488281 L 8.726562 13.488281 L 8.488281 13.207031 L 9 12.992188 Z M 5.207031 3.667969 C 4.867188 3.460938 4.683594 3.230469 4.683594 3 C 4.683594 2.527344 5.320312 1.878906 5.910156 1.480469 C 6.433594 1.125 7.535156 0.527344 9 0.527344 C 10.464844 0.527344 11.566406 1.125 12.089844 1.480469 C 12.679688 1.878906 13.316406 2.527344 13.316406 3 C 13.316406 3.230469 13.132812 3.460938 12.792969 3.667969 L 12.792969 3.191406 C 12.792969 2.820312 12.542969 2.492188 12.179688 2.402344 C 11.496094 2.226562 10.15625 1.933594 8.835938 1.933594 C 8.832031 1.933594 8.832031 1.933594 8.832031 1.933594 C 7.6875 1.933594 6.550781 2.183594 5.800781 2.398438 C 5.449219 2.496094 5.207031 2.816406 5.207031 3.179688 Z M 6.121094 4.597656 C 6.117188 4.59375 6.113281 4.589844 6.109375 4.589844 C 6.09375 4.578125 6.078125 4.566406 6.058594 4.554688 C 6.054688 4.550781 6.046875 4.546875 6.042969 4.542969 C 6.027344 4.535156 6.015625 4.523438 6.003906 4.515625 C 5.992188 4.507812 5.988281 4.5 5.976562 4.496094 C 5.96875 4.488281 5.960938 4.480469 5.949219 4.472656 C 5.941406 4.464844 5.929688 4.457031 5.921875 4.445312 C 5.914062 4.441406 5.90625 4.433594 5.902344 4.429688 C 5.890625 4.417969 5.882812 4.410156 5.871094 4.398438 C 5.867188 4.394531 5.863281 4.386719 5.859375 4.382812 L 10.285156 4.382812 C 10.429688 4.382812 10.546875 4.265625 10.546875 4.117188 C 10.546875 3.972656 10.429688 3.855469 10.285156 3.855469 L 5.734375 3.855469 L 5.734375 3.179688 C 5.734375 3.050781 5.820312 2.9375 5.941406 2.90625 C 6.664062 2.703125 7.746094 2.460938 8.832031 2.460938 C 8.832031 2.460938 8.832031 2.460938 8.835938 2.460938 C 10.097656 2.460938 11.390625 2.742188 12.050781 2.914062 C 12.175781 2.945312 12.265625 3.058594 12.265625 3.191406 L 12.265625 3.855469 L 11.558594 3.855469 C 11.414062 3.855469 11.296875 3.972656 11.296875 4.117188 C 11.296875 4.265625 11.414062 4.382812 11.558594 4.382812 L 12.144531 4.382812 C 12.140625 4.382812 12.140625 4.382812 12.140625 4.382812 C 12.136719 4.386719 12.132812 4.394531 12.128906 4.398438 C 12.117188 4.410156 12.109375 4.417969 12.097656 4.429688 C 12.09375 4.433594 12.085938 4.441406 12.078125 4.445312 C 12.070312 4.457031 12.058594 4.464844 12.050781 4.472656 C 12.042969 4.480469 12.03125 4.488281 12.023438 4.496094 C 12.015625 4.5 12.007812 4.507812 11.996094 4.515625 C 11.984375 4.523438 11.972656 4.535156 11.960938 4.542969 C 11.953125 4.546875 11.945312 4.550781 11.941406 4.554688 C 11.925781 4.566406 11.90625 4.578125 11.890625 4.589844 C 11.886719 4.589844 11.882812 4.59375 11.878906 4.597656 C 11.769531 4.664062 11.640625 4.730469 11.492188 4.792969 C 11.488281 4.792969 11.484375 4.796875 11.480469 4.796875 C 10.917969 5.03125 10.066406 5.207031 9 5.207031 C 7.933594 5.207031 7.085938 5.03125 6.519531 4.796875 C 6.515625 4.796875 6.511719 4.792969 6.511719 4.792969 C 6.359375 4.730469 6.230469 4.664062 6.121094 4.597656 Z M 6.144531 5.210938 L 6.144531 5.722656 C 6 5.648438 5.851562 5.609375 5.734375 5.585938 L 5.734375 4.972656 C 5.847656 5.054688 5.984375 5.132812 6.144531 5.210938 Z M 11.855469 5.210938 C 12.015625 5.132812 12.152344 5.054688 12.265625 4.972656 L 12.265625 5.585938 C 12.148438 5.609375 12 5.648438 11.855469 5.722656 Z M 7.074219 9.394531 C 6.535156 8.929688 6.214844 8.230469 6.199219 7.480469 C 6.195312 7.335938 6.078125 7.222656 5.933594 7.222656 L 5.726562 7.222656 C 5.566406 7.222656 5.433594 7.09375 5.433594 6.929688 L 5.433594 6.316406 C 5.433594 6.230469 5.472656 6.148438 5.542969 6.09375 C 5.636719 6.097656 5.808594 6.128906 5.957031 6.222656 C 5.957031 6.222656 5.960938 6.222656 5.960938 6.222656 C 5.980469 6.238281 6 6.253906 6.019531 6.269531 C 6.023438 6.269531 6.023438 6.273438 6.027344 6.273438 C 6.035156 6.28125 6.046875 6.292969 6.054688 6.300781 C 6.0625 6.308594 6.070312 6.316406 6.078125 6.324219 C 6.082031 6.324219 6.082031 6.324219 6.085938 6.328125 C 6.09375 6.332031 6.097656 6.335938 6.105469 6.339844 C 6.109375 6.34375 6.113281 6.347656 6.113281 6.347656 C 6.125 6.351562 6.132812 6.359375 6.140625 6.363281 C 6.152344 6.367188 6.160156 6.371094 6.171875 6.375 C 6.171875 6.378906 6.175781 6.378906 6.175781 6.378906 C 6.1875 6.382812 6.195312 6.386719 6.199219 6.386719 C 6.203125 6.386719 6.207031 6.390625 6.210938 6.390625 C 6.21875 6.394531 6.230469 6.394531 6.238281 6.398438 C 6.238281 6.398438 6.238281 6.398438 6.242188 6.398438 C 6.25 6.398438 6.261719 6.402344 6.269531 6.402344 C 6.273438 6.402344 6.277344 6.402344 6.28125 6.402344 C 6.285156 6.40625 6.296875 6.40625 6.304688 6.40625 C 6.304688 6.40625 6.308594 6.40625 6.308594 6.40625 C 6.3125 6.40625 6.3125 6.40625 6.3125 6.40625 C 6.324219 6.40625 6.335938 6.40625 6.34375 6.402344 C 6.355469 6.402344 6.367188 6.398438 6.375 6.398438 C 6.378906 6.398438 6.382812 6.398438 6.386719 6.394531 C 6.394531 6.394531 6.402344 6.394531 6.410156 6.390625 C 6.410156 6.390625 6.414062 6.386719 6.417969 6.386719 C 6.429688 6.382812 6.441406 6.382812 6.449219 6.375 C 6.585938 6.320312 6.675781 6.1875 6.675781 6.042969 L 6.675781 5.410156 C 7.351562 5.625 8.1875 5.734375 9 5.734375 C 9.8125 5.734375 10.648438 5.625 11.328125 5.410156 L 11.328125 6.042969 C 11.328125 6.1875 11.414062 6.320312 11.550781 6.375 C 11.5625 6.382812 11.570312 6.382812 11.582031 6.386719 C 11.585938 6.386719 11.589844 6.390625 11.589844 6.390625 C 11.597656 6.394531 11.609375 6.394531 11.613281 6.398438 C 11.617188 6.398438 11.621094 6.398438 11.625 6.398438 C 11.644531 6.402344 11.667969 6.40625 11.6875 6.40625 C 11.6875 6.40625 11.691406 6.40625 11.691406 6.40625 C 11.691406 6.40625 11.695312 6.40625 11.695312 6.40625 C 11.703125 6.40625 11.714844 6.40625 11.71875 6.402344 C 11.722656 6.402344 11.726562 6.402344 11.730469 6.402344 C 11.75 6.398438 11.769531 6.394531 11.789062 6.390625 C 11.792969 6.390625 11.796875 6.386719 11.800781 6.386719 C 11.804688 6.386719 11.8125 6.382812 11.824219 6.378906 C 11.824219 6.378906 11.828125 6.378906 11.832031 6.375 C 11.839844 6.371094 11.847656 6.367188 11.859375 6.363281 C 11.867188 6.359375 11.878906 6.351562 11.886719 6.347656 C 11.890625 6.347656 11.890625 6.34375 11.894531 6.339844 C 11.902344 6.335938 11.90625 6.332031 11.914062 6.328125 C 11.917969 6.324219 11.917969 6.324219 11.921875 6.324219 C 11.929688 6.316406 11.9375 6.308594 11.945312 6.300781 C 11.953125 6.292969 11.964844 6.28125 11.972656 6.273438 C 11.976562 6.273438 11.976562 6.269531 11.980469 6.269531 C 11.988281 6.261719 11.996094 6.253906 12.007812 6.246094 C 12.019531 6.238281 12.03125 6.230469 12.039062 6.226562 C 12.042969 6.222656 12.042969 6.222656 12.046875 6.21875 C 12.054688 6.214844 12.0625 6.210938 12.074219 6.203125 C 12.074219 6.203125 12.078125 6.203125 12.078125 6.203125 C 12.089844 6.195312 12.097656 6.191406 12.109375 6.1875 C 12.113281 6.183594 12.113281 6.183594 12.117188 6.179688 C 12.125 6.175781 12.132812 6.171875 12.144531 6.167969 C 12.148438 6.167969 12.148438 6.167969 12.148438 6.167969 C 12.160156 6.164062 12.171875 6.160156 12.179688 6.152344 C 12.183594 6.152344 12.183594 6.152344 12.1875 6.152344 C 12.199219 6.148438 12.207031 6.144531 12.21875 6.140625 C 12.230469 6.136719 12.242188 6.132812 12.253906 6.128906 C 12.335938 6.105469 12.410156 6.097656 12.457031 6.09375 C 12.527344 6.148438 12.566406 6.230469 12.566406 6.316406 L 12.566406 6.929688 C 12.566406 7.09375 12.433594 7.222656 12.273438 7.222656 L 12.0625 7.222656 C 11.921875 7.222656 11.804688 7.335938 11.800781 7.480469 C 11.785156 8.230469 11.464844 8.929688 10.925781 9.394531 C 10.367188 9.875 9.71875 10.125 9 10.132812 C 8.28125 10.125 7.636719 9.875 7.074219 9.394531 Z M 7.691406 12.972656 C 7.648438 12.992188 7.597656 12.976562 7.574219 12.941406 L 6.511719 11.453125 L 6.785156 11.402344 C 6.800781 11.398438 6.816406 11.402344 6.828125 11.410156 L 6.898438 11.460938 L 8.472656 12.640625 Z M 8.355469 17.472656 L 8.835938 14.015625 L 9.164062 14.015625 L 9.644531 17.472656 Z M 15.074219 17.472656 L 14.019531 17.472656 L 14.019531 15.335938 C 14.019531 15.1875 13.902344 15.070312 13.757812 15.070312 C 13.613281 15.070312 13.492188 15.1875 13.492188 15.335938 L 13.492188 17.472656 L 10.179688 17.472656 L 9.671875 13.832031 L 10.023438 13.425781 L 10.101562 13.460938 C 10.183594 13.492188 10.265625 13.507812 10.347656 13.507812 C 10.546875 13.507812 10.734375 13.414062 10.855469 13.246094 L 12.0625 11.558594 L 13.582031 11.839844 C 13.664062 11.863281 13.742188 11.890625 13.816406 11.921875 C 13.535156 12.234375 13.515625 12.710938 13.789062 13.050781 L 14.074219 13.40625 C 14.21875 13.585938 14.425781 13.699219 14.660156 13.722656 C 14.6875 13.726562 14.722656 13.730469 14.753906 13.730469 C 14.949219 13.730469 15.136719 13.664062 15.292969 13.539062 C 15.363281 13.777344 15.402344 14.03125 15.402344 14.285156 L 15.402344 17.144531 C 15.402344 17.324219 15.257812 17.472656 15.074219 17.472656 Z M 15.074219 17.472656 "/>
<path style=" stroke:none;fill-rule:nonzero;fill:rgb(38.431373%,38.431373%,38.431373%);fill-opacity:1;" d="M 12.601562 15.070312 L 11.210938 15.070312 C 10.972656 15.070312 10.78125 15.265625 10.78125 15.5 L 10.78125 16.242188 C 10.78125 16.476562 10.972656 16.671875 11.210938 16.671875 L 12.601562 16.671875 C 12.839844 16.671875 13.03125 16.476562 13.03125 16.242188 L 13.03125 15.5 C 13.03125 15.265625 12.839844 15.070312 12.601562 15.070312 Z M 11.308594 16.144531 L 11.308594 15.597656 L 12.503906 15.597656 L 12.503906 16.144531 Z M 11.308594 16.144531 "/>
<path style=" stroke:none;fill-rule:nonzero;fill:rgb(38.431373%,38.431373%,38.431373%);fill-opacity:1;" d="M 6.789062 15.070312 L 5.398438 15.070312 C 5.164062 15.070312 4.96875 15.265625 4.96875 15.5 L 4.96875 16.242188 C 4.96875 16.476562 5.164062 16.671875 5.398438 16.671875 L 6.789062 16.671875 C 7.027344 16.671875 7.21875 16.476562 7.21875 16.242188 L 7.21875 15.5 C 7.21875 15.265625 7.027344 15.070312 6.789062 15.070312 Z M 6.691406 16.144531 L 5.496094 16.144531 L 5.496094 15.597656 L 6.691406 15.597656 Z M 6.691406 16.144531 "/>
</g>
</svg>
