<?xml version="1.0" encoding="UTF-8"?>
<svg xmlns="http://www.w3.org/2000/svg" xmlns:xlink="http://www.w3.org/1999/xlink" width="18pt" height="18pt" viewBox="0 0 18 18" version="1.1">
<g id="surface1">
<path style=" stroke:none;fill-rule:nonzero;fill:rgb(38.431373%,38.431373%,38.431373%);fill-opacity:1;" d="M 12.164062 15.785156 C 11.96875 15.785156 11.8125 15.941406 11.8125 16.136719 C 11.8125 16.328125 11.96875 16.488281 12.164062 16.488281 C 12.359375 16.488281 12.515625 16.328125 12.515625 16.136719 C 12.515625 15.941406 12.359375 15.785156 12.164062 15.785156 Z M 12.164062 15.785156 "/>
<path style=" stroke:none;fill-rule:nonzero;fill:rgb(38.431373%,38.431373%,38.431373%);fill-opacity:1;" d="M 15.484375 12.648438 C 15.125 12.121094 14.625 11.71875 14.03125 11.484375 L 11.453125 10.464844 C 12.125 9.808594 12.515625 8.90625 12.515625 7.945312 C 12.515625 7.566406 12.457031 7.195312 12.339844 6.84375 C 12.445312 6.78125 12.515625 6.667969 12.515625 6.539062 L 12.515625 5.460938 L 13.128906 4.234375 L 13.726562 3.9375 C 13.847656 3.875 13.921875 3.753906 13.921875 3.621094 L 13.921875 2.566406 C 13.921875 2.414062 13.824219 2.28125 13.679688 2.234375 L 12.679688 1.898438 L 10.265625 0.0703125 C 10.207031 0.0234375 10.132812 0 10.054688 0 L 7.945312 0 C 7.867188 0 7.792969 0.0234375 7.734375 0.0703125 L 5.320312 1.898438 L 4.320312 2.234375 C 4.175781 2.28125 4.078125 2.414062 4.078125 2.566406 L 4.078125 3.621094 C 4.078125 3.753906 4.152344 3.875 4.273438 3.9375 L 4.871094 4.234375 L 5.484375 5.460938 L 5.484375 6.539062 C 5.484375 6.667969 5.554688 6.78125 5.660156 6.84375 C 5.542969 7.195312 5.484375 7.566406 5.484375 7.945312 C 5.484375 8.90625 5.875 9.808594 6.546875 10.464844 L 3.96875 11.484375 C 3.375 11.71875 2.875 12.121094 2.515625 12.648438 C 2.15625 13.175781 1.96875 13.789062 1.96875 14.425781 L 1.96875 17.648438 C 1.96875 17.84375 2.125 18 2.320312 18 L 15.679688 18 C 15.875 18 16.03125 17.84375 16.03125 17.648438 L 16.03125 14.425781 C 16.03125 13.789062 15.84375 13.175781 15.484375 12.648438 Z M 12.554688 11.660156 L 10.40625 15.222656 L 10.40625 14.15625 C 10.40625 13.929688 10.332031 13.703125 10.195312 13.523438 L 9.574219 12.695312 C 9.863281 12.507812 10.054688 12.179688 10.054688 11.8125 L 10.054688 11.300781 C 10.316406 11.21875 10.566406 11.105469 10.804688 10.964844 Z M 5.449219 3.816406 C 5.414062 3.746094 5.359375 3.691406 5.289062 3.65625 L 4.78125 3.402344 L 4.78125 2.820312 L 5.59375 2.546875 C 5.632812 2.535156 5.664062 2.519531 5.695312 2.496094 L 8.0625 0.703125 L 9.9375 0.703125 L 12.304688 2.496094 C 12.335938 2.519531 12.367188 2.535156 12.40625 2.546875 L 13.21875 2.820312 L 13.21875 3.402344 L 12.710938 3.65625 C 12.640625 3.691406 12.585938 3.746094 12.550781 3.816406 L 11.949219 5.027344 L 6.054688 5.027344 Z M 6.1875 5.730469 L 11.8125 5.730469 L 11.8125 6.285156 L 10.894531 6.585938 C 10.277344 6.789062 9.640625 6.890625 8.996094 6.890625 C 8.671875 6.890625 8.347656 6.863281 8.027344 6.8125 C 7.710938 6.761719 7.394531 6.683594 7.085938 6.582031 L 6.410156 6.359375 C 6.378906 6.324219 6.339844 6.292969 6.296875 6.269531 C 6.261719 6.253906 6.222656 6.242188 6.1875 6.238281 Z M 6.1875 7.945312 C 6.1875 7.644531 6.234375 7.351562 6.328125 7.074219 L 6.867188 7.25 C 7.210938 7.363281 7.5625 7.449219 7.917969 7.507812 C 8.273438 7.566406 8.636719 7.59375 8.996094 7.59375 C 9.714844 7.59375 10.429688 7.480469 11.113281 7.253906 L 11.671875 7.070312 C 11.765625 7.351562 11.8125 7.644531 11.8125 7.945312 C 11.8125 8.878906 11.351562 9.746094 10.578125 10.273438 C 10.574219 10.277344 10.570312 10.28125 10.5625 10.285156 C 10.277344 10.476562 9.960938 10.613281 9.625 10.6875 C 9.21875 10.78125 8.78125 10.78125 8.375 10.6875 C 8.035156 10.613281 7.71875 10.472656 7.429688 10.277344 C 6.652344 9.753906 6.1875 8.882812 6.1875 7.945312 Z M 9.351562 11.445312 L 9.351562 11.8125 C 9.351562 12.007812 9.195312 12.164062 9 12.164062 C 8.90625 12.164062 8.820312 12.128906 8.75 12.0625 C 8.683594 11.992188 8.648438 11.90625 8.648438 11.8125 L 8.648438 11.445312 C 8.765625 11.457031 8.882812 11.460938 9 11.460938 C 9.117188 11.460938 9.234375 11.457031 9.351562 11.445312 Z M 7.195312 10.964844 C 7.433594 11.105469 7.683594 11.21875 7.945312 11.300781 L 7.945312 11.8125 C 7.945312 12.09375 8.054688 12.359375 8.253906 12.558594 C 8.308594 12.609375 8.363281 12.65625 8.425781 12.695312 L 7.804688 13.523438 C 7.667969 13.703125 7.59375 13.929688 7.59375 14.15625 L 7.59375 15.222656 L 5.445312 11.65625 Z M 2.671875 17.296875 L 2.671875 14.425781 C 2.671875 13.410156 3.28125 12.511719 4.226562 12.140625 L 4.78125 11.917969 L 7.617188 16.617188 L 8.027344 17.296875 Z M 9.703125 16.386719 L 9.152344 17.296875 L 8.847656 17.296875 L 8.296875 16.386719 L 8.296875 14.15625 C 8.296875 14.078125 8.320312 14.003906 8.367188 13.945312 L 9 13.101562 L 9.632812 13.945312 C 9.679688 14.003906 9.703125 14.078125 9.703125 14.15625 Z M 9.972656 17.296875 L 13.21875 11.921875 L 13.773438 12.140625 C 14.71875 12.511719 15.328125 13.410156 15.328125 14.425781 L 15.328125 17.296875 Z M 9.972656 17.296875 "/>
<path style=" stroke:none;fill-rule:nonzero;fill:rgb(38.431373%,38.431373%,38.431373%);fill-opacity:1;" d="M 9 1.511719 C 8.226562 1.511719 7.59375 2.144531 7.59375 2.917969 C 7.59375 3.691406 8.226562 4.324219 9 4.324219 C 9.773438 4.324219 10.40625 3.691406 10.40625 2.917969 C 10.40625 2.144531 9.773438 1.511719 9 1.511719 Z M 9 3.621094 C 8.613281 3.621094 8.296875 3.304688 8.296875 2.917969 C 8.296875 2.53125 8.613281 2.214844 9 2.214844 C 9.386719 2.214844 9.703125 2.53125 9.703125 2.917969 C 9.703125 3.304688 9.386719 3.621094 9 3.621094 Z M 9 3.621094 "/>
<path style=" stroke:none;fill-rule:nonzero;fill:rgb(38.431373%,38.431373%,38.431373%);fill-opacity:1;" d="M 14.273438 15.785156 L 13.570312 15.785156 C 13.375 15.785156 13.21875 15.941406 13.21875 16.136719 C 13.21875 16.332031 13.375 16.488281 13.570312 16.488281 L 14.273438 16.488281 C 14.46875 16.488281 14.625 16.332031 14.625 16.136719 C 14.625 15.941406 14.46875 15.785156 14.273438 15.785156 Z M 14.273438 15.785156 "/>
</g>
</svg>
