<?xml version="1.0" encoding="UTF-8"?>
<svg xmlns="http://www.w3.org/2000/svg" xmlns:xlink="http://www.w3.org/1999/xlink" width="18pt" height="18pt" viewBox="0 0 18 18" version="1.1">
<g id="surface1">
<path style=" stroke:none;fill-rule:nonzero;fill:rgb(38.431373%,38.431373%,38.431373%);fill-opacity:1;" d="M 17.585938 7.808594 L 16.613281 7.71875 C 16.496094 7.324219 16.34375 6.949219 16.136719 6.59375 L 16.753906 5.847656 C 16.902344 5.664062 16.890625 5.40625 16.726562 5.234375 L 15.507812 4.007812 C 15.34375 3.835938 15.078125 3.824219 14.894531 3.972656 L 14.148438 4.589844 C 13.796875 4.390625 13.417969 4.230469 13.03125 4.117188 L 12.9375 3.148438 C 12.914062 2.914062 12.71875 2.734375 12.480469 2.734375 L 10.964844 2.734375 L 10.964844 1.367188 C 10.964844 1.113281 10.757812 0.910156 10.507812 0.910156 C 10.257812 0.910156 10.050781 1.113281 10.050781 1.367188 L 10.050781 3.648438 L 8.324219 3.648438 C 7.589844 3.648438 6.890625 3.996094 6.441406 4.582031 L 4.558594 7.0625 L 1.394531 7.925781 C 0.570312 8.152344 0.00390625 8.894531 0 9.75 L 0 10.960938 C 0.00390625 12 0.855469 12.84375 1.894531 12.84375 L 2.144531 12.84375 C 2.484375 14.117188 3.796875 14.867188 5.070312 14.523438 C 5.886719 14.300781 6.535156 13.660156 6.753906 12.84375 L 10.050781 12.84375 L 10.050781 16.632812 C 10.050781 16.886719 10.257812 17.089844 10.507812 17.089844 C 10.757812 17.089844 10.964844 16.886719 10.964844 16.632812 L 10.964844 15.539062 L 12.480469 15.539062 C 12.71875 15.539062 12.914062 15.359375 12.9375 15.121094 L 13.03125 14.148438 C 13.421875 14.035156 13.796875 13.878906 14.152344 13.679688 L 14.898438 14.296875 C 15.082031 14.445312 15.34375 14.429688 15.507812 14.265625 L 16.738281 13.039062 C 16.902344 12.875 16.917969 12.605469 16.765625 12.421875 L 16.148438 11.679688 C 16.351562 11.320312 16.511719 10.945312 16.625 10.558594 L 17.585938 10.464844 C 17.816406 10.445312 18 10.246094 18 10.007812 L 18 8.261719 C 18 8.027344 17.816406 7.832031 17.585938 7.808594 Z M 4.445312 13.695312 C 3.632812 13.695312 2.96875 13.035156 2.96875 12.222656 C 2.96875 11.410156 3.632812 10.746094 4.445312 10.746094 C 5.257812 10.746094 5.921875 11.410156 5.921875 12.222656 C 5.921875 13.035156 5.261719 13.695312 4.445312 13.695312 Z M 10.050781 11.925781 L 6.816406 11.925781 C 6.65625 10.613281 5.464844 9.6875 4.15625 9.839844 C 3.070312 9.972656 2.210938 10.832031 2.074219 11.925781 L 1.890625 11.925781 C 1.351562 11.929688 0.914062 11.496094 0.910156 10.957031 L 0.910156 9.75 C 0.914062 9.3125 1.207031 8.925781 1.628906 8.808594 L 4.949219 7.902344 C 5.042969 7.875 5.128906 7.820312 5.191406 7.738281 L 7.171875 5.140625 C 7.449219 4.777344 7.875 4.570312 8.328125 4.570312 L 10.050781 4.570312 Z M 10.964844 7.195312 C 12.035156 6.839844 13.1875 7.417969 13.546875 8.492188 C 13.902344 9.566406 13.320312 10.71875 12.246094 11.074219 C 11.832031 11.210938 11.378906 11.210938 10.964844 11.074219 Z M 17.085938 9.589844 L 16.21875 9.671875 C 16.023438 9.691406 15.855469 9.835938 15.816406 10.027344 C 15.703125 10.539062 15.496094 11.023438 15.207031 11.460938 C 15.101562 11.632812 15.113281 11.847656 15.242188 12 L 15.796875 12.679688 L 15.15625 13.316406 L 14.484375 12.765625 C 14.328125 12.636719 14.109375 12.621094 13.9375 12.738281 C 13.503906 13.027344 13.019531 13.230469 12.507812 13.339844 C 12.3125 13.382812 12.171875 13.546875 12.152344 13.742188 L 12.070312 14.617188 L 10.964844 14.617188 L 10.964844 12.019531 C 12.558594 12.375 14.140625 11.371094 14.492188 9.777344 C 14.847656 8.183594 13.84375 6.601562 12.246094 6.246094 C 11.824219 6.148438 11.386719 6.148438 10.964844 6.246094 L 10.964844 3.65625 L 12.066406 3.65625 L 12.152344 4.527344 C 12.171875 4.722656 12.316406 4.886719 12.507812 4.929688 C 13.019531 5.042969 13.503906 5.25 13.945312 5.53125 C 14.113281 5.640625 14.328125 5.628906 14.484375 5.5 L 15.152344 4.945312 L 15.785156 5.578125 L 15.222656 6.257812 C 15.09375 6.414062 15.082031 6.632812 15.195312 6.804688 C 15.484375 7.238281 15.6875 7.722656 15.796875 8.234375 C 15.84375 8.429688 16.003906 8.570312 16.203125 8.589844 L 17.085938 8.675781 Z M 17.085938 9.589844 "/>
</g>
</svg>
