<?xml version="1.0" encoding="UTF-8"?>
<svg xmlns="http://www.w3.org/2000/svg" xmlns:xlink="http://www.w3.org/1999/xlink" width="18pt" height="18pt" viewBox="0 0 18 18" version="1.1">
<g id="surface1">
<path style=" stroke:none;fill-rule:nonzero;fill:rgb(38.431373%,38.431373%,38.431373%);fill-opacity:1;" d="M 17.195312 12.628906 C 16.886719 12.089844 16.203125 11.90625 15.664062 12.214844 L 12.921875 13.800781 C 12.769531 13.574219 12.546875 13.410156 12.285156 13.339844 L 8.089844 12.214844 C 7.765625 12.128906 7.425781 12.125 7.101562 12.207031 L 5.625 12.578125 L 5.625 12.09375 C 5.625 11.9375 5.5 11.8125 5.34375 11.8125 L 3.09375 11.8125 C 2.9375 11.8125 2.8125 11.9375 2.8125 12.09375 L 2.8125 12.375 L 0.84375 12.375 C 0.6875 12.375 0.5625 12.5 0.5625 12.65625 L 0.5625 16.59375 C 0.5625 16.75 0.6875 16.875 0.84375 16.875 L 2.8125 16.875 L 2.8125 17.15625 C 2.8125 17.3125 2.9375 17.4375 3.09375 17.4375 L 5.34375 17.4375 C 5.5 17.4375 5.625 17.3125 5.625 17.15625 L 5.625 16.769531 L 5.988281 16.949219 C 6.261719 17.085938 6.5625 17.15625 6.867188 17.15625 L 11.078125 17.15625 C 11.425781 17.15625 11.765625 17.066406 12.0625 16.890625 L 16.789062 14.164062 C 17.324219 13.851562 17.507812 13.167969 17.195312 12.628906 Z M 1.125 16.3125 L 1.125 12.9375 L 2.8125 12.9375 L 2.8125 16.3125 Z M 5.0625 16.875 L 3.375 16.875 L 3.375 12.375 L 5.0625 12.375 Z M 16.507812 13.679688 L 11.78125 16.40625 C 11.566406 16.53125 11.324219 16.59375 11.078125 16.59375 L 6.867188 16.59375 C 6.648438 16.59375 6.433594 16.542969 6.238281 16.445312 L 5.625 16.136719 L 5.625 13.15625 L 7.238281 12.753906 C 7.46875 12.695312 7.710938 12.699219 7.941406 12.761719 L 12.140625 13.886719 C 12.335938 13.933594 12.492188 14.085938 12.546875 14.28125 C 12.601562 14.480469 12.546875 14.6875 12.398438 14.832031 C 12.253906 14.976562 12.042969 15.027344 11.847656 14.972656 L 8.492188 14.074219 C 8.34375 14.03125 8.191406 14.121094 8.152344 14.273438 C 8.109375 14.421875 8.199219 14.574219 8.347656 14.613281 L 11.703125 15.515625 C 11.796875 15.539062 11.894531 15.554688 11.996094 15.554688 C 12.308594 15.554688 12.609375 15.425781 12.820312 15.195312 C 13.035156 14.964844 13.140625 14.652344 13.109375 14.339844 L 15.945312 12.703125 C 16.214844 12.554688 16.550781 12.648438 16.710938 12.910156 C 16.863281 13.179688 16.773438 13.523438 16.507812 13.679688 Z M 16.507812 13.679688 "/>
<path style=" stroke:none;fill-rule:nonzero;fill:rgb(38.431373%,38.431373%,38.431373%);fill-opacity:1;" d="M 8.15625 8.71875 L 9.210938 8.71875 C 9.230469 8.761719 9.242188 8.796875 9.261719 8.835938 L 8.515625 9.582031 C 8.402344 9.691406 8.402344 9.871094 8.515625 9.980469 L 9.707031 11.175781 C 9.816406 11.285156 9.996094 11.285156 10.105469 11.175781 L 10.851562 10.425781 C 10.890625 10.441406 10.929688 10.460938 10.96875 10.476562 L 10.96875 11.53125 C 10.96875 11.6875 11.09375 11.8125 11.25 11.8125 L 12.9375 11.8125 C 13.09375 11.8125 13.21875 11.6875 13.21875 11.53125 L 13.21875 10.476562 C 13.257812 10.460938 13.296875 10.441406 13.335938 10.425781 L 14.082031 11.175781 C 14.195312 11.28125 14.367188 11.28125 14.480469 11.175781 L 15.675781 9.980469 C 15.785156 9.871094 15.785156 9.691406 15.675781 9.582031 L 14.925781 8.835938 C 14.945312 8.796875 14.960938 8.761719 14.976562 8.71875 L 16.03125 8.71875 C 16.1875 8.71875 16.3125 8.59375 16.3125 8.4375 L 16.3125 6.75 C 16.3125 6.59375 16.1875 6.46875 16.03125 6.46875 L 14.976562 6.46875 C 14.960938 6.429688 14.945312 6.390625 14.925781 6.351562 L 15.675781 5.605469 C 15.785156 5.496094 15.785156 5.316406 15.675781 5.207031 L 14.480469 4.011719 C 14.371094 3.902344 14.191406 3.902344 14.082031 4.011719 L 13.335938 4.761719 C 13.296875 4.746094 13.257812 4.726562 13.21875 4.710938 L 13.21875 3.65625 C 13.21875 3.5 13.09375 3.375 12.9375 3.375 L 11.25 3.375 C 11.09375 3.375 10.96875 3.5 10.96875 3.65625 L 10.96875 4.710938 C 10.929688 4.726562 10.890625 4.746094 10.851562 4.761719 L 10.105469 4.011719 C 9.992188 3.90625 9.820312 3.90625 9.707031 4.011719 L 8.515625 5.207031 C 8.402344 5.316406 8.402344 5.496094 8.515625 5.605469 L 9.261719 6.351562 C 9.242188 6.390625 9.230469 6.429688 9.210938 6.46875 L 8.15625 6.46875 C 8 6.46875 7.875 6.59375 7.875 6.75 L 7.875 8.4375 C 7.875 8.59375 8 8.71875 8.15625 8.71875 Z M 8.4375 7.03125 L 9.410156 7.03125 C 9.535156 7.03125 9.640625 6.953125 9.679688 6.835938 C 9.722656 6.695312 9.78125 6.558594 9.847656 6.429688 C 9.910156 6.320312 9.890625 6.183594 9.800781 6.09375 L 9.113281 5.40625 L 9.90625 4.609375 L 10.597656 5.300781 C 10.6875 5.390625 10.820312 5.40625 10.929688 5.347656 C 11.0625 5.277344 11.199219 5.222656 11.339844 5.179688 C 11.453125 5.140625 11.53125 5.03125 11.53125 4.910156 L 11.53125 3.9375 L 12.65625 3.9375 L 12.65625 4.910156 C 12.65625 5.03125 12.734375 5.140625 12.851562 5.179688 C 12.992188 5.222656 13.128906 5.277344 13.257812 5.347656 C 13.367188 5.40625 13.503906 5.390625 13.59375 5.300781 L 14.28125 4.609375 L 15.078125 5.40625 L 14.386719 6.09375 C 14.296875 6.183594 14.28125 6.320312 14.339844 6.429688 C 14.40625 6.558594 14.464844 6.695312 14.507812 6.835938 C 14.546875 6.953125 14.65625 7.03125 14.777344 7.03125 L 15.75 7.03125 L 15.75 8.15625 L 14.777344 8.15625 C 14.65625 8.15625 14.546875 8.234375 14.507812 8.351562 C 14.464844 8.492188 14.40625 8.628906 14.339844 8.757812 C 14.28125 8.867188 14.296875 9.003906 14.386719 9.09375 L 15.078125 9.78125 L 14.28125 10.578125 L 13.59375 9.886719 C 13.503906 9.796875 13.367188 9.78125 13.257812 9.839844 C 13.128906 9.910156 12.992188 9.964844 12.851562 10.007812 C 12.734375 10.046875 12.65625 10.15625 12.65625 10.277344 L 12.65625 11.25 L 11.53125 11.25 L 11.53125 10.277344 C 11.53125 10.15625 11.453125 10.046875 11.335938 10.007812 C 11.195312 9.964844 11.058594 9.910156 10.929688 9.839844 C 10.820312 9.78125 10.683594 9.796875 10.59375 9.886719 L 9.90625 10.578125 L 9.113281 9.78125 L 9.804688 9.09375 C 9.890625 9.003906 9.910156 8.867188 9.847656 8.757812 C 9.78125 8.628906 9.722656 8.492188 9.679688 8.351562 C 9.640625 8.234375 9.535156 8.15625 9.410156 8.15625 L 8.4375 8.15625 Z M 8.4375 7.03125 "/>
<path style=" stroke:none;fill-rule:nonzero;fill:rgb(38.431373%,38.431373%,38.431373%);fill-opacity:1;" d="M 12.09375 9.28125 C 11.160156 9.28125 10.40625 8.527344 10.40625 7.59375 C 10.40625 6.660156 11.160156 5.90625 12.09375 5.90625 C 13.027344 5.90625 13.78125 6.660156 13.78125 7.59375 C 13.78125 8.527344 13.027344 9.28125 12.09375 9.28125 Z M 12.09375 6.46875 C 11.472656 6.46875 10.96875 6.972656 10.96875 7.59375 C 10.96875 8.214844 11.472656 8.71875 12.09375 8.71875 C 12.714844 8.71875 13.21875 8.214844 13.21875 7.59375 C 13.21875 6.972656 12.714844 6.46875 12.09375 6.46875 Z M 12.09375 6.46875 "/>
<path style=" stroke:none;fill-rule:nonzero;fill:rgb(38.431373%,38.431373%,38.431373%);fill-opacity:1;" d="M 5.0625 7.59375 L 3.9375 7.59375 C 3.78125 7.59375 3.65625 7.46875 3.65625 7.3125 L 3.65625 6.820312 L 3.304688 7.167969 C 3.195312 7.277344 3.019531 7.277344 2.910156 7.167969 L 2.113281 6.371094 C 2.003906 6.261719 2.003906 6.085938 2.113281 5.976562 L 2.460938 5.625 L 1.96875 5.625 C 1.8125 5.625 1.6875 5.5 1.6875 5.34375 L 1.6875 4.21875 C 1.6875 4.0625 1.8125 3.9375 1.96875 3.9375 L 2.460938 3.9375 L 2.113281 3.585938 C 2.003906 3.476562 2.003906 3.300781 2.113281 3.191406 L 2.910156 2.394531 C 3.019531 2.285156 3.195312 2.285156 3.304688 2.394531 L 3.65625 2.742188 L 3.65625 2.25 C 3.65625 2.09375 3.78125 1.96875 3.9375 1.96875 L 5.0625 1.96875 C 5.21875 1.96875 5.34375 2.09375 5.34375 2.25 L 5.34375 2.742188 L 5.695312 2.394531 C 5.804688 2.285156 5.980469 2.285156 6.089844 2.394531 L 6.886719 3.191406 C 6.996094 3.300781 6.996094 3.476562 6.886719 3.585938 L 6.539062 3.9375 L 7.03125 3.9375 C 7.1875 3.9375 7.3125 4.0625 7.3125 4.21875 L 7.3125 5.34375 C 7.3125 5.5 7.1875 5.625 7.03125 5.625 L 6.539062 5.625 L 6.886719 5.976562 C 6.996094 6.085938 6.996094 6.261719 6.886719 6.371094 L 6.089844 7.167969 C 5.980469 7.277344 5.804688 7.277344 5.695312 7.167969 L 5.34375 6.820312 L 5.34375 7.3125 C 5.34375 7.46875 5.21875 7.59375 5.0625 7.59375 Z M 4.21875 7.03125 L 4.78125 7.03125 L 4.78125 6.371094 C 4.78125 6.246094 4.863281 6.136719 4.980469 6.101562 C 5.019531 6.089844 5.058594 6.074219 5.09375 6.054688 C 5.203125 5.996094 5.335938 6.019531 5.425781 6.105469 L 5.890625 6.570312 L 6.289062 6.171875 L 5.820312 5.707031 C 5.734375 5.617188 5.714844 5.484375 5.773438 5.375 C 5.789062 5.339844 5.804688 5.300781 5.820312 5.261719 C 5.855469 5.144531 5.964844 5.0625 6.089844 5.0625 L 6.75 5.0625 L 6.75 4.5 L 6.089844 4.5 C 5.964844 4.5 5.855469 4.417969 5.820312 4.300781 C 5.808594 4.261719 5.792969 4.222656 5.773438 4.1875 C 5.714844 4.078125 5.734375 3.945312 5.824219 3.855469 L 6.289062 3.390625 L 5.890625 2.992188 L 5.425781 3.460938 C 5.335938 3.546875 5.203125 3.566406 5.09375 3.507812 C 5.058594 3.492188 5.023438 3.476562 4.980469 3.460938 C 4.863281 3.425781 4.78125 3.316406 4.78125 3.191406 L 4.78125 2.53125 L 4.21875 2.53125 L 4.21875 3.191406 C 4.21875 3.316406 4.136719 3.425781 4.019531 3.460938 C 3.980469 3.472656 3.941406 3.488281 3.90625 3.507812 C 3.796875 3.566406 3.664062 3.546875 3.574219 3.457031 L 3.109375 2.992188 L 2.710938 3.390625 L 3.179688 3.855469 C 3.265625 3.945312 3.285156 4.078125 3.226562 4.1875 C 3.210938 4.222656 3.195312 4.261719 3.179688 4.300781 C 3.144531 4.417969 3.035156 4.5 2.914062 4.5 L 2.25 4.5 L 2.25 5.0625 L 2.910156 5.0625 C 3.035156 5.0625 3.144531 5.144531 3.179688 5.261719 C 3.191406 5.300781 3.207031 5.339844 3.226562 5.375 C 3.285156 5.484375 3.261719 5.617188 3.175781 5.707031 L 2.710938 6.171875 L 3.109375 6.570312 L 3.574219 6.101562 C 3.664062 6.015625 3.796875 5.996094 3.90625 6.054688 C 3.941406 6.070312 3.976562 6.089844 4.019531 6.097656 C 4.136719 6.136719 4.21875 6.246094 4.21875 6.371094 Z M 4.21875 7.03125 "/>
<path style=" stroke:none;fill-rule:nonzero;fill:rgb(38.431373%,38.431373%,38.431373%);fill-opacity:1;" d="M 4.5 5.90625 C 3.878906 5.90625 3.375 5.402344 3.375 4.78125 C 3.375 4.160156 3.878906 3.65625 4.5 3.65625 C 5.121094 3.65625 5.625 4.160156 5.625 4.78125 C 5.625 5.402344 5.121094 5.90625 4.5 5.90625 Z M 4.5 4.21875 C 4.1875 4.21875 3.9375 4.46875 3.9375 4.78125 C 3.9375 5.089844 4.1875 5.34375 4.5 5.34375 C 4.808594 5.34375 5.0625 5.089844 5.0625 4.78125 C 5.0625 4.46875 4.808594 4.21875 4.5 4.21875 Z M 4.5 4.21875 "/>
</g>
</svg>
