<?xml version="1.0" encoding="UTF-8"?>
<svg xmlns="http://www.w3.org/2000/svg" xmlns:xlink="http://www.w3.org/1999/xlink" width="23pt" height="21pt" viewBox="0 0 23 21" version="1.1">
<g id="surface1">
<path style=" stroke:none;fill-rule:nonzero;fill:rgb(38.431373%,38.431373%,38.431373%);fill-opacity:1;" d="M 10.167969 0.761719 L 9.621094 1.179688 L 7.828125 1.179688 C 6.058594 1.179688 6.042969 1.179688 5.8125 1.382812 L 5.585938 1.585938 L 5.585938 3.535156 C 5.585938 4.609375 5.5625 5.484375 5.527344 5.484375 C 5.496094 5.484375 5.339844 5.394531 5.1875 5.285156 C 4.238281 4.625 2.617188 4.886719 1.738281 5.832031 C 1.550781 6.035156 1.296875 6.429688 1.164062 6.710938 C 0.976562 7.132812 0.945312 7.328125 0.945312 7.933594 C 0.945312 8.558594 0.976562 8.71875 1.183594 9.160156 C 1.3125 9.4375 1.597656 9.84375 1.808594 10.0625 L 2.203125 10.457031 L 2.203125 11.902344 L 3.667969 11.902344 L 3.667969 12.15625 C 3.667969 12.289062 3.636719 12.40625 3.585938 12.40625 C 3.546875 12.40625 3.441406 12.492188 3.34375 12.59375 C 3.097656 12.863281 3.113281 13.539062 3.367188 13.773438 L 3.554688 13.953125 L 3.367188 14.148438 C 3.089844 14.433594 3.105469 15.03125 3.382812 15.328125 L 3.59375 15.546875 L 3.382812 15.714844 C 3.21875 15.851562 3.179688 15.953125 3.179688 16.28125 C 3.179688 16.660156 3.351562 17.050781 3.515625 17.050781 C 3.585938 17.050781 3.863281 17.328125 4.363281 17.910156 C 4.453125 18.019531 4.605469 18.0625 4.933594 18.0625 C 5.316406 18.0625 5.398438 18.035156 5.511719 17.851562 L 5.644531 17.640625 L 5.804688 17.851562 C 5.9375 18.03125 6.03125 18.0625 6.402344 18.0625 C 6.769531 18.0625 6.867188 18.03125 6.996094 17.851562 C 7.183594 17.613281 7.257812 17.582031 7.257812 17.765625 C 7.257812 17.945312 7.527344 18.0625 7.949219 18.0625 C 8.269531 18.0625 8.375 18.019531 8.5625 17.808594 C 8.976562 17.351562 9.058594 17.445312 9.027344 18.316406 L 9.003906 19.074219 L 10.429688 19.074219 L 10.804688 19.488281 C 11.007812 19.714844 11.390625 20.011719 11.644531 20.140625 C 12.042969 20.34375 12.214844 20.375 12.84375 20.375 C 13.46875 20.382812 13.640625 20.351562 14.042969 20.15625 C 14.660156 19.859375 15.199219 19.328125 15.46875 18.746094 C 15.671875 18.324219 15.695312 18.179688 15.695312 17.429688 C 15.695312 16.789062 15.664062 16.515625 15.558594 16.296875 C 15.476562 16.136719 15.410156 15.996094 15.410156 15.976562 C 15.410156 15.96875 15.558594 15.953125 15.746094 15.953125 C 16.015625 15.953125 16.128906 15.902344 16.355469 15.667969 L 16.632812 15.378906 L 16.632812 11.234375 L 16.886719 11.101562 C 17.277344 10.886719 17.613281 10.265625 17.613281 9.75 C 17.613281 9.496094 17.5625 9.242188 17.480469 9.132812 C 17.417969 9.03125 17.375 8.945312 17.390625 8.945312 C 17.488281 8.945312 21.933594 7.519531 22.074219 7.445312 C 22.25 7.34375 22.585938 6.710938 22.585938 6.472656 C 22.585938 6.195312 22.359375 5.78125 21.691406 4.8125 C 21.324219 4.277344 20.972656 3.789062 20.921875 3.730469 C 20.839844 3.636719 20.652344 3.703125 19.914062 4.085938 C 19.414062 4.347656 18.992188 4.558594 18.964844 4.558594 C 18.949219 4.558594 18.476562 4.785156 17.921875 5.0625 L 16.921875 5.570312 L 16.78125 5.394531 C 16.660156 5.242188 16.632812 5.039062 16.632812 4.042969 C 16.632812 2.878906 16.632812 2.871094 16.398438 2.597656 C 16.21875 2.390625 16.097656 2.328125 15.808594 2.3125 C 15.453125 2.296875 15.453125 2.296875 15.402344 1.949219 C 15.378906 1.730469 15.28125 1.511719 15.148438 1.375 L 14.9375 1.164062 L 13.421875 1.175781 C 12.539062 1.179688 11.90625 1.15625 11.90625 1.105469 C 11.90625 1.03125 10.886719 0.339844 10.78125 0.339844 C 10.746094 0.339844 10.476562 0.53125 10.167969 0.761719 Z M 11.203125 0.988281 C 11.472656 1.164062 11.839844 1.621094 12.703125 2.871094 C 13.339844 3.773438 14.1875 4.996094 14.601562 5.589844 C 15.011719 6.1875 15.371094 6.667969 15.402344 6.667969 C 15.484375 6.667969 20.5 4.210938 20.613281 4.109375 C 20.671875 4.070312 20.726562 4.042969 20.734375 4.058594 C 21.199219 4.683594 22.171875 6.167969 22.210938 6.304688 C 22.246094 6.414062 22.210938 6.617188 22.136719 6.785156 C 21.96875 7.164062 22.097656 7.113281 17.9375 8.40625 C 17.425781 8.566406 16.953125 8.71875 16.894531 8.734375 C 16.820312 8.761719 16.871094 8.878906 17.042969 9.125 C 17.351562 9.570312 17.367188 9.96875 17.082031 10.40625 C 16.738281 10.914062 16.210938 11.117188 15.851562 10.855469 C 15.761719 10.789062 15.476562 10.441406 15.222656 10.070312 C 14.726562 9.367188 14.546875 9.117188 12.558594 6.246094 C 11.871094 5.25 11.179688 4.277344 11.03125 4.085938 C 10.886719 3.890625 10.761719 3.714844 10.761719 3.671875 C 10.761719 3.636719 10.625 3.425781 10.460938 3.207031 C 9.972656 2.566406 9.5 1.859375 9.5 1.78125 C 9.5 1.695312 10.683594 0.765625 10.789062 0.761719 C 10.820312 0.761719 11.007812 0.859375 11.203125 0.988281 Z M 9.109375 1.5625 C 8.960938 1.671875 8.984375 1.722656 9.53125 2.507812 C 9.851562 2.964844 10.78125 4.304688 11.605469 5.484375 C 12.425781 6.667969 13.542969 8.28125 14.089844 9.0625 L 15.085938 10.492188 L 15.085938 12.273438 C 15.085938 13.75 15.058594 14.085938 14.953125 14.246094 L 14.832031 14.433594 L 6.125 14.433594 L 6 14.246094 C 5.894531 14.085938 5.871094 13.726562 5.871094 12.003906 C 5.871094 10.472656 5.847656 9.96875 5.773438 10.011719 C 5.714844 10.042969 5.707031 10.035156 5.742188 9.96875 C 5.773438 9.917969 5.828125 9.890625 5.871094 9.917969 C 5.976562 9.984375 6.328125 9.46875 6.523438 8.945312 C 6.875 8.042969 6.652344 6.726562 6.042969 6 C 5.878906 5.808594 5.871094 5.707031 5.871094 3.839844 C 5.871094 2.09375 5.886719 1.859375 6.019531 1.695312 C 6.148438 1.527344 6.246094 1.519531 7.542969 1.492188 C 8.308594 1.484375 9.003906 1.46875 9.089844 1.460938 C 9.246094 1.445312 9.246094 1.445312 9.109375 1.5625 Z M 14.945312 1.707031 C 15.058594 1.847656 15.085938 2.058594 15.085938 3.132812 L 15.085938 4.386719 L 14.75 4.566406 C 14.546875 4.667969 14.390625 4.710938 14.359375 4.660156 C 14.300781 4.566406 13.835938 3.898438 12.914062 2.574219 C 12.546875 2.050781 12.238281 1.59375 12.207031 1.554688 C 12.183594 1.511719 12.71875 1.484375 13.476562 1.503906 C 14.695312 1.527344 14.808594 1.542969 14.945312 1.707031 Z M 16.105469 2.828125 C 16.289062 3.011719 16.308594 3.089844 16.308594 3.855469 L 16.300781 4.683594 L 16.136719 4.484375 C 16.046875 4.371094 15.949219 4.21875 15.90625 4.152344 C 15.859375 4.058594 15.800781 4.050781 15.671875 4.128906 C 15.582031 4.179688 15.476562 4.21875 15.433594 4.21875 C 15.402344 4.21875 15.378906 3.855469 15.394531 3.417969 L 15.417969 2.617188 L 15.664062 2.617188 C 15.808594 2.617188 15.980469 2.695312 16.105469 2.828125 Z M 16.015625 4.886719 C 16.21875 5.167969 16.308594 5.386719 16.308594 5.578125 C 16.308594 5.839844 16.277344 5.882812 15.90625 6.058594 C 15.6875 6.160156 15.484375 6.246094 15.460938 6.246094 C 15.378906 6.246094 15.402344 5.925781 15.492188 5.867188 C 15.589844 5.796875 15.898438 5.191406 15.898438 5.0625 C 15.898438 4.878906 15.53125 5.015625 15.507812 5.207031 C 15.492188 5.320312 15.445312 5.402344 15.394531 5.402344 C 15.347656 5.402344 15.328125 5.300781 15.363281 5.140625 C 15.386719 4.996094 15.410156 4.800781 15.410156 4.71875 C 15.410156 4.640625 15.476562 4.550781 15.558594 4.53125 C 15.632812 4.507812 15.703125 4.488281 15.710938 4.484375 C 15.722656 4.484375 15.851562 4.660156 16.015625 4.886719 Z M 15.085938 5.234375 C 15.085938 5.460938 15.070312 5.65625 15.050781 5.65625 C 15.035156 5.65625 14.929688 5.503906 14.808594 5.320312 L 14.589844 4.980469 L 14.773438 4.894531 C 15.078125 4.777344 15.085938 4.785156 15.085938 5.234375 Z M 3.667969 5.511719 C 3.667969 5.78125 3.644531 5.796875 3.210938 5.941406 C 1.785156 6.40625 1.335938 8.332031 2.421875 9.386719 C 3.269531 10.222656 4.769531 10.09375 5.40625 9.140625 C 5.691406 8.703125 5.789062 8.414062 5.789062 7.957031 C 5.789062 6.9375 5.136719 6.085938 4.199219 5.875 C 3.988281 5.824219 3.957031 5.78125 3.960938 5.546875 C 3.96875 5.300781 3.996094 5.277344 4.207031 5.300781 C 4.550781 5.34375 5.226562 5.671875 5.550781 5.976562 C 5.976562 6.363281 6.292969 7.066406 6.34375 7.75 C 6.375 8.230469 6.34375 8.40625 6.179688 8.84375 C 5.945312 9.445312 5.601562 9.898438 5.273438 10.050781 C 5.046875 10.15625 5.046875 10.160156 5.0625 10.839844 L 5.082031 11.523438 L 3.808594 11.546875 L 2.527344 11.570312 L 2.566406 10.90625 L 2.601562 10.246094 L 2.21875 9.960938 C 1.941406 9.75 1.753906 9.496094 1.550781 9.082031 C 1.304688 8.574219 1.273438 8.433594 1.28125 7.902344 C 1.296875 6.683594 2.054688 5.664062 3.179688 5.351562 C 3.6875 5.207031 3.667969 5.199219 3.667969 5.511719 Z M 4.574219 6.382812 C 4.875 6.542969 5.265625 7.023438 5.382812 7.394531 C 5.820312 8.753906 4.402344 10.0625 3.132812 9.460938 C 2.460938 9.148438 2.039062 8.304688 2.191406 7.597656 C 2.4375 6.464844 3.613281 5.867188 4.574219 6.382812 Z M 5.644531 10.425781 C 5.65625 10.59375 5.65625 10.746094 5.636719 10.761719 C 5.617188 10.789062 5.585938 11.539062 5.5625 12.441406 C 5.519531 14.519531 5.617188 14.769531 6.433594 14.769531 C 6.75 14.769531 6.769531 14.78125 6.769531 15.03125 C 6.769531 15.363281 6.980469 15.742188 7.230469 15.859375 C 7.335938 15.910156 7.785156 15.953125 8.234375 15.953125 L 9.042969 15.953125 L 9.042969 16.59375 C 9.042969 17.34375 8.929688 17.457031 8.570312 17.058594 C 8.367188 16.832031 8.277344 16.796875 7.925781 16.796875 C 7.519531 16.796875 7.257812 16.941406 7.257812 17.160156 C 7.257812 17.21875 7.167969 17.152344 7.054688 17.023438 C 6.875 16.832031 6.777344 16.796875 6.402344 16.796875 C 6.03125 16.796875 5.9375 16.832031 5.8125 17 L 5.65625 17.199219 L 5.488281 17 C 5.347656 16.839844 5.234375 16.796875 4.898438 16.796875 C 4.566406 16.796875 4.46875 16.832031 4.332031 17.015625 C 4.238281 17.132812 4.125 17.210938 4.078125 17.175781 C 4.019531 17.144531 4.0625 17.050781 4.199219 16.925781 C 4.46875 16.652344 4.492188 15.960938 4.238281 15.699219 C 4.078125 15.53125 4.078125 15.53125 4.238281 15.363281 C 4.402344 15.191406 4.429688 15.117188 4.417969 14.601562 C 4.417969 14.390625 4.351562 14.257812 4.207031 14.121094 L 4.003906 13.945312 L 4.199219 13.808594 C 4.378906 13.691406 4.402344 13.605469 4.402344 13.167969 C 4.402344 12.726562 4.378906 12.644531 4.207031 12.535156 C 4.101562 12.457031 3.996094 12.289062 3.980469 12.15625 L 3.9375 11.902344 L 5.382812 11.902344 L 5.382812 11.148438 C 5.382812 10.398438 5.421875 10.128906 5.542969 10.128906 C 5.578125 10.128906 5.625 10.265625 5.644531 10.425781 Z M 15.363281 10.601562 C 15.433594 10.625 15.476562 10.6875 15.453125 10.726562 C 15.394531 10.8125 15.167969 10.726562 15.167969 10.625 C 15.167969 10.535156 15.191406 10.535156 15.363281 10.601562 Z M 16.078125 11.308594 L 16.316406 11.308594 L 16.289062 13.34375 C 16.269531 15.648438 16.277344 15.613281 15.589844 15.613281 C 15.28125 15.613281 15.167969 15.5625 14.878906 15.292969 C 14.695312 15.125 14.472656 14.941406 14.382812 14.878906 C 14.246094 14.796875 14.277344 14.78125 14.578125 14.78125 C 14.855469 14.769531 14.984375 14.71875 15.175781 14.527344 L 15.410156 14.28125 L 15.410156 10.964844 L 15.625 11.132812 C 15.746094 11.234375 15.949219 11.308594 16.078125 11.308594 Z M 4.0625 13.132812 C 4.085938 13.46875 4.078125 13.488281 3.832031 13.523438 C 3.539062 13.5625 3.507812 13.546875 3.507812 13.242188 C 3.507812 12.855469 3.585938 12.738281 3.824219 12.761719 C 4.011719 12.785156 4.035156 12.828125 4.0625 13.132812 Z M 4.0625 14.761719 L 4.085938 15.117188 L 3.816406 15.09375 C 3.585938 15.066406 3.539062 15.03125 3.523438 14.832031 C 3.480469 14.476562 3.539062 14.382812 3.800781 14.390625 C 4.019531 14.410156 4.035156 14.433594 4.0625 14.761719 Z M 11.203125 15.015625 C 11.03125 15.140625 10.8125 15.335938 10.730469 15.4375 C 10.582031 15.605469 10.511719 15.613281 8.996094 15.613281 C 7.527344 15.613281 7.414062 15.605469 7.257812 15.445312 C 7.167969 15.355469 7.09375 15.167969 7.09375 15.023438 L 7.09375 14.769531 L 11.519531 14.769531 Z M 13.871094 15 C 14.082031 15.101562 14.40625 15.320312 14.59375 15.496094 C 14.980469 15.851562 15.410156 16.695312 15.410156 17.074219 C 15.410156 17.296875 15.386719 17.3125 15.15625 17.285156 C 14.9375 17.261719 14.886719 17.210938 14.765625 16.832031 C 14.179688 15.015625 11.863281 14.832031 11.089844 16.542969 C 10.925781 16.898438 10.910156 17.007812 10.992188 17.144531 C 11.074219 17.269531 11.074219 17.304688 10.992188 17.285156 C 10.835938 17.253906 10.910156 17.9375 11.105469 18.375 C 11.652344 19.574219 13.296875 19.859375 14.226562 18.933594 C 14.554688 18.601562 14.832031 18.054688 14.839844 17.742188 C 14.839844 17.582031 14.878906 17.554688 15.125 17.554688 C 15.386719 17.554688 15.410156 17.582031 15.410156 17.792969 C 15.410156 18.15625 14.953125 19.023438 14.578125 19.371094 C 14.066406 19.851562 13.601562 20.039062 12.882812 20.039062 C 12.109375 20.046875 11.511719 19.769531 10.972656 19.152344 L 10.617188 18.738281 L 9.378906 18.738281 L 9.371094 18.207031 C 9.359375 17.917969 9.351562 17.296875 9.351562 16.8125 C 9.335938 16.011719 9.378906 15.824219 9.5 16.039062 C 9.574219 16.15625 9.890625 16.136719 10.023438 16.011719 C 10.109375 15.929688 10.128906 15.929688 10.078125 16.011719 C 10.039062 16.089844 10.101562 16.121094 10.3125 16.121094 C 10.566406 16.121094 10.664062 16.054688 11.03125 15.65625 C 11.808594 14.804688 12.890625 14.550781 13.871094 15 Z M 4.078125 16.351562 C 4.070312 16.703125 4.0625 16.738281 3.960938 16.601562 C 3.832031 16.425781 3.667969 16.417969 3.667969 16.59375 C 3.667969 16.660156 3.636719 16.695312 3.585938 16.667969 C 3.496094 16.613281 3.472656 16.09375 3.5625 16.011719 C 3.585938 15.976562 3.71875 15.953125 3.847656 15.953125 C 4.070312 15.953125 4.078125 15.96875 4.078125 16.351562 Z M 14.03125 16.222656 C 14.839844 17.058594 14.621094 18.402344 13.574219 18.976562 C 13.4375 19.050781 13.136719 19.109375 12.882812 19.109375 C 12.289062 19.117188 11.855469 18.882812 11.519531 18.367188 C 11.292969 18.03125 11.25 17.878906 11.25 17.488281 C 11.25 16.949219 11.480469 16.382812 11.796875 16.121094 C 11.980469 15.976562 12.132812 15.953125 12.890625 15.953125 L 13.765625 15.953125 Z M 5.234375 17.386719 C 5.257812 17.53125 5.25 17.65625 5.234375 17.683594 C 5.152344 17.757812 4.574219 17.726562 4.523438 17.640625 C 4.5 17.589844 4.535156 17.554688 4.597656 17.554688 C 4.671875 17.554688 4.730469 17.496094 4.730469 17.429688 C 4.730469 17.363281 4.695312 17.304688 4.648438 17.304688 C 4.605469 17.304688 4.566406 17.261719 4.566406 17.21875 C 4.566406 17.167969 4.707031 17.132812 4.882812 17.132812 C 5.167969 17.132812 5.203125 17.160156 5.234375 17.386719 Z M 6.769531 17.4375 L 6.769531 17.734375 L 6.425781 17.707031 C 6.164062 17.691406 6.066406 17.640625 6.050781 17.53125 C 5.992188 17.234375 6.097656 17.132812 6.441406 17.132812 C 6.757812 17.132812 6.769531 17.144531 6.769531 17.4375 Z M 8.277344 17.429688 C 8.277344 17.664062 8.25 17.683594 7.933594 17.707031 L 7.582031 17.734375 L 7.582031 17.125 L 7.933594 17.152344 C 8.25 17.175781 8.277344 17.195312 8.277344 17.429688 Z M 8.277344 17.429688 "/>
<path style=" stroke:none;fill-rule:nonzero;fill:rgb(38.431373%,38.431373%,38.431373%);fill-opacity:1;" d="M 10.894531 2.726562 C 10.753906 2.835938 10.769531 2.871094 11.136719 3.390625 C 11.359375 3.695312 11.734375 4.226562 11.96875 4.566406 C 12.207031 4.910156 12.816406 5.78125 13.316406 6.5 C 13.820312 7.21875 14.433594 8.101562 14.675781 8.457031 C 14.914062 8.820312 15.140625 9.117188 15.175781 9.117188 C 15.199219 9.117188 15.273438 9.054688 15.328125 8.988281 C 15.402344 8.898438 15.378906 8.8125 15.183594 8.550781 C 14.9375 8.230469 11.398438 3.15625 11.171875 2.804688 C 11.066406 2.632812 11.03125 2.625 10.894531 2.726562 Z M 10.894531 2.726562 "/>
<path style=" stroke:none;fill-rule:nonzero;fill:rgb(38.431373%,38.431373%,38.431373%);fill-opacity:1;" d="M 19.660156 5.6875 C 19.578125 5.78125 19.636719 5.90625 19.914062 6.320312 C 20.261719 6.828125 20.433594 6.9375 20.515625 6.71875 C 20.558594 6.609375 19.917969 5.589844 19.804688 5.578125 C 19.773438 5.570312 19.707031 5.621094 19.660156 5.6875 Z M 19.660156 5.6875 "/>
<path style=" stroke:none;fill-rule:nonzero;fill:rgb(38.431373%,38.431373%,38.431373%);fill-opacity:1;" d="M 18.835938 6.027344 C 18.761719 6.128906 18.8125 6.246094 19.089844 6.644531 C 19.285156 6.914062 19.445312 7.140625 19.457031 7.15625 C 19.480469 7.207031 19.734375 7.066406 19.734375 6.996094 C 19.734375 6.902344 19.054688 5.917969 18.992188 5.917969 C 18.957031 5.90625 18.890625 5.960938 18.835938 6.027344 Z M 18.835938 6.027344 "/>
<path style=" stroke:none;fill-rule:nonzero;fill:rgb(38.431373%,38.431373%,38.431373%);fill-opacity:1;" d="M 18.042969 6.304688 C 17.882812 6.363281 17.914062 6.464844 18.226562 6.878906 C 18.378906 7.089844 18.535156 7.328125 18.574219 7.394531 C 18.640625 7.519531 18.917969 7.476562 18.917969 7.335938 C 18.917969 7.242188 18.238281 6.246094 18.183594 6.253906 C 18.160156 6.253906 18.09375 6.28125 18.042969 6.304688 Z M 18.042969 6.304688 "/>
<path style=" stroke:none;fill-rule:nonzero;fill:rgb(38.431373%,38.431373%,38.431373%);fill-opacity:1;" d="M 8.152344 9.875 C 8.152344 10.042969 8.210938 10.042969 10.476562 10.042969 C 12.746094 10.042969 12.800781 10.042969 12.800781 9.875 C 12.800781 9.707031 12.746094 9.707031 10.476562 9.707031 C 8.210938 9.707031 8.152344 9.707031 8.152344 9.875 Z M 8.152344 9.875 "/>
<path style=" stroke:none;fill-rule:nonzero;fill:rgb(38.431373%,38.431373%,38.431373%);fill-opacity:1;" d="M 8.171875 11.496094 L 8.195312 11.6875 L 10.503906 11.714844 L 12.800781 11.730469 L 12.800781 11.308594 L 8.144531 11.308594 Z M 8.171875 11.496094 "/>
<path style=" stroke:none;fill-rule:nonzero;fill:rgb(38.431373%,38.431373%,38.431373%);fill-opacity:1;" d="M 3.382812 10.339844 C 3.269531 10.449219 3.179688 10.644531 3.179688 10.761719 C 3.179688 11.015625 3.515625 11.394531 3.726562 11.394531 C 4.042969 11.394531 4.230469 11.285156 4.34375 11.039062 C 4.65625 10.375 3.882812 9.816406 3.382812 10.339844 Z M 4.0625 10.484375 C 4.0625 10.921875 3.996094 11.066406 3.816406 11.039062 C 3.570312 11.007812 3.449219 10.769531 3.578125 10.601562 C 3.644531 10.527344 3.757812 10.464844 3.839844 10.464844 C 3.929688 10.464844 3.996094 10.425781 3.996094 10.382812 C 3.996094 10.332031 4.011719 10.296875 4.027344 10.296875 C 4.054688 10.296875 4.070312 10.382812 4.0625 10.484375 Z M 4.0625 10.484375 "/>
<path style=" stroke:none;fill-rule:nonzero;fill:rgb(38.431373%,38.431373%,38.431373%);fill-opacity:1;" d="M 9.703125 16.964844 C 9.605469 17.066406 9.539062 17.242188 9.539062 17.429688 C 9.539062 17.96875 10.109375 18.257812 10.511719 17.910156 C 10.761719 17.699219 10.769531 17.160156 10.527344 16.949219 C 10.28125 16.746094 9.90625 16.753906 9.703125 16.964844 Z M 10.339844 17.574219 C 10.199219 17.859375 9.832031 17.699219 9.882812 17.378906 C 9.914062 17.109375 10.289062 17.007812 10.363281 17.253906 C 10.386719 17.351562 10.378906 17.496094 10.339844 17.574219 Z M 10.339844 17.574219 "/>
</g>
</svg>
