<?xml version="1.0" encoding="UTF-8"?>
<svg xmlns="http://www.w3.org/2000/svg" xmlns:xlink="http://www.w3.org/1999/xlink" width="24pt" height="24pt" viewBox="0 0 24 24" version="1.1">
<g id="surface1">
<path style=" stroke:none;fill-rule:nonzero;fill:rgb(38.431373%,38.431373%,38.431373%);fill-opacity:1;" d="M 22.800781 16 L 17.601562 16 C 17.601562 15.320312 17.078125 14.800781 16.398438 14.800781 L 16 14.800781 C 15.320312 14.800781 14.800781 15.320312 14.800781 16 L 14.398438 16 C 13.71875 16 13.199219 16.519531 13.199219 17.199219 L 13.199219 22 C 13.199219 22.679688 13.71875 23.199219 14.398438 23.199219 L 14.882812 23.199219 C 15.039062 23.679688 15.480469 24 16 24 L 16.398438 24 C 16.921875 24 17.359375 23.679688 17.519531 23.199219 L 22.800781 23.199219 C 23.480469 23.199219 24 22.679688 24 22 L 24 17.199219 C 24 16.519531 23.480469 16 22.800781 16 Z M 14 22 L 14 17.199219 C 14 16.960938 14.160156 16.800781 14.398438 16.800781 L 14.800781 16.800781 L 14.800781 22.398438 L 14.398438 22.398438 C 14.160156 22.398438 14 22.242188 14 22 Z M 16.800781 22.800781 C 16.800781 23.039062 16.640625 23.199219 16.398438 23.199219 L 16 23.199219 C 15.757812 23.199219 15.601562 23.039062 15.601562 22.800781 L 15.601562 16 C 15.601562 15.757812 15.757812 15.601562 16 15.601562 L 16.398438 15.601562 C 16.640625 15.601562 16.800781 15.757812 16.800781 16 Z M 23.199219 22 C 23.199219 22.242188 23.039062 22.398438 22.800781 22.398438 L 17.601562 22.398438 L 17.601562 16.800781 L 22.800781 16.800781 C 23.039062 16.800781 23.199219 16.960938 23.199219 17.199219 Z M 23.199219 22 "/>
<path style=" stroke:none;fill-rule:nonzero;fill:rgb(38.431373%,38.431373%,38.431373%);fill-opacity:1;" d="M 1.601562 16.800781 L 2.398438 16.800781 L 2.398438 17.601562 L 1.601562 17.601562 Z M 1.601562 16.800781 "/>
<path style=" stroke:none;fill-rule:nonzero;fill:rgb(38.431373%,38.431373%,38.431373%);fill-opacity:1;" d="M 3.199219 16.800781 L 4 16.800781 L 4 17.601562 L 3.199219 17.601562 Z M 3.199219 16.800781 "/>
<path style=" stroke:none;fill-rule:nonzero;fill:rgb(38.431373%,38.431373%,38.431373%);fill-opacity:1;" d="M 10.800781 24 L 10.800781 19.199219 C 11.480469 19.199219 12 18.679688 12 18 L 12 13.601562 L 10.800781 13.601562 L 10.800781 12 L 10 12 L 10 13.601562 L 2 13.601562 L 2 10.398438 L 8.480469 10.398438 C 8.640625 10.882812 9.078125 11.199219 9.601562 11.199219 L 13.921875 11.199219 L 13.640625 13.199219 L 12.398438 13.199219 L 12.398438 14 L 19.601562 14 L 19.601562 13.199219 L 18.359375 13.199219 L 18.078125 11.199219 L 22.398438 11.199219 C 23.078125 11.199219 23.601562 10.679688 23.601562 10 L 23.601562 1.199219 C 23.601562 0.519531 23.078125 0 22.398438 0 L 9.601562 0 C 8.921875 0 8.398438 0.519531 8.398438 1.199219 L 8.398438 9.601562 L 1.199219 9.601562 L 1.199219 13.601562 L 0 13.601562 L 0 18 C 0 18.679688 0.519531 19.199219 1.199219 19.199219 L 1.199219 24 Z M 17.519531 13.199219 L 14.4375 13.199219 L 14.71875 11.199219 L 17.242188 11.199219 Z M 22.398438 10.398438 L 9.601562 10.398438 C 9.359375 10.398438 9.199219 10.242188 9.199219 10 L 9.199219 9.601562 L 22.800781 9.601562 L 22.800781 10 C 22.800781 10.242188 22.640625 10.398438 22.398438 10.398438 Z M 9.601562 0.800781 L 22.398438 0.800781 C 22.640625 0.800781 22.800781 0.960938 22.800781 1.199219 L 22.800781 8.800781 L 9.199219 8.800781 L 9.199219 2.398438 L 22 2.398438 L 22 1.601562 L 9.199219 1.601562 L 9.199219 1.199219 C 9.199219 0.960938 9.359375 0.800781 9.601562 0.800781 Z M 0.800781 18 L 0.800781 14.398438 L 11.199219 14.398438 L 11.199219 18 C 11.199219 18.242188 11.039062 18.398438 10.800781 18.398438 L 1.199219 18.398438 C 0.960938 18.398438 0.800781 18.242188 0.800781 18 Z M 10 19.199219 L 10 23.199219 L 2 23.199219 L 2 19.199219 Z M 10 19.199219 "/>
<path style=" stroke:none;fill-rule:nonzero;fill:rgb(38.431373%,38.431373%,38.431373%);fill-opacity:1;" d="M 2.800781 21.601562 L 9.199219 21.601562 L 9.199219 22.398438 L 2.800781 22.398438 Z M 2.800781 21.601562 "/>
<path style=" stroke:none;fill-rule:nonzero;fill:rgb(38.431373%,38.431373%,38.431373%);fill-opacity:1;" d="M 18.398438 17.601562 L 19.199219 17.601562 L 19.199219 18.398438 L 18.398438 18.398438 Z M 18.398438 17.601562 "/>
<path style=" stroke:none;fill-rule:nonzero;fill:rgb(38.431373%,38.431373%,38.431373%);fill-opacity:1;" d="M 20 17.601562 L 20.800781 17.601562 L 20.800781 18.398438 L 20 18.398438 Z M 20 17.601562 "/>
<path style=" stroke:none;fill-rule:nonzero;fill:rgb(38.431373%,38.431373%,38.431373%);fill-opacity:1;" d="M 21.601562 17.601562 L 22.398438 17.601562 L 22.398438 18.398438 L 21.601562 18.398438 Z M 21.601562 17.601562 "/>
<path style=" stroke:none;fill-rule:nonzero;fill:rgb(38.431373%,38.431373%,38.431373%);fill-opacity:1;" d="M 18.398438 19.199219 L 19.199219 19.199219 L 19.199219 20 L 18.398438 20 Z M 18.398438 19.199219 "/>
<path style=" stroke:none;fill-rule:nonzero;fill:rgb(38.431373%,38.431373%,38.431373%);fill-opacity:1;" d="M 20 19.199219 L 20.800781 19.199219 L 20.800781 20 L 20 20 Z M 20 19.199219 "/>
<path style=" stroke:none;fill-rule:nonzero;fill:rgb(38.431373%,38.431373%,38.431373%);fill-opacity:1;" d="M 21.601562 19.199219 L 22.398438 19.199219 L 22.398438 20 L 21.601562 20 Z M 21.601562 19.199219 "/>
<path style=" stroke:none;fill-rule:nonzero;fill:rgb(38.431373%,38.431373%,38.431373%);fill-opacity:1;" d="M 18.398438 20.800781 L 19.199219 20.800781 L 19.199219 21.601562 L 18.398438 21.601562 Z M 18.398438 20.800781 "/>
<path style=" stroke:none;fill-rule:nonzero;fill:rgb(38.431373%,38.431373%,38.431373%);fill-opacity:1;" d="M 20 20.800781 L 20.800781 20.800781 L 20.800781 21.601562 L 20 21.601562 Z M 20 20.800781 "/>
<path style=" stroke:none;fill-rule:nonzero;fill:rgb(38.431373%,38.431373%,38.431373%);fill-opacity:1;" d="M 21.601562 20.800781 L 22.398438 20.800781 L 22.398438 21.601562 L 21.601562 21.601562 Z M 21.601562 20.800781 "/>
<path style=" stroke:none;fill-rule:nonzero;fill:rgb(38.431373%,38.431373%,38.431373%);fill-opacity:1;" d="M 2.800781 20 L 9.199219 20 L 9.199219 20.800781 L 2.800781 20.800781 Z M 2.800781 20 "/>
<path style=" stroke:none;fill-rule:nonzero;fill:rgb(38.431373%,38.431373%,38.431373%);fill-opacity:1;" d="M 2.398438 8.800781 L 6 8.800781 C 6.679688 8.800781 7.199219 8.28125 7.199219 7.601562 L 7.199219 1.199219 C 7.199219 0.519531 6.679688 0 6 0 L 2.398438 0 C 1.71875 0 1.199219 0.519531 1.199219 1.199219 L 1.199219 7.601562 C 1.199219 8.28125 1.71875 8.800781 2.398438 8.800781 Z M 6 8 L 2.398438 8 C 2.160156 8 2 7.839844 2 7.601562 L 2 7.199219 L 6.398438 7.199219 L 6.398438 7.601562 C 6.398438 7.839844 6.242188 8 6 8 Z M 2 6.398438 L 2 2.398438 L 6.398438 2.398438 L 6.398438 6.398438 Z M 2.398438 0.800781 L 6 0.800781 C 6.242188 0.800781 6.398438 0.960938 6.398438 1.199219 L 6.398438 1.601562 L 2 1.601562 L 2 1.199219 C 2 0.960938 2.160156 0.800781 2.398438 0.800781 Z M 2.398438 0.800781 "/>
</g>
</svg>
