<?xml version="1.0" encoding="UTF-8"?>
<svg xmlns="http://www.w3.org/2000/svg" xmlns:xlink="http://www.w3.org/1999/xlink" width="24pt" height="24pt" viewBox="0 0 24 24" version="1.1">
<g id="surface1">
<path style=" stroke:none;fill-rule:nonzero;fill:rgb(38.431373%,38.431373%,38.431373%);fill-opacity:1;" d="M 23.226562 19.398438 L 23.226562 15.871094 C 23.226562 15.367188 22.898438 14.941406 22.453125 14.78125 L 22.453125 14.320312 C 22.453125 13.679688 21.929688 13.164062 21.289062 13.164062 L 16.960938 13.164062 C 16.800781 12.710938 16.375 12.386719 15.871094 12.386719 L 15.871094 7.542969 C 15.871094 6.570312 15.347656 5.671875 14.5 5.1875 L 7.082031 0.960938 C 6.746094 0.390625 6.132812 0 5.421875 0 C 4.359375 0 3.492188 0.859375 3.484375 1.921875 L 3.109375 13.199219 C 2.21875 13.375 1.546875 14.15625 1.546875 15.097656 C 1.546875 15.515625 1.683594 15.898438 1.90625 16.210938 L 0.804688 17.496094 C 0.289062 18.101562 0 18.875 0 19.675781 C 0 20.570312 0.347656 21.414062 0.980469 22.046875 L 2.140625 23.207031 C 2.65625 23.71875 3.335938 24 4.058594 24 L 8.128906 24 L 8.128906 23.226562 L 7.355469 23.226562 L 7.355469 21.105469 L 6.023438 20.039062 C 5.621094 19.71875 5.367188 19.257812 5.3125 18.742188 L 5.03125 16.246094 C 5.273438 15.921875 5.421875 15.527344 5.421875 15.097656 C 5.421875 14.496094 5.140625 13.96875 4.710938 13.609375 L 6.507812 3.53125 C 6.578125 3.484375 6.636719 3.429688 6.699219 3.375 L 10.671875 7.347656 C 10.535156 7.578125 10.453125 7.84375 10.453125 8.128906 C 10.453125 8.847656 10.945312 9.449219 11.613281 9.625 L 11.613281 12.386719 L 11.472656 12.386719 C 10.921875 12.386719 10.445312 12.78125 10.335938 13.320312 L 9.296875 18.503906 L 9.292969 19.394531 C 8.8125 19.882812 8.515625 20.554688 8.515625 21.289062 C 8.515625 22.78125 9.734375 24 11.226562 24 L 21.289062 24 C 22.785156 24 24 22.78125 24 21.289062 C 24 20.554688 23.703125 19.886719 23.226562 19.398438 Z M 3.484375 13.9375 C 4.125 13.9375 4.644531 14.457031 4.644531 15.097656 C 4.644531 15.734375 4.125 16.257812 3.484375 16.257812 C 2.84375 16.257812 2.320312 15.734375 2.320312 15.097656 C 2.320312 14.457031 2.84375 13.9375 3.484375 13.9375 Z M 5.539062 20.644531 L 6.578125 21.476562 L 6.578125 21.679688 L 5.804688 21.679688 L 5.804688 22.453125 L 6.578125 22.453125 L 6.578125 23.226562 L 4.058594 23.226562 C 3.539062 23.226562 3.054688 23.023438 2.6875 22.65625 L 1.527344 21.496094 C 1.042969 21.011719 0.773438 20.363281 0.773438 19.675781 C 0.773438 19.0625 0.992188 18.46875 1.394531 18 L 2.476562 16.742188 C 2.769531 16.921875 3.113281 17.03125 3.484375 17.03125 C 3.785156 17.03125 4.066406 16.957031 4.320312 16.835938 L 4.539062 18.828125 C 4.621094 19.546875 4.976562 20.195312 5.539062 20.644531 Z M 3.992188 13.234375 C 3.953125 13.226562 3.921875 13.210938 3.882812 13.203125 L 4.210938 3.433594 C 4.539062 3.703125 4.960938 3.871094 5.421875 3.871094 C 5.503906 3.871094 5.585938 3.859375 5.664062 3.84375 Z M 5.421875 3.097656 C 4.78125 3.097656 4.257812 2.578125 4.257812 1.9375 C 4.257812 1.296875 4.78125 0.773438 5.421875 0.773438 C 6.0625 0.773438 6.578125 1.296875 6.578125 1.9375 C 6.578125 2.578125 6.0625 3.097656 5.421875 3.097656 Z M 17.03125 15.484375 L 17.804688 15.484375 L 17.804688 14.710938 L 17.03125 14.710938 L 17.03125 13.9375 L 21.289062 13.9375 C 21.503906 13.9375 21.679688 14.109375 21.679688 14.320312 L 21.679688 14.710938 L 18.578125 14.710938 L 18.578125 15.484375 L 22.0625 15.484375 C 22.277344 15.484375 22.453125 15.65625 22.453125 15.871094 L 22.453125 18.84375 C 22.101562 18.679688 21.707031 18.578125 21.289062 18.578125 L 17.03125 18.578125 Z M 7.167969 2.75 C 7.273438 2.523438 7.335938 2.269531 7.347656 2.003906 L 14.117188 5.859375 C 14.722656 6.203125 15.097656 6.851562 15.097656 7.542969 L 15.097656 12.386719 L 12.386719 12.386719 L 12.386719 9.625 C 13.054688 9.449219 13.546875 8.847656 13.546875 8.128906 C 13.546875 7.273438 12.851562 6.578125 12 6.578125 C 11.710938 6.578125 11.449219 6.664062 11.21875 6.800781 Z M 11.226562 8.128906 C 11.226562 7.703125 11.570312 7.355469 12 7.355469 C 12.429688 7.355469 12.773438 7.703125 12.773438 8.128906 C 12.773438 8.554688 12.429688 8.902344 12 8.902344 C 11.570312 8.902344 11.226562 8.554688 11.226562 8.128906 Z M 10.0625 18.617188 L 11.09375 13.472656 C 11.128906 13.292969 11.289062 13.164062 11.472656 13.164062 L 15.871094 13.164062 C 16.085938 13.164062 16.257812 13.335938 16.257812 13.546875 L 16.257812 18.578125 L 11.226562 18.578125 C 10.8125 18.578125 10.417969 18.679688 10.0625 18.84375 Z M 21.289062 23.226562 L 11.226562 23.226562 C 10.15625 23.226562 9.289062 22.359375 9.289062 21.289062 C 9.289062 20.222656 10.15625 19.355469 11.226562 19.355469 L 21.289062 19.355469 C 22.359375 19.355469 23.226562 20.222656 23.226562 21.289062 C 23.226562 22.359375 22.359375 23.226562 21.289062 23.226562 Z M 21.289062 23.226562 "/>
<path style=" stroke:none;fill-rule:nonzero;fill:rgb(38.431373%,38.431373%,38.431373%);fill-opacity:1;" d="M 20.902344 19.742188 C 20.4375 19.742188 20.023438 19.953125 19.742188 20.277344 C 19.457031 19.953125 19.046875 19.742188 18.578125 19.742188 C 18.117188 19.742188 17.703125 19.953125 17.421875 20.277344 C 17.132812 19.953125 16.722656 19.742188 16.257812 19.742188 C 15.792969 19.742188 15.382812 19.953125 15.097656 20.277344 C 14.8125 19.953125 14.398438 19.742188 13.9375 19.742188 C 13.46875 19.742188 13.058594 19.953125 12.773438 20.277344 C 12.492188 19.953125 12.078125 19.742188 11.613281 19.742188 C 10.757812 19.742188 10.0625 20.4375 10.0625 21.289062 C 10.0625 22.144531 10.757812 22.835938 11.613281 22.835938 C 12.078125 22.835938 12.492188 22.628906 12.773438 22.304688 C 13.058594 22.628906 13.46875 22.835938 13.9375 22.835938 C 14.398438 22.835938 14.8125 22.628906 15.097656 22.304688 C 15.382812 22.628906 15.792969 22.835938 16.257812 22.835938 C 16.722656 22.835938 17.132812 22.628906 17.421875 22.304688 C 17.703125 22.628906 18.117188 22.835938 18.578125 22.835938 C 19.046875 22.835938 19.457031 22.628906 19.742188 22.304688 C 20.023438 22.628906 20.4375 22.835938 20.902344 22.835938 C 21.757812 22.835938 22.453125 22.144531 22.453125 21.289062 C 22.453125 20.4375 21.757812 19.742188 20.902344 19.742188 Z M 11.613281 22.0625 C 11.1875 22.0625 10.835938 21.71875 10.835938 21.289062 C 10.835938 20.863281 11.1875 20.515625 11.613281 20.515625 C 12.039062 20.515625 12.386719 20.863281 12.386719 21.289062 C 12.386719 21.71875 12.039062 22.0625 11.613281 22.0625 Z M 13.9375 22.0625 C 13.507812 22.0625 13.164062 21.71875 13.164062 21.289062 C 13.164062 20.863281 13.507812 20.515625 13.9375 20.515625 C 14.363281 20.515625 14.710938 20.863281 14.710938 21.289062 C 14.710938 21.71875 14.363281 22.0625 13.9375 22.0625 Z M 16.257812 22.0625 C 15.832031 22.0625 15.484375 21.71875 15.484375 21.289062 C 15.484375 20.863281 15.832031 20.515625 16.257812 20.515625 C 16.6875 20.515625 17.03125 20.863281 17.03125 21.289062 C 17.03125 21.71875 16.6875 22.0625 16.257812 22.0625 Z M 18.578125 22.0625 C 18.15625 22.0625 17.804688 21.71875 17.804688 21.289062 C 17.804688 20.863281 18.15625 20.515625 18.578125 20.515625 C 19.007812 20.515625 19.355469 20.863281 19.355469 21.289062 C 19.355469 21.71875 19.007812 22.0625 18.578125 22.0625 Z M 20.902344 22.0625 C 20.476562 22.0625 20.128906 21.71875 20.128906 21.289062 C 20.128906 20.863281 20.476562 20.515625 20.902344 20.515625 C 21.328125 20.515625 21.679688 20.863281 21.679688 21.289062 C 21.679688 21.71875 21.328125 22.0625 20.902344 22.0625 Z M 20.902344 22.0625 "/>
<path style=" stroke:none;fill-rule:nonzero;fill:rgb(38.431373%,38.431373%,38.431373%);fill-opacity:1;" d="M 15.871094 13.9375 L 11.679688 13.9375 L 11.234375 16.179688 L 11.226562 17.03125 L 15.871094 17.03125 Z M 15.097656 16.257812 L 12.007812 16.257812 L 12.320312 14.710938 L 15.097656 14.710938 Z M 15.097656 16.257812 "/>
<path style=" stroke:none;fill-rule:nonzero;fill:rgb(38.431373%,38.431373%,38.431373%);fill-opacity:1;" d="M 20.128906 16.257812 L 21.679688 16.257812 L 21.679688 17.03125 L 20.128906 17.03125 Z M 20.128906 16.257812 "/>
<path style=" stroke:none;fill-rule:nonzero;fill:rgb(38.431373%,38.431373%,38.431373%);fill-opacity:1;" d="M 17.804688 16.257812 L 19.355469 16.257812 L 19.355469 17.03125 L 17.804688 17.03125 Z M 17.804688 16.257812 "/>
</g>
</svg>
