<?xml version="1.0" encoding="UTF-8"?>
<svg xmlns="http://www.w3.org/2000/svg" xmlns:xlink="http://www.w3.org/1999/xlink" width="24pt" height="24pt" viewBox="0 0 24 24" version="1.1">
<g id="surface1">
<path style=" stroke:none;fill-rule:nonzero;fill:rgb(38.431373%,38.431373%,38.431373%);fill-opacity:1;" d="M 12 1 L 3 5 L 3 11 C 3 16.550781 6.839844 21.742188 12 23 C 17.160156 21.742188 21 16.550781 21 11 L 21 5 Z M 19 11 C 19 12.851562 18.492188 14.648438 17.617188 16.210938 L 16.171875 14.757812 C 17.480469 12.777344 17.210938 10.148438 15.53125 8.46875 C 13.578125 6.519531 10.414062 6.519531 8.460938 8.46875 C 6.507812 10.421875 6.507812 13.585938 8.460938 15.539062 C 10.140625 17.21875 12.765625 17.484375 14.75 16.179688 L 16.46875 17.898438 C 15.28125 19.320312 13.742188 20.410156 12 20.9375 C 7.980469 19.6875 5 15.519531 5 11 L 5 6.300781 L 12 3.1875 L 19 6.300781 Z M 12 15 C 10.339844 15 9 13.660156 9 12 C 9 10.339844 10.339844 9 12 9 C 13.660156 9 15 10.339844 15 12 C 15 13.660156 13.660156 15 12 15 Z M 12 15 "/>
</g>
</svg>
