<?xml version="1.0" encoding="UTF-8"?>
<svg xmlns="http://www.w3.org/2000/svg" xmlns:xlink="http://www.w3.org/1999/xlink" width="24pt" height="24pt" viewBox="0 0 24 24" version="1.1">
<g id="surface1">
<path style=" stroke:none;fill-rule:nonzero;fill:rgb(38.431373%,38.431373%,38.431373%);fill-opacity:1;" d="M 20.648438 16.921875 C 20.648438 16.921875 20.640625 16.914062 20.640625 16.910156 C 20.617188 16.875 20.601562 16.84375 20.578125 16.8125 C 20.566406 16.796875 20.554688 16.773438 20.542969 16.757812 C 20.53125 16.734375 20.515625 16.714844 20.5 16.695312 C 20.480469 16.664062 20.460938 16.640625 20.4375 16.613281 C 20.433594 16.601562 20.429688 16.59375 20.421875 16.585938 C 20.417969 16.582031 20.414062 16.578125 20.410156 16.570312 C 20.382812 16.539062 20.359375 16.507812 20.335938 16.476562 C 20.328125 16.46875 20.320312 16.453125 20.3125 16.445312 C 20.285156 16.414062 20.257812 16.382812 20.234375 16.355469 C 20.226562 16.34375 20.210938 16.328125 20.203125 16.320312 C 20.179688 16.292969 20.15625 16.269531 20.136719 16.246094 C 20.121094 16.226562 20.105469 16.210938 20.085938 16.195312 C 20.078125 16.179688 20.0625 16.167969 20.050781 16.15625 C 19.5625 15.664062 18.96875 15.304688 18.292969 15.109375 C 18.28125 15.101562 18.269531 15.101562 18.257812 15.101562 C 18.257812 15.101562 15.078125 14.507812 15.078125 14.507812 C 15.074219 14.507812 15.070312 14.507812 15.0625 14.507812 C 14.914062 14.484375 14.761719 14.5 14.625 14.5625 C 14.515625 14.425781 14.441406 14.242188 14.441406 14.066406 L 14.441406 13.492188 C 14.640625 13.363281 14.835938 13.21875 15.023438 13.054688 C 15.8125 12.378906 16.3125 11.398438 16.414062 10.332031 C 16.992188 10.304688 17.457031 9.828125 17.457031 9.242188 L 17.457031 8.421875 C 17.457031 8.09375 17.308594 7.785156 17.058594 7.578125 L 17.058594 5.695312 C 18.207031 5.128906 18.457031 4.46875 18.457031 4 C 18.457031 3.203125 17.710938 2.203125 16.515625 1.390625 C 15.746094 0.871094 14.140625 0 12 0 C 9.859375 0 8.253906 0.871094 7.484375 1.390625 C 6.289062 2.203125 5.542969 3.203125 5.542969 4 C 5.542969 4.46875 5.792969 5.128906 6.941406 5.695312 L 6.941406 7.578125 C 6.691406 7.785156 6.542969 8.09375 6.542969 8.421875 L 6.542969 9.242188 C 6.542969 9.828125 7.003906 10.304688 7.585938 10.332031 C 7.6875 11.398438 8.1875 12.378906 8.976562 13.054688 C 9.164062 13.21875 9.359375 13.363281 9.558594 13.492188 L 9.558594 14.066406 C 9.558594 14.242188 9.484375 14.425781 9.375 14.5625 C 9.234375 14.5 9.074219 14.480469 8.921875 14.507812 L 5.742188 15.101562 C 5.730469 15.101562 5.71875 15.101562 5.707031 15.109375 C 5.03125 15.304688 4.4375 15.664062 3.953125 16.15625 C 3.9375 16.167969 3.921875 16.179688 3.914062 16.195312 C 3.898438 16.210938 3.878906 16.226562 3.863281 16.246094 C 3.84375 16.269531 3.820312 16.292969 3.796875 16.320312 C 3.789062 16.328125 3.777344 16.34375 3.765625 16.355469 C 3.742188 16.382812 3.714844 16.414062 3.6875 16.445312 C 3.679688 16.453125 3.671875 16.46875 3.664062 16.476562 C 3.640625 16.507812 3.617188 16.539062 3.589844 16.570312 C 3.585938 16.578125 3.582031 16.582031 3.578125 16.585938 C 3.570312 16.59375 3.566406 16.601562 3.5625 16.613281 C 3.539062 16.640625 3.519531 16.664062 3.5 16.695312 C 3.484375 16.714844 3.46875 16.734375 3.457031 16.757812 C 3.445312 16.777344 3.433594 16.796875 3.421875 16.8125 C 3.398438 16.84375 3.382812 16.875 3.359375 16.910156 C 3.359375 16.914062 3.351562 16.921875 3.351562 16.921875 C 2.960938 17.5625 2.757812 18.289062 2.757812 19.046875 L 2.757812 19.476562 C 2.757812 19.671875 2.914062 19.828125 3.109375 19.828125 C 3.304688 19.828125 3.460938 19.671875 3.460938 19.476562 L 3.460938 19.046875 C 3.460938 18.707031 3.515625 18.371094 3.609375 18.054688 C 3.820312 18.21875 4.070312 18.304688 4.328125 18.304688 C 4.371094 18.304688 4.414062 18.304688 4.453125 18.296875 C 4.765625 18.265625 5.039062 18.113281 5.234375 17.875 L 5.617188 17.398438 C 5.8125 17.15625 5.898438 16.851562 5.867188 16.546875 C 5.84375 16.300781 5.742188 16.078125 5.578125 15.898438 C 5.679688 15.855469 5.78125 15.820312 5.890625 15.789062 L 7.914062 15.410156 L 9.523438 17.664062 C 9.6875 17.886719 9.9375 18.011719 10.203125 18.011719 C 10.3125 18.011719 10.421875 17.992188 10.53125 17.945312 L 10.636719 17.898438 L 11.101562 18.445312 L 10.429688 23.296875 L 6.007812 23.296875 L 6.007812 20.445312 C 6.007812 20.25 5.851562 20.09375 5.65625 20.09375 C 5.464844 20.09375 5.304688 20.25 5.304688 20.445312 L 5.304688 23.296875 L 3.898438 23.296875 C 3.65625 23.296875 3.460938 23.101562 3.460938 22.859375 L 3.460938 21.117188 C 3.460938 20.921875 3.304688 20.765625 3.109375 20.765625 C 2.914062 20.765625 2.757812 20.921875 2.757812 21.117188 L 2.757812 22.859375 C 2.757812 23.488281 3.273438 24 3.898438 24 L 20.101562 24 C 20.726562 24 21.242188 23.488281 21.242188 22.859375 L 21.242188 19.046875 C 21.242188 18.289062 21.039062 17.5625 20.648438 16.921875 Z M 5.070312 16.957031 L 4.6875 17.429688 C 4.609375 17.523438 4.5 17.585938 4.382812 17.597656 C 4.257812 17.609375 4.140625 17.578125 4.046875 17.5 L 3.898438 17.382812 C 3.929688 17.324219 3.960938 17.269531 4 17.21875 C 4 17.214844 4 17.214844 4 17.214844 C 4.03125 17.167969 4.0625 17.125 4.09375 17.078125 C 4.101562 17.0625 4.109375 17.050781 4.121094 17.039062 C 4.148438 17 4.179688 16.960938 4.207031 16.921875 C 4.214844 16.914062 4.222656 16.90625 4.230469 16.894531 C 4.265625 16.851562 4.296875 16.8125 4.335938 16.773438 C 4.34375 16.761719 4.355469 16.75 4.367188 16.742188 C 4.398438 16.703125 4.4375 16.664062 4.472656 16.625 C 4.476562 16.625 4.480469 16.621094 4.484375 16.617188 C 4.617188 16.484375 4.765625 16.363281 4.921875 16.25 L 5 16.3125 C 5.09375 16.390625 5.15625 16.5 5.167969 16.621094 C 5.179688 16.742188 5.148438 16.859375 5.070312 16.957031 Z M 19 16.3125 L 19.078125 16.25 C 19.234375 16.359375 19.382812 16.484375 19.515625 16.617188 C 19.519531 16.621094 19.523438 16.625 19.527344 16.625 C 19.5625 16.664062 19.601562 16.703125 19.632812 16.742188 C 19.644531 16.75 19.65625 16.761719 19.664062 16.773438 C 19.703125 16.8125 19.734375 16.851562 19.769531 16.894531 C 19.777344 16.90625 19.785156 16.914062 19.792969 16.921875 C 19.820312 16.960938 19.851562 17 19.878906 17.039062 C 19.890625 17.050781 19.898438 17.0625 19.90625 17.078125 C 19.9375 17.125 19.96875 17.167969 20 17.214844 C 20 17.214844 20 17.214844 20 17.21875 C 20.039062 17.269531 20.070312 17.324219 20.101562 17.382812 L 19.953125 17.5 C 19.859375 17.578125 19.742188 17.609375 19.617188 17.597656 C 19.5 17.585938 19.390625 17.523438 19.3125 17.429688 L 18.929688 16.957031 C 18.773438 16.757812 18.804688 16.472656 19 16.3125 Z M 14.800781 15.28125 L 14.894531 15.210938 C 14.910156 15.203125 14.929688 15.195312 14.953125 15.203125 L 15.320312 15.269531 L 13.902344 17.253906 C 13.867188 17.304688 13.804688 17.320312 13.746094 17.296875 L 12.703125 16.851562 Z M 12 16.5 L 9.953125 14.96875 C 10.144531 14.710938 10.261719 14.390625 10.261719 14.066406 L 10.261719 13.859375 C 10.804688 14.085938 11.382812 14.207031 11.996094 14.214844 C 12 14.214844 12 14.214844 12 14.214844 C 12 14.214844 12 14.214844 12.003906 14.214844 C 12.617188 14.207031 13.195312 14.085938 13.738281 13.859375 L 13.738281 14.066406 C 13.738281 14.390625 13.855469 14.710938 14.046875 14.96875 Z M 12.683594 17.609375 L 12.363281 17.984375 L 11.636719 17.984375 L 11.316406 17.609375 L 12 17.320312 Z M 6.941406 4.890625 C 6.492188 4.617188 6.246094 4.304688 6.246094 4 C 6.246094 3.367188 7.09375 2.507812 7.878906 1.976562 C 8.578125 1.5 10.046875 0.703125 12 0.703125 C 13.953125 0.703125 15.421875 1.5 16.121094 1.976562 C 16.90625 2.507812 17.753906 3.367188 17.753906 4 C 17.753906 4.304688 17.507812 4.617188 17.058594 4.890625 L 17.058594 4.253906 C 17.058594 3.757812 16.722656 3.324219 16.242188 3.203125 C 15.328125 2.96875 13.539062 2.578125 11.78125 2.578125 C 11.777344 2.578125 11.777344 2.578125 11.773438 2.578125 C 10.25 2.578125 8.734375 2.914062 7.734375 3.195312 C 7.265625 3.328125 6.941406 3.757812 6.941406 4.242188 Z M 8.160156 6.128906 C 8.15625 6.125 8.148438 6.121094 8.148438 6.117188 C 8.125 6.101562 8.101562 6.089844 8.078125 6.074219 C 8.070312 6.070312 8.0625 6.0625 8.054688 6.054688 C 8.039062 6.046875 8.019531 6.03125 8.003906 6.019531 C 7.992188 6.011719 7.984375 6 7.96875 5.992188 C 7.957031 5.984375 7.945312 5.972656 7.933594 5.960938 C 7.921875 5.953125 7.90625 5.941406 7.894531 5.929688 C 7.886719 5.921875 7.875 5.914062 7.867188 5.90625 C 7.855469 5.890625 7.84375 5.878906 7.828125 5.867188 C 7.824219 5.859375 7.816406 5.851562 7.8125 5.84375 L 13.710938 5.84375 C 13.90625 5.84375 14.0625 5.6875 14.0625 5.492188 C 14.0625 5.296875 13.90625 5.140625 13.710938 5.140625 L 7.644531 5.140625 L 7.644531 4.242188 C 7.644531 4.070312 7.757812 3.917969 7.921875 3.875 C 8.882812 3.601562 10.328125 3.28125 11.773438 3.28125 C 11.777344 3.28125 11.777344 3.28125 11.78125 3.28125 C 13.460938 3.28125 15.1875 3.65625 16.066406 3.882812 C 16.234375 3.925781 16.355469 4.078125 16.355469 4.253906 L 16.355469 5.140625 L 15.414062 5.140625 C 15.21875 5.140625 15.0625 5.296875 15.0625 5.492188 C 15.0625 5.6875 15.21875 5.84375 15.414062 5.84375 L 16.191406 5.84375 C 16.1875 5.84375 16.1875 5.84375 16.1875 5.84375 C 16.183594 5.851562 16.175781 5.859375 16.171875 5.867188 C 16.15625 5.878906 16.144531 5.890625 16.132812 5.90625 C 16.125 5.914062 16.113281 5.921875 16.105469 5.929688 C 16.09375 5.941406 16.078125 5.953125 16.066406 5.960938 C 16.054688 5.972656 16.042969 5.984375 16.03125 5.992188 C 16.019531 6 16.007812 6.011719 15.996094 6.019531 C 15.980469 6.03125 15.960938 6.046875 15.945312 6.054688 C 15.9375 6.0625 15.929688 6.070312 15.921875 6.074219 C 15.898438 6.089844 15.875 6.101562 15.851562 6.117188 C 15.851562 6.121094 15.84375 6.125 15.839844 6.128906 C 15.695312 6.21875 15.519531 6.308594 15.320312 6.390625 C 15.316406 6.390625 15.3125 6.394531 15.308594 6.398438 C 14.554688 6.707031 13.421875 6.945312 12 6.945312 C 10.578125 6.945312 9.445312 6.707031 8.691406 6.398438 C 8.6875 6.394531 8.683594 6.390625 8.679688 6.390625 C 8.480469 6.308594 8.304688 6.21875 8.160156 6.128906 Z M 8.195312 6.945312 L 8.195312 7.632812 C 8 7.53125 7.804688 7.476562 7.644531 7.445312 L 7.644531 6.632812 C 7.796875 6.738281 7.976562 6.84375 8.195312 6.945312 Z M 15.804688 6.945312 C 16.023438 6.84375 16.203125 6.738281 16.355469 6.632812 L 16.355469 7.445312 C 16.195312 7.476562 16 7.53125 15.804688 7.632812 Z M 9.429688 12.523438 C 8.710938 11.90625 8.289062 10.976562 8.265625 9.976562 C 8.261719 9.78125 8.105469 9.632812 7.914062 9.632812 L 7.632812 9.632812 C 7.421875 9.632812 7.246094 9.457031 7.246094 9.242188 L 7.246094 8.421875 C 7.246094 8.304688 7.296875 8.195312 7.390625 8.125 C 7.515625 8.132812 7.742188 8.171875 7.941406 8.296875 C 7.945312 8.296875 7.945312 8.296875 7.945312 8.296875 C 7.976562 8.316406 8 8.335938 8.027344 8.359375 C 8.03125 8.359375 8.03125 8.363281 8.035156 8.367188 C 8.046875 8.375 8.0625 8.390625 8.070312 8.398438 C 8.085938 8.410156 8.09375 8.421875 8.105469 8.429688 C 8.109375 8.429688 8.109375 8.433594 8.117188 8.4375 C 8.125 8.445312 8.132812 8.449219 8.140625 8.453125 C 8.144531 8.457031 8.148438 8.460938 8.148438 8.460938 C 8.164062 8.46875 8.175781 8.476562 8.1875 8.484375 C 8.203125 8.492188 8.210938 8.496094 8.226562 8.5 C 8.230469 8.503906 8.234375 8.507812 8.234375 8.507812 C 8.25 8.507812 8.257812 8.515625 8.265625 8.515625 C 8.273438 8.515625 8.273438 8.519531 8.28125 8.519531 C 8.292969 8.523438 8.304688 8.527344 8.320312 8.53125 C 8.335938 8.53125 8.347656 8.535156 8.359375 8.539062 C 8.367188 8.539062 8.367188 8.539062 8.375 8.539062 C 8.382812 8.539062 8.394531 8.539062 8.40625 8.539062 C 8.40625 8.539062 8.410156 8.539062 8.414062 8.539062 C 8.429688 8.539062 8.445312 8.539062 8.460938 8.539062 C 8.476562 8.535156 8.488281 8.53125 8.5 8.53125 C 8.507812 8.53125 8.507812 8.53125 8.515625 8.527344 C 8.523438 8.523438 8.535156 8.523438 8.546875 8.519531 C 8.546875 8.519531 8.554688 8.515625 8.558594 8.515625 C 8.570312 8.511719 8.585938 8.507812 8.601562 8.5 C 8.78125 8.425781 8.898438 8.25 8.898438 8.054688 L 8.898438 7.210938 C 9.804688 7.5 10.914062 7.648438 12 7.648438 C 13.085938 7.648438 14.195312 7.5 15.101562 7.210938 L 15.101562 8.054688 C 15.101562 8.25 15.21875 8.425781 15.398438 8.5 C 15.414062 8.507812 15.429688 8.511719 15.441406 8.515625 C 15.445312 8.515625 15.453125 8.519531 15.453125 8.519531 C 15.464844 8.523438 15.476562 8.523438 15.484375 8.53125 C 15.492188 8.53125 15.492188 8.53125 15.5 8.53125 C 15.523438 8.539062 15.554688 8.539062 15.585938 8.539062 C 15.589844 8.539062 15.59375 8.539062 15.59375 8.539062 C 15.605469 8.539062 15.617188 8.539062 15.625 8.539062 C 15.632812 8.539062 15.632812 8.539062 15.640625 8.539062 C 15.664062 8.53125 15.695312 8.527344 15.71875 8.519531 C 15.726562 8.519531 15.726562 8.515625 15.734375 8.515625 C 15.742188 8.515625 15.75 8.507812 15.765625 8.507812 C 15.765625 8.503906 15.769531 8.503906 15.773438 8.5 C 15.789062 8.496094 15.796875 8.492188 15.8125 8.484375 C 15.824219 8.476562 15.835938 8.46875 15.851562 8.460938 C 15.851562 8.460938 15.855469 8.457031 15.859375 8.453125 C 15.867188 8.449219 15.875 8.445312 15.882812 8.4375 C 15.890625 8.433594 15.890625 8.429688 15.894531 8.429688 C 15.90625 8.421875 15.917969 8.410156 15.929688 8.398438 C 15.9375 8.390625 15.953125 8.375 15.964844 8.367188 C 15.96875 8.363281 15.96875 8.359375 15.976562 8.359375 C 15.984375 8.347656 15.996094 8.335938 16.007812 8.328125 C 16.007812 8.328125 16.011719 8.328125 16.011719 8.328125 C 16.023438 8.320312 16.039062 8.308594 16.050781 8.300781 C 16.054688 8.296875 16.058594 8.296875 16.0625 8.292969 C 16.074219 8.285156 16.085938 8.28125 16.097656 8.273438 C 16.101562 8.273438 16.101562 8.269531 16.101562 8.269531 C 16.117188 8.261719 16.132812 8.253906 16.144531 8.25 C 16.148438 8.246094 16.152344 8.242188 16.15625 8.242188 C 16.167969 8.234375 16.179688 8.230469 16.195312 8.226562 C 16.195312 8.226562 16.195312 8.222656 16.195312 8.222656 C 16.210938 8.21875 16.226562 8.210938 16.242188 8.203125 C 16.242188 8.203125 16.246094 8.203125 16.25 8.203125 C 16.265625 8.195312 16.273438 8.191406 16.289062 8.1875 C 16.289062 8.1875 16.289062 8.1875 16.292969 8.1875 C 16.304688 8.179688 16.320312 8.179688 16.335938 8.171875 C 16.335938 8.171875 16.335938 8.171875 16.339844 8.171875 C 16.445312 8.140625 16.546875 8.128906 16.609375 8.125 C 16.703125 8.195312 16.753906 8.304688 16.753906 8.421875 L 16.753906 9.242188 C 16.753906 9.457031 16.578125 9.632812 16.367188 9.632812 L 16.085938 9.632812 C 15.894531 9.632812 15.738281 9.78125 15.734375 9.976562 C 15.710938 10.976562 15.289062 11.90625 14.570312 12.523438 C 13.820312 13.167969 12.957031 13.5 12 13.507812 C 11.042969 13.5 10.179688 13.167969 9.429688 12.523438 Z M 10.253906 17.296875 C 10.195312 17.320312 10.132812 17.304688 10.097656 17.253906 L 8.679688 15.269531 L 9.046875 15.203125 C 9.070312 15.195312 9.089844 15.203125 9.105469 15.210938 L 9.195312 15.28125 C 9.199219 15.28125 9.199219 15.28125 9.199219 15.28125 L 11.296875 16.851562 Z M 11.140625 23.296875 L 11.78125 18.6875 L 12.21875 18.6875 L 12.859375 23.296875 Z M 20.101562 23.296875 L 18.695312 23.296875 L 18.695312 20.445312 C 18.695312 20.25 18.535156 20.09375 18.34375 20.09375 C 18.148438 20.09375 17.992188 20.25 17.992188 20.445312 L 17.992188 23.296875 L 13.570312 23.296875 L 12.898438 18.445312 L 13.363281 17.898438 L 13.46875 17.945312 C 13.578125 17.992188 13.6875 18.011719 13.796875 18.011719 C 14.0625 18.011719 14.3125 17.886719 14.476562 17.664062 L 16.085938 15.410156 L 18.109375 15.789062 C 18.21875 15.820312 18.320312 15.855469 18.421875 15.898438 C 18.046875 16.3125 18.023438 16.949219 18.382812 17.398438 L 18.765625 17.875 C 18.960938 18.113281 19.234375 18.265625 19.546875 18.296875 C 19.585938 18.300781 19.628906 18.304688 19.671875 18.304688 C 19.929688 18.304688 20.179688 18.21875 20.390625 18.050781 C 20.484375 18.371094 20.539062 18.707031 20.539062 19.046875 L 20.539062 22.859375 C 20.539062 23.101562 20.34375 23.296875 20.101562 23.296875 Z M 20.101562 23.296875 "/>
<path style=" stroke:none;fill-rule:nonzero;fill:rgb(38.431373%,38.431373%,38.431373%);fill-opacity:1;" d="M 16.800781 20.09375 L 14.949219 20.09375 C 14.632812 20.09375 14.375 20.351562 14.375 20.667969 L 14.375 21.65625 C 14.375 21.96875 14.632812 22.226562 14.949219 22.226562 L 16.800781 22.226562 C 17.117188 22.226562 17.375 21.96875 17.375 21.65625 L 17.375 20.667969 C 17.375 20.351562 17.117188 20.09375 16.800781 20.09375 Z M 15.078125 21.523438 L 15.078125 20.796875 L 16.671875 20.796875 L 16.671875 21.523438 Z M 15.078125 21.523438 "/>
<path style=" stroke:none;fill-rule:nonzero;fill:rgb(38.431373%,38.431373%,38.431373%);fill-opacity:1;" d="M 9.050781 20.09375 L 7.199219 20.09375 C 6.882812 20.09375 6.625 20.351562 6.625 20.667969 L 6.625 21.65625 C 6.625 21.96875 6.882812 22.226562 7.199219 22.226562 L 9.050781 22.226562 C 9.367188 22.226562 9.625 21.96875 9.625 21.65625 L 9.625 20.667969 C 9.625 20.351562 9.367188 20.09375 9.050781 20.09375 Z M 8.921875 21.523438 L 7.328125 21.523438 L 7.328125 20.796875 L 8.921875 20.796875 Z M 8.921875 21.523438 "/>
</g>
</svg>
