<?xml version="1.0" encoding="UTF-8"?>
<svg xmlns="http://www.w3.org/2000/svg" xmlns:xlink="http://www.w3.org/1999/xlink" width="24pt" height="24pt" viewBox="0 0 24 24" version="1.1">
<g id="surface1">
<path style=" stroke:none;fill-rule:nonzero;fill:rgb(38.431373%,38.431373%,38.431373%);fill-opacity:1;" d="M 16.21875 21.046875 C 15.960938 21.046875 15.75 21.257812 15.75 21.515625 C 15.75 21.773438 15.960938 21.984375 16.21875 21.984375 C 16.476562 21.984375 16.6875 21.773438 16.6875 21.515625 C 16.6875 21.257812 16.476562 21.046875 16.21875 21.046875 Z M 16.21875 21.046875 "/>
<path style=" stroke:none;fill-rule:nonzero;fill:rgb(38.431373%,38.431373%,38.431373%);fill-opacity:1;" d="M 20.644531 16.867188 C 20.167969 16.164062 19.5 15.625 18.710938 15.3125 L 15.269531 13.953125 C 16.167969 13.078125 16.6875 11.875 16.6875 10.59375 C 16.6875 10.085938 16.609375 9.59375 16.453125 9.125 C 16.59375 9.042969 16.6875 8.890625 16.6875 8.71875 L 16.6875 7.28125 L 17.507812 5.648438 L 18.304688 5.25 C 18.460938 5.167969 18.5625 5.007812 18.5625 4.828125 L 18.5625 3.421875 C 18.5625 3.21875 18.433594 3.039062 18.242188 2.976562 L 16.90625 2.53125 L 13.6875 0.09375 C 13.609375 0.03125 13.507812 0 13.40625 0 L 10.59375 0 C 10.492188 0 10.390625 0.03125 10.3125 0.09375 L 7.09375 2.53125 L 5.757812 2.976562 C 5.566406 3.039062 5.4375 3.21875 5.4375 3.421875 L 5.4375 4.828125 C 5.4375 5.007812 5.539062 5.167969 5.695312 5.25 L 6.492188 5.648438 L 7.3125 7.28125 L 7.3125 8.71875 C 7.3125 8.890625 7.40625 9.042969 7.546875 9.125 C 7.390625 9.59375 7.3125 10.085938 7.3125 10.59375 C 7.3125 11.875 7.832031 13.078125 8.730469 13.953125 L 5.289062 15.3125 C 4.5 15.625 3.832031 16.164062 3.355469 16.867188 C 2.875 17.566406 2.625 18.386719 2.625 19.234375 L 2.625 23.53125 C 2.625 23.789062 2.835938 24 3.09375 24 L 20.90625 24 C 21.164062 24 21.375 23.789062 21.375 23.53125 L 21.375 19.234375 C 21.375 18.386719 21.125 17.566406 20.644531 16.867188 Z M 16.742188 15.546875 L 13.875 20.296875 L 13.875 18.875 C 13.875 18.570312 13.773438 18.273438 13.59375 18.03125 L 12.765625 16.929688 C 13.148438 16.679688 13.40625 16.242188 13.40625 15.75 L 13.40625 15.066406 C 13.757812 14.957031 14.089844 14.804688 14.40625 14.617188 Z M 7.265625 5.085938 C 7.21875 4.996094 7.144531 4.921875 7.054688 4.875 L 6.375 4.539062 L 6.375 3.757812 L 7.460938 3.398438 C 7.507812 3.382812 7.554688 3.359375 7.59375 3.328125 L 10.75 0.9375 L 13.25 0.9375 L 16.40625 3.328125 C 16.445312 3.359375 16.492188 3.382812 16.539062 3.398438 L 17.625 3.757812 L 17.625 4.539062 L 16.945312 4.875 C 16.855469 4.921875 16.78125 4.996094 16.734375 5.085938 L 15.929688 6.703125 L 8.070312 6.703125 Z M 8.25 7.640625 L 15.75 7.640625 L 15.75 8.378906 L 14.523438 8.78125 C 13.703125 9.050781 12.855469 9.1875 11.992188 9.1875 C 11.5625 9.1875 11.132812 9.152344 10.703125 9.085938 C 10.28125 9.015625 9.859375 8.914062 9.449219 8.777344 L 8.546875 8.476562 C 8.503906 8.429688 8.453125 8.390625 8.394531 8.359375 C 8.347656 8.339844 8.296875 8.324219 8.25 8.320312 Z M 8.25 10.59375 C 8.25 10.195312 8.3125 9.804688 8.4375 9.429688 L 9.15625 9.667969 C 9.613281 9.820312 10.085938 9.933594 10.554688 10.007812 C 11.03125 10.085938 11.515625 10.125 11.992188 10.125 C 12.953125 10.125 13.90625 9.972656 14.816406 9.671875 L 15.5625 9.429688 C 15.6875 9.800781 15.75 10.191406 15.75 10.59375 C 15.75 11.835938 15.136719 12.996094 14.105469 13.695312 C 14.101562 13.703125 14.09375 13.707031 14.085938 13.710938 C 13.703125 13.96875 13.28125 14.148438 12.835938 14.25 C 12.289062 14.375 11.710938 14.375 11.164062 14.25 C 10.714844 14.148438 10.289062 13.964844 9.90625 13.703125 C 8.867188 13.007812 8.25 11.84375 8.25 10.59375 Z M 12.46875 15.257812 L 12.46875 15.75 C 12.46875 16.007812 12.257812 16.21875 12 16.21875 C 11.875 16.21875 11.757812 16.171875 11.667969 16.082031 C 11.578125 15.992188 11.53125 15.875 11.53125 15.75 L 11.53125 15.257812 C 11.6875 15.273438 11.84375 15.28125 12 15.28125 C 12.15625 15.28125 12.3125 15.273438 12.46875 15.257812 Z M 9.59375 14.617188 C 9.910156 14.804688 10.242188 14.957031 10.59375 15.066406 L 10.59375 15.75 C 10.59375 16.125 10.742188 16.476562 11.007812 16.742188 C 11.078125 16.8125 11.152344 16.875 11.234375 16.929688 L 10.40625 18.03125 C 10.226562 18.273438 10.125 18.570312 10.125 18.875 L 10.125 20.296875 L 7.257812 15.542969 Z M 3.5625 23.0625 L 3.5625 19.234375 C 3.5625 17.882812 4.375 16.683594 5.636719 16.1875 L 6.375 15.890625 L 10.15625 22.15625 L 10.703125 23.0625 Z M 12.9375 21.847656 L 12.203125 23.0625 L 11.796875 23.0625 L 11.0625 21.847656 L 11.0625 18.875 C 11.0625 18.773438 11.09375 18.671875 11.15625 18.59375 L 12 17.46875 L 12.84375 18.59375 C 12.90625 18.671875 12.9375 18.773438 12.9375 18.875 Z M 13.296875 23.0625 L 17.625 15.894531 L 18.363281 16.1875 C 19.625 16.683594 20.4375 17.882812 20.4375 19.234375 L 20.4375 23.0625 Z M 13.296875 23.0625 "/>
<path style=" stroke:none;fill-rule:nonzero;fill:rgb(38.431373%,38.431373%,38.431373%);fill-opacity:1;" d="M 12 2.015625 C 10.96875 2.015625 10.125 2.859375 10.125 3.890625 C 10.125 4.921875 10.96875 5.765625 12 5.765625 C 13.03125 5.765625 13.875 4.921875 13.875 3.890625 C 13.875 2.859375 13.03125 2.015625 12 2.015625 Z M 12 4.828125 C 11.484375 4.828125 11.0625 4.40625 11.0625 3.890625 C 11.0625 3.375 11.484375 2.953125 12 2.953125 C 12.515625 2.953125 12.9375 3.375 12.9375 3.890625 C 12.9375 4.40625 12.515625 4.828125 12 4.828125 Z M 12 4.828125 "/>
<path style=" stroke:none;fill-rule:nonzero;fill:rgb(38.431373%,38.431373%,38.431373%);fill-opacity:1;" d="M 19.03125 21.046875 L 18.09375 21.046875 C 17.835938 21.046875 17.625 21.257812 17.625 21.515625 C 17.625 21.773438 17.835938 21.984375 18.09375 21.984375 L 19.03125 21.984375 C 19.289062 21.984375 19.5 21.773438 19.5 21.515625 C 19.5 21.257812 19.289062 21.046875 19.03125 21.046875 Z M 19.03125 21.046875 "/>
</g>
</svg>
