<?xml version="1.0" encoding="UTF-8"?>
<svg xmlns="http://www.w3.org/2000/svg" xmlns:xlink="http://www.w3.org/1999/xlink" width="24pt" height="24pt" viewBox="0 0 24 24" version="1.1">
<g id="surface1">
<path style=" stroke:none;fill-rule:nonzero;fill:rgb(38.431373%,38.431373%,38.431373%);fill-opacity:1;" d="M 23.445312 10.410156 L 22.148438 10.289062 C 21.996094 9.765625 21.789062 9.265625 21.515625 8.789062 L 22.335938 7.796875 C 22.539062 7.554688 22.519531 7.207031 22.300781 6.980469 L 20.679688 5.34375 C 20.460938 5.117188 20.101562 5.097656 19.859375 5.296875 L 18.867188 6.121094 C 18.398438 5.851562 17.890625 5.640625 17.375 5.488281 L 17.25 4.195312 C 17.21875 3.886719 16.960938 3.648438 16.640625 3.648438 L 14.617188 3.648438 L 14.617188 1.820312 C 14.617188 1.484375 14.34375 1.210938 14.007812 1.210938 C 13.675781 1.210938 13.398438 1.484375 13.398438 1.820312 L 13.398438 4.867188 L 11.097656 4.867188 C 10.117188 4.867188 9.1875 5.328125 8.585938 6.109375 L 6.078125 9.417969 L 1.859375 10.570312 C 0.761719 10.867188 0.0078125 11.859375 0 13 L 0 14.613281 C 0.0078125 16 1.140625 17.125 2.527344 17.125 L 2.859375 17.125 C 3.3125 18.820312 5.0625 19.820312 6.761719 19.367188 C 7.851562 19.066406 8.710938 18.210938 9.003906 17.125 L 13.398438 17.125 L 13.398438 22.179688 C 13.398438 22.515625 13.675781 22.789062 14.007812 22.789062 C 14.34375 22.789062 14.617188 22.515625 14.617188 22.179688 L 14.617188 20.71875 L 16.640625 20.71875 C 16.960938 20.71875 17.21875 20.476562 17.25 20.164062 L 17.375 18.867188 C 17.898438 18.710938 18.398438 18.507812 18.871094 18.238281 L 19.863281 19.0625 C 20.109375 19.261719 20.460938 19.242188 20.679688 19.023438 L 22.320312 17.382812 C 22.539062 17.164062 22.554688 16.804688 22.355469 16.5625 L 21.53125 15.570312 C 21.800781 15.09375 22.015625 14.59375 22.164062 14.078125 L 23.445312 13.953125 C 23.757812 13.925781 24 13.664062 24 13.34375 L 24 11.015625 C 24 10.703125 23.757812 10.441406 23.445312 10.410156 Z M 5.929688 18.261719 C 4.84375 18.261719 3.960938 17.378906 3.960938 16.296875 C 3.960938 15.210938 4.84375 14.328125 5.929688 14.328125 C 7.011719 14.328125 7.894531 15.210938 7.894531 16.296875 C 7.894531 17.378906 7.015625 18.261719 5.929688 18.261719 Z M 13.398438 15.898438 L 9.085938 15.898438 C 8.875 14.148438 7.285156 12.914062 5.542969 13.121094 C 4.09375 13.296875 2.945312 14.445312 2.765625 15.898438 L 2.523438 15.898438 C 1.804688 15.90625 1.21875 15.328125 1.210938 14.609375 L 1.210938 13 C 1.21875 12.414062 1.609375 11.902344 2.171875 11.742188 L 6.597656 10.539062 C 6.726562 10.5 6.839844 10.429688 6.921875 10.320312 L 9.5625 6.851562 C 9.929688 6.371094 10.5 6.09375 11.105469 6.09375 L 13.398438 6.09375 Z M 14.617188 9.59375 C 16.046875 9.117188 17.585938 9.890625 18.0625 11.324219 C 18.535156 12.757812 17.761719 14.289062 16.328125 14.765625 C 15.777344 14.945312 15.171875 14.945312 14.617188 14.765625 Z M 22.78125 12.785156 L 21.625 12.894531 C 21.363281 12.921875 21.140625 13.117188 21.085938 13.371094 C 20.9375 14.054688 20.664062 14.699219 20.277344 15.28125 C 20.132812 15.507812 20.148438 15.796875 20.320312 16 L 21.0625 16.90625 L 20.210938 17.757812 L 19.3125 17.019531 C 19.101562 16.851562 18.8125 16.828125 18.585938 16.984375 C 18.007812 17.367188 17.359375 17.640625 16.679688 17.789062 C 16.414062 17.84375 16.226562 18.0625 16.203125 18.320312 L 16.09375 19.492188 L 14.617188 19.492188 L 14.617188 16.027344 C 16.746094 16.5 18.851562 15.164062 19.320312 13.035156 C 19.796875 10.910156 18.457031 8.804688 16.328125 8.328125 C 15.765625 8.199219 15.179688 8.199219 14.617188 8.328125 L 14.617188 4.875 L 16.085938 4.875 L 16.203125 6.039062 C 16.226562 6.296875 16.421875 6.515625 16.679688 6.570312 C 17.359375 6.726562 18.007812 7 18.59375 7.375 C 18.816406 7.523438 19.101562 7.503906 19.3125 7.335938 L 20.203125 6.59375 L 21.046875 7.4375 L 20.296875 8.34375 C 20.125 8.554688 20.109375 8.84375 20.257812 9.070312 C 20.644531 9.648438 20.917969 10.296875 21.0625 10.976562 C 21.125 11.238281 21.335938 11.429688 21.605469 11.453125 L 22.78125 11.570312 Z M 22.78125 12.785156 "/>
</g>
</svg>
