<?xml version="1.0" encoding="UTF-8"?>
<svg xmlns="http://www.w3.org/2000/svg" xmlns:xlink="http://www.w3.org/1999/xlink" width="24pt" height="24pt" viewBox="0 0 24 24" version="1.1">
<g id="surface1">
<path style=" stroke:none;fill-rule:nonzero;fill:rgb(38.431373%,38.431373%,38.431373%);fill-opacity:1;" d="M 22.929688 16.835938 C 22.515625 16.117188 21.601562 15.875 20.882812 16.289062 L 17.226562 18.398438 C 17.027344 18.097656 16.726562 17.882812 16.382812 17.789062 L 10.785156 16.289062 C 10.351562 16.171875 9.898438 16.167969 9.46875 16.273438 L 7.5 16.769531 L 7.5 16.125 C 7.5 15.917969 7.332031 15.75 7.125 15.75 L 4.125 15.75 C 3.917969 15.75 3.75 15.917969 3.75 16.125 L 3.75 16.5 L 1.125 16.5 C 0.917969 16.5 0.75 16.667969 0.75 16.875 L 0.75 22.125 C 0.75 22.332031 0.917969 22.5 1.125 22.5 L 3.75 22.5 L 3.75 22.875 C 3.75 23.082031 3.917969 23.25 4.125 23.25 L 7.125 23.25 C 7.332031 23.25 7.5 23.082031 7.5 22.875 L 7.5 22.359375 L 7.984375 22.597656 C 8.347656 22.78125 8.75 22.875 9.15625 22.875 L 14.773438 22.875 C 15.234375 22.875 15.6875 22.753906 16.085938 22.523438 L 22.382812 18.886719 C 23.101562 18.46875 23.34375 17.554688 22.929688 16.835938 Z M 1.5 21.75 L 1.5 17.25 L 3.75 17.25 L 3.75 21.75 Z M 6.75 22.5 L 4.5 22.5 L 4.5 16.5 L 6.75 16.5 Z M 22.007812 18.238281 L 15.710938 21.875 C 15.421875 22.039062 15.101562 22.125 14.773438 22.125 L 9.15625 22.125 C 8.867188 22.125 8.578125 22.058594 8.320312 21.929688 L 7.5 21.515625 L 7.5 17.542969 L 9.648438 17.007812 C 9.960938 16.929688 10.28125 16.929688 10.589844 17.015625 L 16.1875 18.515625 C 16.449219 18.578125 16.65625 18.78125 16.726562 19.042969 C 16.800781 19.304688 16.726562 19.585938 16.53125 19.773438 C 16.339844 19.96875 16.058594 20.039062 15.796875 19.960938 L 11.324219 18.765625 C 11.125 18.710938 10.921875 18.828125 10.867188 19.03125 C 10.8125 19.226562 10.929688 19.433594 11.132812 19.484375 L 15.601562 20.6875 C 15.730469 20.71875 15.859375 20.738281 15.992188 20.738281 C 16.414062 20.742188 16.8125 20.570312 17.09375 20.257812 C 17.378906 19.953125 17.519531 19.539062 17.480469 19.121094 L 21.257812 16.9375 C 21.617188 16.742188 22.070312 16.863281 22.28125 17.214844 C 22.484375 17.570312 22.367188 18.03125 22.007812 18.238281 Z M 22.007812 18.238281 "/>
<path style=" stroke:none;fill-rule:nonzero;fill:rgb(38.431373%,38.431373%,38.431373%);fill-opacity:1;" d="M 10.875 11.625 L 12.28125 11.625 C 12.304688 11.679688 12.324219 11.730469 12.347656 11.78125 L 11.351562 12.777344 C 11.203125 12.921875 11.203125 13.164062 11.351562 13.308594 L 12.941406 14.898438 C 13.085938 15.046875 13.328125 15.046875 13.472656 14.898438 L 14.46875 13.902344 C 14.519531 13.921875 14.570312 13.945312 14.625 13.96875 L 14.625 15.375 C 14.625 15.582031 14.792969 15.75 15 15.75 L 17.25 15.75 C 17.457031 15.75 17.625 15.582031 17.625 15.375 L 17.625 13.96875 C 17.679688 13.945312 17.730469 13.921875 17.78125 13.902344 L 18.777344 14.898438 C 18.925781 15.039062 19.15625 15.039062 19.308594 14.898438 L 20.898438 13.308594 C 21.046875 13.164062 21.046875 12.921875 20.898438 12.777344 L 19.902344 11.78125 C 19.925781 11.730469 19.945312 11.679688 19.96875 11.625 L 21.375 11.625 C 21.582031 11.625 21.75 11.457031 21.75 11.25 L 21.75 9 C 21.75 8.792969 21.582031 8.625 21.375 8.625 L 19.96875 8.625 C 19.945312 8.570312 19.925781 8.519531 19.902344 8.46875 L 20.898438 7.472656 C 21.046875 7.328125 21.046875 7.085938 20.898438 6.941406 L 19.308594 5.351562 C 19.164062 5.203125 18.921875 5.203125 18.777344 5.351562 L 17.78125 6.347656 C 17.730469 6.328125 17.679688 6.304688 17.625 6.28125 L 17.625 4.875 C 17.625 4.667969 17.457031 4.5 17.25 4.5 L 15 4.5 C 14.792969 4.5 14.625 4.667969 14.625 4.875 L 14.625 6.28125 C 14.570312 6.304688 14.519531 6.328125 14.46875 6.347656 L 13.472656 5.351562 C 13.324219 5.210938 13.09375 5.210938 12.941406 5.351562 L 11.351562 6.941406 C 11.203125 7.085938 11.203125 7.328125 11.351562 7.472656 L 12.347656 8.46875 C 12.324219 8.519531 12.304688 8.570312 12.28125 8.625 L 10.875 8.625 C 10.667969 8.625 10.5 8.792969 10.5 9 L 10.5 11.25 C 10.5 11.457031 10.667969 11.625 10.875 11.625 Z M 11.25 9.375 L 12.546875 9.375 C 12.710938 9.375 12.855469 9.269531 12.90625 9.117188 C 12.960938 8.929688 13.039062 8.746094 13.132812 8.570312 C 13.210938 8.425781 13.1875 8.246094 13.070312 8.125 L 12.148438 7.207031 L 13.210938 6.148438 L 14.128906 7.070312 C 14.25 7.1875 14.429688 7.210938 14.574219 7.132812 C 14.75 7.039062 14.929688 6.960938 15.117188 6.90625 C 15.273438 6.851562 15.375 6.710938 15.375 6.546875 L 15.375 5.25 L 16.875 5.25 L 16.875 6.546875 C 16.875 6.710938 16.980469 6.855469 17.132812 6.90625 C 17.320312 6.960938 17.503906 7.039062 17.679688 7.132812 C 17.824219 7.210938 18.003906 7.1875 18.125 7.070312 L 19.042969 6.148438 L 20.101562 7.207031 L 19.179688 8.125 C 19.0625 8.246094 19.039062 8.425781 19.117188 8.570312 C 19.210938 8.746094 19.289062 8.929688 19.34375 9.117188 C 19.394531 9.269531 19.539062 9.375 19.703125 9.375 L 21 9.375 L 21 10.875 L 19.703125 10.875 C 19.539062 10.875 19.394531 10.980469 19.34375 11.132812 C 19.289062 11.320312 19.210938 11.503906 19.117188 11.679688 C 19.039062 11.824219 19.0625 12.003906 19.179688 12.125 L 20.101562 13.042969 L 19.042969 14.101562 L 18.125 13.179688 C 18.003906 13.0625 17.824219 13.039062 17.679688 13.117188 C 17.503906 13.210938 17.320312 13.289062 17.132812 13.34375 C 16.980469 13.394531 16.875 13.539062 16.875 13.703125 L 16.875 15 L 15.375 15 L 15.375 13.703125 C 15.375 13.539062 15.269531 13.394531 15.117188 13.34375 C 14.929688 13.289062 14.746094 13.210938 14.570312 13.117188 C 14.425781 13.039062 14.246094 13.0625 14.125 13.179688 L 13.207031 14.101562 L 12.148438 13.042969 L 13.070312 12.125 C 13.1875 12.003906 13.210938 11.824219 13.132812 11.679688 C 13.039062 11.503906 12.964844 11.320312 12.90625 11.132812 C 12.855469 10.980469 12.710938 10.875 12.546875 10.875 L 11.25 10.875 Z M 11.25 9.375 "/>
<path style=" stroke:none;fill-rule:nonzero;fill:rgb(38.431373%,38.431373%,38.431373%);fill-opacity:1;" d="M 16.125 12.375 C 14.882812 12.375 13.875 11.367188 13.875 10.125 C 13.875 8.882812 14.882812 7.875 16.125 7.875 C 17.367188 7.875 18.375 8.882812 18.375 10.125 C 18.375 11.367188 17.367188 12.375 16.125 12.375 Z M 16.125 8.625 C 15.296875 8.625 14.625 9.296875 14.625 10.125 C 14.625 10.953125 15.296875 11.625 16.125 11.625 C 16.953125 11.625 17.625 10.953125 17.625 10.125 C 17.625 9.296875 16.953125 8.625 16.125 8.625 Z M 16.125 8.625 "/>
<path style=" stroke:none;fill-rule:nonzero;fill:rgb(38.431373%,38.431373%,38.431373%);fill-opacity:1;" d="M 6.75 10.125 L 5.25 10.125 C 5.042969 10.125 4.875 9.957031 4.875 9.75 L 4.875 9.09375 L 4.40625 9.558594 C 4.261719 9.703125 4.023438 9.703125 3.878906 9.558594 L 2.816406 8.496094 C 2.671875 8.351562 2.671875 8.113281 2.816406 7.96875 L 3.28125 7.5 L 2.625 7.5 C 2.417969 7.5 2.25 7.332031 2.25 7.125 L 2.25 5.625 C 2.25 5.417969 2.417969 5.25 2.625 5.25 L 3.28125 5.25 L 2.816406 4.78125 C 2.671875 4.636719 2.671875 4.398438 2.816406 4.253906 L 3.878906 3.191406 C 4.023438 3.046875 4.261719 3.046875 4.40625 3.191406 L 4.875 3.65625 L 4.875 3 C 4.875 2.792969 5.042969 2.625 5.25 2.625 L 6.75 2.625 C 6.957031 2.625 7.125 2.792969 7.125 3 L 7.125 3.65625 L 7.59375 3.191406 C 7.738281 3.046875 7.976562 3.046875 8.121094 3.191406 L 9.183594 4.253906 C 9.328125 4.398438 9.328125 4.636719 9.183594 4.78125 L 8.71875 5.25 L 9.375 5.25 C 9.582031 5.25 9.75 5.417969 9.75 5.625 L 9.75 7.125 C 9.75 7.332031 9.582031 7.5 9.375 7.5 L 8.71875 7.5 L 9.183594 7.96875 C 9.328125 8.113281 9.328125 8.351562 9.183594 8.496094 L 8.121094 9.558594 C 7.976562 9.703125 7.738281 9.703125 7.59375 9.558594 L 7.125 9.09375 L 7.125 9.75 C 7.125 9.957031 6.957031 10.125 6.75 10.125 Z M 5.625 9.375 L 6.375 9.375 L 6.375 8.492188 C 6.375 8.328125 6.484375 8.179688 6.640625 8.132812 C 6.695312 8.117188 6.742188 8.097656 6.792969 8.070312 C 6.9375 7.996094 7.117188 8.023438 7.234375 8.140625 L 7.855469 8.761719 L 8.386719 8.230469 L 7.761719 7.609375 C 7.648438 7.492188 7.617188 7.3125 7.695312 7.167969 C 7.71875 7.117188 7.742188 7.070312 7.757812 7.015625 C 7.804688 6.859375 7.953125 6.75 8.117188 6.75 L 9 6.75 L 9 6 L 8.117188 6 C 7.953125 6 7.808594 5.890625 7.757812 5.734375 C 7.742188 5.679688 7.722656 5.632812 7.695312 5.582031 C 7.621094 5.4375 7.648438 5.257812 7.765625 5.140625 L 8.386719 4.519531 L 7.855469 3.988281 L 7.234375 4.613281 C 7.117188 4.726562 6.9375 4.757812 6.792969 4.679688 C 6.746094 4.65625 6.695312 4.632812 6.640625 4.617188 C 6.484375 4.570312 6.375 4.421875 6.375 4.257812 L 6.375 3.375 L 5.625 3.375 L 5.625 4.257812 C 5.625 4.421875 5.515625 4.570312 5.359375 4.617188 C 5.304688 4.632812 5.257812 4.652344 5.207031 4.679688 C 5.0625 4.753906 4.882812 4.726562 4.765625 4.609375 L 4.144531 3.988281 L 3.613281 4.519531 L 4.238281 5.140625 C 4.351562 5.257812 4.382812 5.4375 4.304688 5.582031 C 4.28125 5.632812 4.257812 5.679688 4.242188 5.734375 C 4.195312 5.890625 4.046875 6 3.882812 6 L 3 6 L 3 6.75 L 3.882812 6.75 C 4.046875 6.75 4.191406 6.859375 4.242188 7.015625 C 4.257812 7.070312 4.277344 7.117188 4.304688 7.167969 C 4.378906 7.3125 4.351562 7.492188 4.234375 7.609375 L 3.613281 8.230469 L 4.144531 8.761719 L 4.765625 8.136719 C 4.882812 8.023438 5.0625 7.992188 5.207031 8.070312 C 5.253906 8.09375 5.304688 8.117188 5.359375 8.132812 C 5.515625 8.179688 5.625 8.328125 5.625 8.492188 Z M 5.625 9.375 "/>
<path style=" stroke:none;fill-rule:nonzero;fill:rgb(38.431373%,38.431373%,38.431373%);fill-opacity:1;" d="M 6 7.875 C 5.171875 7.875 4.5 7.203125 4.5 6.375 C 4.5 5.546875 5.171875 4.875 6 4.875 C 6.828125 4.875 7.5 5.546875 7.5 6.375 C 7.5 7.203125 6.828125 7.875 6 7.875 Z M 6 5.625 C 5.585938 5.625 5.25 5.960938 5.25 6.375 C 5.25 6.789062 5.585938 7.125 6 7.125 C 6.414062 7.125 6.75 6.789062 6.75 6.375 C 6.75 5.960938 6.414062 5.625 6 5.625 Z M 6 5.625 "/>
</g>
</svg>
