<?xml version="1.0" encoding="UTF-8"?>
<svg xmlns="http://www.w3.org/2000/svg" xmlns:xlink="http://www.w3.org/1999/xlink" width="48pt" height="48pt" viewBox="0 0 48 48" version="1.1">
<g id="surface1">
<path style=" stroke:none;fill-rule:nonzero;fill:rgb(38.431373%,38.431373%,38.431373%);fill-opacity:1;" d="M 11.691406 9.75 L 7.5 9.75 C 7.085938 9.75 6.75 10.085938 6.75 10.5 L 6.75 15 C 6.75 15.414062 7.085938 15.75 7.5 15.75 L 12 15.75 C 12.414062 15.75 12.75 15.414062 12.75 15 L 12.75 10.808594 L 14.03125 9.53125 L 12.96875 8.46875 Z M 10.191406 11.25 L 8.25 13.191406 L 8.25 11.25 Z M 11.25 14.25 L 9.308594 14.25 L 11.25 12.308594 Z M 11.25 14.25 "/>
<path style=" stroke:none;fill-rule:nonzero;fill:rgb(38.431373%,38.431373%,38.431373%);fill-opacity:1;" d="M 11.691406 17.25 L 7.5 17.25 C 7.085938 17.25 6.75 17.585938 6.75 18 L 6.75 22.5 C 6.75 22.914062 7.085938 23.25 7.5 23.25 L 12 23.25 C 12.414062 23.25 12.75 22.914062 12.75 22.5 L 12.75 18.308594 L 14.03125 17.03125 L 12.96875 15.96875 Z M 10.191406 18.75 L 8.25 20.691406 L 8.25 18.75 Z M 11.25 21.75 L 9.308594 21.75 L 11.25 19.808594 Z M 11.25 21.75 "/>
<path style=" stroke:none;fill-rule:nonzero;fill:rgb(38.431373%,38.431373%,38.431373%);fill-opacity:1;" d="M 11.691406 24.75 L 7.5 24.75 C 7.085938 24.75 6.75 25.085938 6.75 25.5 L 6.75 30 C 6.75 30.414062 7.085938 30.75 7.5 30.75 L 12 30.75 C 12.414062 30.75 12.75 30.414062 12.75 30 L 12.75 25.808594 L 14.03125 24.53125 L 12.96875 23.46875 Z M 10.191406 26.25 L 8.25 28.191406 L 8.25 26.25 Z M 11.25 29.25 L 9.308594 29.25 L 11.25 27.308594 Z M 11.25 29.25 "/>
<path style=" stroke:none;fill-rule:nonzero;fill:rgb(38.431373%,38.431373%,38.431373%);fill-opacity:1;" d="M 12.96875 30.96875 L 11.691406 32.25 L 7.5 32.25 C 7.085938 32.25 6.75 32.585938 6.75 33 L 6.75 37.5 C 6.75 37.914062 7.085938 38.25 7.5 38.25 L 12 38.25 C 12.414062 38.25 12.75 37.914062 12.75 37.5 L 12.75 33.308594 L 14.03125 32.03125 Z M 10.191406 33.75 L 8.25 35.691406 L 8.25 33.75 Z M 11.25 36.75 L 9.308594 36.75 L 11.25 34.808594 Z M 11.25 36.75 "/>
<path style=" stroke:none;fill-rule:nonzero;fill:rgb(38.431373%,38.431373%,38.431373%);fill-opacity:1;" d="M 15.75 9.75 L 29.25 9.75 L 29.25 11.25 L 15.75 11.25 Z M 15.75 9.75 "/>
<path style=" stroke:none;fill-rule:nonzero;fill:rgb(38.431373%,38.431373%,38.431373%);fill-opacity:1;" d="M 15.75 14.25 L 29.25 14.25 L 29.25 15.75 L 15.75 15.75 Z M 15.75 14.25 "/>
<path style=" stroke:none;fill-rule:nonzero;fill:rgb(38.431373%,38.431373%,38.431373%);fill-opacity:1;" d="M 15.75 17.25 L 29.25 17.25 L 29.25 18.75 L 15.75 18.75 Z M 15.75 17.25 "/>
<path style=" stroke:none;fill-rule:nonzero;fill:rgb(38.431373%,38.431373%,38.431373%);fill-opacity:1;" d="M 15.75 21.75 L 21.75 21.75 L 21.75 23.25 L 15.75 23.25 Z M 15.75 21.75 "/>
<path style=" stroke:none;fill-rule:nonzero;fill:rgb(38.431373%,38.431373%,38.431373%);fill-opacity:1;" d="M 15.75 24.75 L 21.75 24.75 L 21.75 26.25 L 15.75 26.25 Z M 15.75 24.75 "/>
<path style=" stroke:none;fill-rule:nonzero;fill:rgb(38.431373%,38.431373%,38.431373%);fill-opacity:1;" d="M 15.75 29.25 L 21.75 29.25 L 21.75 30.75 L 15.75 30.75 Z M 15.75 29.25 "/>
<path style=" stroke:none;fill-rule:nonzero;fill:rgb(38.431373%,38.431373%,38.431373%);fill-opacity:1;" d="M 46.5 47.25 C 46.914062 47.25 47.25 46.914062 47.25 46.5 L 47.25 34.5 C 47.25 34.085938 46.914062 33.75 46.5 33.75 L 39.75 33.75 L 39.75 22.5 C 39.75 22.085938 39.414062 21.75 39 21.75 L 36.75 21.75 L 36.75 3 C 36.75 2.585938 36.414062 2.25 36 2.25 L 27.75 2.25 L 27.75 1.5 C 27.75 1.085938 27.414062 0.75 27 0.75 L 10.5 0.75 C 10.085938 0.75 9.75 1.085938 9.75 1.5 L 9.75 2.25 L 1.5 2.25 C 1.085938 2.25 0.75 2.585938 0.75 3 L 0.75 45 C 0.75 45.414062 1.085938 45.75 1.5 45.75 L 15.75 45.75 L 15.75 46.5 C 15.75 46.914062 16.085938 47.25 16.5 47.25 Z M 39.75 35.25 L 39.75 38.25 L 38.25 38.25 L 38.25 35.25 Z M 24.75 33.75 L 24.75 23.25 L 29.25 23.25 L 29.25 27 C 29.25 27.414062 29.585938 27.75 30 27.75 L 33 27.75 C 33.414062 27.75 33.75 27.414062 33.75 27 L 33.75 23.25 L 38.25 23.25 L 38.25 33.75 Z M 24.75 35.25 L 24.75 38.25 L 23.25 38.25 L 23.25 35.25 Z M 30.75 23.25 L 32.25 23.25 L 32.25 26.25 L 30.75 26.25 Z M 35.25 3.75 L 35.25 21.75 L 33.75 21.75 L 33.75 6 C 33.75 5.585938 33.414062 5.25 33 5.25 L 27.75 5.25 L 27.75 3.75 Z M 11.25 2.25 L 26.25 2.25 L 26.25 6.75 L 11.25 6.75 Z M 2.25 44.25 L 2.25 3.75 L 9.75 3.75 L 9.75 5.25 L 4.5 5.25 C 4.085938 5.25 3.75 5.585938 3.75 6 L 3.75 40.5 C 3.75 40.914062 4.085938 41.25 4.5 41.25 L 15.75 41.25 L 15.75 44.25 Z M 15.75 34.5 L 15.75 39.75 L 5.25 39.75 L 5.25 6.75 L 9.75 6.75 L 9.75 7.5 C 9.75 7.914062 10.085938 8.25 10.5 8.25 L 27 8.25 C 27.414062 8.25 27.75 7.914062 27.75 7.5 L 27.75 6.75 L 32.25 6.75 L 32.25 21.75 L 24 21.75 C 23.585938 21.75 23.25 22.085938 23.25 22.5 L 23.25 33.75 L 16.5 33.75 C 16.085938 33.75 15.75 34.085938 15.75 34.5 Z M 17.25 35.25 L 21.75 35.25 L 21.75 39 C 21.75 39.414062 22.085938 39.75 22.5 39.75 L 25.5 39.75 C 25.914062 39.75 26.25 39.414062 26.25 39 L 26.25 35.25 L 30.75 35.25 L 30.75 45.75 L 17.25 45.75 Z M 45.75 45.75 L 32.25 45.75 L 32.25 35.25 L 36.75 35.25 L 36.75 39 C 36.75 39.414062 37.085938 39.75 37.5 39.75 L 40.5 39.75 C 40.914062 39.75 41.25 39.414062 41.25 39 L 41.25 35.25 L 45.75 35.25 Z M 45.75 45.75 "/>
<path style=" stroke:none;fill-rule:nonzero;fill:rgb(38.431373%,38.431373%,38.431373%);fill-opacity:1;" d="M 41.25 42.75 L 44.25 42.75 L 44.25 44.25 L 41.25 44.25 Z M 41.25 42.75 "/>
<path style=" stroke:none;fill-rule:nonzero;fill:rgb(38.431373%,38.431373%,38.431373%);fill-opacity:1;" d="M 33.75 30.75 L 36.75 30.75 L 36.75 32.25 L 33.75 32.25 Z M 33.75 30.75 "/>
<path style=" stroke:none;fill-rule:nonzero;fill:rgb(38.431373%,38.431373%,38.431373%);fill-opacity:1;" d="M 26.25 42.75 L 29.25 42.75 L 29.25 44.25 L 26.25 44.25 Z M 26.25 42.75 "/>
</g>
</svg>
