<?xml version="1.0" encoding="UTF-8"?>
<svg xmlns="http://www.w3.org/2000/svg" xmlns:xlink="http://www.w3.org/1999/xlink" width="48pt" height="48pt" viewBox="0 0 48 48" version="1.1">
<g id="surface1">
<path style=" stroke:none;fill-rule:nonzero;fill:rgb(38.431373%,38.431373%,38.431373%);fill-opacity:1;" d="M 45.601562 32 L 35.199219 32 C 35.199219 30.640625 34.160156 29.601562 32.800781 29.601562 L 32 29.601562 C 30.640625 29.601562 29.601562 30.640625 29.601562 32 L 28.800781 32 C 27.441406 32 26.398438 33.039062 26.398438 34.398438 L 26.398438 44 C 26.398438 45.359375 27.441406 46.398438 28.800781 46.398438 L 29.761719 46.398438 C 30.078125 47.359375 30.960938 48 32 48 L 32.800781 48 C 33.839844 48 34.71875 47.359375 35.039062 46.398438 L 45.601562 46.398438 C 46.960938 46.398438 48 45.359375 48 44 L 48 34.398438 C 48 33.039062 46.960938 32 45.601562 32 Z M 28 44 L 28 34.398438 C 28 33.921875 28.320312 33.601562 28.800781 33.601562 L 29.601562 33.601562 L 29.601562 44.800781 L 28.800781 44.800781 C 28.320312 44.800781 28 44.480469 28 44 Z M 33.601562 45.601562 C 33.601562 46.078125 33.28125 46.398438 32.800781 46.398438 L 32 46.398438 C 31.519531 46.398438 31.199219 46.078125 31.199219 45.601562 L 31.199219 32 C 31.199219 31.519531 31.519531 31.199219 32 31.199219 L 32.800781 31.199219 C 33.28125 31.199219 33.601562 31.519531 33.601562 32 Z M 46.398438 44 C 46.398438 44.480469 46.078125 44.800781 45.601562 44.800781 L 35.199219 44.800781 L 35.199219 33.601562 L 45.601562 33.601562 C 46.078125 33.601562 46.398438 33.921875 46.398438 34.398438 Z M 46.398438 44 "/>
<path style=" stroke:none;fill-rule:nonzero;fill:rgb(38.431373%,38.431373%,38.431373%);fill-opacity:1;" d="M 3.199219 33.601562 L 4.800781 33.601562 L 4.800781 35.199219 L 3.199219 35.199219 Z M 3.199219 33.601562 "/>
<path style=" stroke:none;fill-rule:nonzero;fill:rgb(38.431373%,38.431373%,38.431373%);fill-opacity:1;" d="M 6.398438 33.601562 L 8 33.601562 L 8 35.199219 L 6.398438 35.199219 Z M 6.398438 33.601562 "/>
<path style=" stroke:none;fill-rule:nonzero;fill:rgb(38.431373%,38.431373%,38.431373%);fill-opacity:1;" d="M 21.601562 48 L 21.601562 38.398438 C 22.960938 38.398438 24 37.359375 24 36 L 24 27.199219 L 21.601562 27.199219 L 21.601562 24 L 20 24 L 20 27.199219 L 4 27.199219 L 4 20.800781 L 16.960938 20.800781 C 17.28125 21.761719 18.160156 22.398438 19.199219 22.398438 L 27.839844 22.398438 L 27.28125 26.398438 L 24.800781 26.398438 L 24.800781 28 L 39.199219 28 L 39.199219 26.398438 L 36.71875 26.398438 L 36.160156 22.398438 L 44.800781 22.398438 C 46.160156 22.398438 47.199219 21.359375 47.199219 20 L 47.199219 2.398438 C 47.199219 1.039062 46.160156 0 44.800781 0 L 19.199219 0 C 17.839844 0 16.800781 1.039062 16.800781 2.398438 L 16.800781 19.199219 L 2.398438 19.199219 L 2.398438 27.199219 L 0 27.199219 L 0 36 C 0 37.359375 1.039062 38.398438 2.398438 38.398438 L 2.398438 48 Z M 35.039062 26.398438 L 28.878906 26.398438 L 29.441406 22.398438 L 34.480469 22.398438 Z M 44.800781 20.800781 L 19.199219 20.800781 C 18.71875 20.800781 18.398438 20.480469 18.398438 20 L 18.398438 19.199219 L 45.601562 19.199219 L 45.601562 20 C 45.601562 20.480469 45.28125 20.800781 44.800781 20.800781 Z M 19.199219 1.601562 L 44.800781 1.601562 C 45.28125 1.601562 45.601562 1.921875 45.601562 2.398438 L 45.601562 17.601562 L 18.398438 17.601562 L 18.398438 4.800781 L 44 4.800781 L 44 3.199219 L 18.398438 3.199219 L 18.398438 2.398438 C 18.398438 1.921875 18.71875 1.601562 19.199219 1.601562 Z M 1.601562 36 L 1.601562 28.800781 L 22.398438 28.800781 L 22.398438 36 C 22.398438 36.480469 22.078125 36.800781 21.601562 36.800781 L 2.398438 36.800781 C 1.921875 36.800781 1.601562 36.480469 1.601562 36 Z M 20 38.398438 L 20 46.398438 L 4 46.398438 L 4 38.398438 Z M 20 38.398438 "/>
<path style=" stroke:none;fill-rule:nonzero;fill:rgb(38.431373%,38.431373%,38.431373%);fill-opacity:1;" d="M 5.601562 43.199219 L 18.398438 43.199219 L 18.398438 44.800781 L 5.601562 44.800781 Z M 5.601562 43.199219 "/>
<path style=" stroke:none;fill-rule:nonzero;fill:rgb(38.431373%,38.431373%,38.431373%);fill-opacity:1;" d="M 36.800781 35.199219 L 38.398438 35.199219 L 38.398438 36.800781 L 36.800781 36.800781 Z M 36.800781 35.199219 "/>
<path style=" stroke:none;fill-rule:nonzero;fill:rgb(38.431373%,38.431373%,38.431373%);fill-opacity:1;" d="M 40 35.199219 L 41.601562 35.199219 L 41.601562 36.800781 L 40 36.800781 Z M 40 35.199219 "/>
<path style=" stroke:none;fill-rule:nonzero;fill:rgb(38.431373%,38.431373%,38.431373%);fill-opacity:1;" d="M 43.199219 35.199219 L 44.800781 35.199219 L 44.800781 36.800781 L 43.199219 36.800781 Z M 43.199219 35.199219 "/>
<path style=" stroke:none;fill-rule:nonzero;fill:rgb(38.431373%,38.431373%,38.431373%);fill-opacity:1;" d="M 36.800781 38.398438 L 38.398438 38.398438 L 38.398438 40 L 36.800781 40 Z M 36.800781 38.398438 "/>
<path style=" stroke:none;fill-rule:nonzero;fill:rgb(38.431373%,38.431373%,38.431373%);fill-opacity:1;" d="M 40 38.398438 L 41.601562 38.398438 L 41.601562 40 L 40 40 Z M 40 38.398438 "/>
<path style=" stroke:none;fill-rule:nonzero;fill:rgb(38.431373%,38.431373%,38.431373%);fill-opacity:1;" d="M 43.199219 38.398438 L 44.800781 38.398438 L 44.800781 40 L 43.199219 40 Z M 43.199219 38.398438 "/>
<path style=" stroke:none;fill-rule:nonzero;fill:rgb(38.431373%,38.431373%,38.431373%);fill-opacity:1;" d="M 36.800781 41.601562 L 38.398438 41.601562 L 38.398438 43.199219 L 36.800781 43.199219 Z M 36.800781 41.601562 "/>
<path style=" stroke:none;fill-rule:nonzero;fill:rgb(38.431373%,38.431373%,38.431373%);fill-opacity:1;" d="M 40 41.601562 L 41.601562 41.601562 L 41.601562 43.199219 L 40 43.199219 Z M 40 41.601562 "/>
<path style=" stroke:none;fill-rule:nonzero;fill:rgb(38.431373%,38.431373%,38.431373%);fill-opacity:1;" d="M 43.199219 41.601562 L 44.800781 41.601562 L 44.800781 43.199219 L 43.199219 43.199219 Z M 43.199219 41.601562 "/>
<path style=" stroke:none;fill-rule:nonzero;fill:rgb(38.431373%,38.431373%,38.431373%);fill-opacity:1;" d="M 5.601562 40 L 18.398438 40 L 18.398438 41.601562 L 5.601562 41.601562 Z M 5.601562 40 "/>
<path style=" stroke:none;fill-rule:nonzero;fill:rgb(38.431373%,38.431373%,38.431373%);fill-opacity:1;" d="M 4.800781 17.601562 L 12 17.601562 C 13.359375 17.601562 14.398438 16.558594 14.398438 15.199219 L 14.398438 2.398438 C 14.398438 1.039062 13.359375 0 12 0 L 4.800781 0 C 3.441406 0 2.398438 1.039062 2.398438 2.398438 L 2.398438 15.199219 C 2.398438 16.558594 3.441406 17.601562 4.800781 17.601562 Z M 12 16 L 4.800781 16 C 4.320312 16 4 15.679688 4 15.199219 L 4 14.398438 L 12.800781 14.398438 L 12.800781 15.199219 C 12.800781 15.679688 12.480469 16 12 16 Z M 4 12.800781 L 4 4.800781 L 12.800781 4.800781 L 12.800781 12.800781 Z M 4.800781 1.601562 L 12 1.601562 C 12.480469 1.601562 12.800781 1.921875 12.800781 2.398438 L 12.800781 3.199219 L 4 3.199219 L 4 2.398438 C 4 1.921875 4.320312 1.601562 4.800781 1.601562 Z M 4.800781 1.601562 "/>
</g>
</svg>
