<?xml version="1.0" encoding="UTF-8"?>
<svg xmlns="http://www.w3.org/2000/svg" xmlns:xlink="http://www.w3.org/1999/xlink" width="54pt" height="48pt" viewBox="0 0 54 48" version="1.1">
<g id="surface1">
<path style=" stroke:none;fill-rule:nonzero;fill:rgb(38.431373%,38.431373%,38.431373%);fill-opacity:1;" d="M 24.050781 1.738281 L 22.757812 2.699219 L 18.515625 2.699219 C 14.328125 2.699219 14.289062 2.699219 13.75 3.164062 L 13.210938 3.628906 L 13.210938 8.082031 C 13.210938 10.535156 13.152344 12.539062 13.074219 12.539062 C 13 12.539062 12.632812 12.328125 12.265625 12.078125 C 10.027344 10.574219 6.191406 11.171875 4.109375 13.332031 C 3.664062 13.792969 3.066406 14.699219 2.757812 15.335938 C 2.3125 16.300781 2.238281 16.746094 2.238281 18.136719 C 2.238281 19.5625 2.3125 19.929688 2.796875 20.933594 C 3.105469 21.570312 3.78125 22.496094 4.28125 22.996094 L 5.207031 23.902344 L 5.207031 27.203125 L 8.679688 27.203125 L 8.679688 27.78125 C 8.679688 28.089844 8.601562 28.359375 8.484375 28.359375 C 8.390625 28.359375 8.136719 28.554688 7.90625 28.785156 C 7.328125 29.402344 7.367188 30.945312 7.964844 31.484375 L 8.410156 31.890625 L 7.964844 32.335938 C 7.308594 32.992188 7.347656 34.359375 8.003906 35.035156 L 8.503906 35.535156 L 8.003906 35.921875 C 7.617188 36.230469 7.519531 36.464844 7.519531 37.214844 C 7.519531 38.082031 7.925781 38.972656 8.3125 38.972656 C 8.484375 38.972656 9.140625 39.609375 10.316406 40.9375 C 10.53125 41.191406 10.894531 41.285156 11.667969 41.285156 C 12.574219 41.285156 12.765625 41.226562 13.039062 40.804688 L 13.347656 40.320312 L 13.730469 40.804688 C 14.039062 41.210938 14.269531 41.285156 15.140625 41.285156 C 16.007812 41.285156 16.238281 41.210938 16.546875 40.804688 C 16.992188 40.261719 17.164062 40.1875 17.164062 40.609375 C 17.164062 41.015625 17.800781 41.285156 18.804688 41.285156 C 19.554688 41.285156 19.804688 41.191406 20.25 40.707031 C 21.234375 39.664062 21.425781 39.878906 21.347656 41.863281 L 21.292969 43.601562 L 24.667969 43.601562 L 25.554688 44.546875 C 26.035156 45.066406 26.941406 45.742188 27.539062 46.03125 C 28.484375 46.496094 28.890625 46.574219 30.375 46.574219 C 31.859375 46.589844 32.265625 46.515625 33.210938 46.070312 C 34.675781 45.394531 35.949219 44.179688 36.585938 42.847656 C 37.066406 41.882812 37.125 41.554688 37.125 39.839844 C 37.125 38.371094 37.046875 37.753906 36.796875 37.253906 C 36.605469 36.886719 36.449219 36.558594 36.449219 36.519531 C 36.449219 36.5 36.796875 36.464844 37.242188 36.464844 C 37.878906 36.464844 38.148438 36.347656 38.6875 35.808594 L 39.34375 35.152344 L 39.34375 25.679688 L 39.941406 25.371094 C 40.867188 24.886719 41.65625 23.460938 41.65625 22.28125 C 41.65625 21.703125 41.542969 21.125 41.347656 20.875 C 41.195312 20.644531 41.097656 20.449219 41.136719 20.449219 C 41.367188 20.449219 51.878906 17.191406 52.207031 17.015625 C 52.628906 16.785156 53.421875 15.335938 53.421875 14.796875 C 53.421875 14.160156 52.882812 13.214844 51.300781 10.996094 C 50.433594 9.78125 49.601562 8.664062 49.488281 8.527344 C 49.292969 8.316406 48.851562 8.46875 47.097656 9.335938 C 45.917969 9.9375 44.917969 10.417969 44.859375 10.417969 C 44.820312 10.417969 43.703125 10.9375 42.390625 11.574219 L 40.019531 12.734375 L 39.691406 12.328125 C 39.402344 11.980469 39.34375 11.519531 39.34375 9.242188 C 39.34375 6.578125 39.34375 6.558594 38.785156 5.941406 C 38.359375 5.460938 38.070312 5.324219 37.394531 5.285156 C 36.546875 5.246094 36.546875 5.246094 36.429688 4.457031 C 36.371094 3.953125 36.140625 3.453125 35.832031 3.144531 L 35.332031 2.664062 L 31.746094 2.683594 C 29.660156 2.699219 28.15625 2.644531 28.15625 2.527344 C 28.15625 2.355469 25.746094 0.773438 25.496094 0.773438 C 25.417969 0.773438 24.78125 1.214844 24.050781 1.738281 Z M 26.5 2.257812 C 27.136719 2.664062 28.003906 3.703125 30.046875 6.558594 C 31.550781 8.625 33.558594 11.421875 34.539062 12.773438 C 35.503906 14.140625 36.355469 15.242188 36.429688 15.242188 C 36.625 15.242188 48.484375 9.628906 48.753906 9.394531 C 48.890625 9.300781 49.023438 9.242188 49.042969 9.28125 C 50.144531 10.707031 52.4375 14.101562 52.535156 14.410156 C 52.613281 14.664062 52.535156 15.125 52.359375 15.511719 C 51.957031 16.378906 52.265625 16.261719 42.429688 19.214844 C 41.214844 19.582031 40.09375 19.929688 39.960938 19.96875 C 39.785156 20.027344 39.902344 20.296875 40.308594 20.855469 C 41.039062 21.878906 41.078125 22.785156 40.402344 23.789062 C 39.59375 24.945312 38.339844 25.410156 37.492188 24.808594 C 37.277344 24.65625 36.605469 23.863281 36.007812 23.015625 C 34.828125 21.414062 34.40625 20.835938 29.699219 14.277344 C 28.078125 12 26.441406 9.78125 26.09375 9.335938 C 25.746094 8.894531 25.457031 8.488281 25.457031 8.390625 C 25.457031 8.316406 25.128906 7.832031 24.742188 7.332031 C 23.585938 5.863281 22.46875 4.246094 22.46875 4.070312 C 22.46875 3.878906 25.265625 1.753906 25.515625 1.738281 C 25.59375 1.738281 26.035156 1.96875 26.5 2.257812 Z M 21.542969 3.570312 C 21.195312 3.820312 21.253906 3.9375 22.546875 5.730469 C 23.296875 6.773438 25.496094 9.839844 27.445312 12.539062 C 29.390625 15.242188 32.035156 18.925781 33.324219 20.71875 L 35.679688 23.980469 L 35.679688 28.050781 C 35.679688 31.425781 35.621094 32.199219 35.371094 32.566406 L 35.082031 32.992188 L 14.484375 32.992188 L 14.195312 32.566406 C 13.945312 32.199219 13.886719 31.371094 13.886719 27.433594 C 13.886719 23.941406 13.828125 22.785156 13.652344 22.882812 C 13.519531 22.957031 13.5 22.9375 13.578125 22.785156 C 13.652344 22.667969 13.789062 22.609375 13.886719 22.667969 C 14.136719 22.824219 14.964844 21.644531 15.429688 20.449219 C 16.257812 18.386719 15.738281 15.375 14.289062 13.71875 C 13.90625 13.273438 13.886719 13.042969 13.886719 8.777344 C 13.886719 4.785156 13.925781 4.246094 14.234375 3.878906 C 14.542969 3.492188 14.773438 3.472656 17.839844 3.414062 C 19.652344 3.394531 21.292969 3.355469 21.503906 3.335938 C 21.871094 3.300781 21.871094 3.300781 21.542969 3.570312 Z M 35.351562 3.898438 C 35.621094 4.226562 35.679688 4.707031 35.679688 7.15625 L 35.679688 10.03125 L 34.886719 10.4375 C 34.40625 10.667969 34.039062 10.765625 33.960938 10.648438 C 33.828125 10.4375 32.726562 8.914062 30.546875 5.882812 C 29.679688 4.6875 28.949219 3.644531 28.871094 3.550781 C 28.8125 3.453125 30.085938 3.394531 31.878906 3.433594 C 34.753906 3.492188 35.023438 3.53125 35.351562 3.898438 Z M 38.089844 6.464844 C 38.53125 6.886719 38.570312 7.0625 38.570312 8.816406 L 38.550781 10.707031 L 38.167969 10.246094 C 37.953125 9.992188 37.722656 9.644531 37.625 9.492188 C 37.511719 9.28125 37.375 9.261719 37.066406 9.433594 C 36.855469 9.550781 36.605469 9.644531 36.507812 9.644531 C 36.429688 9.644531 36.371094 8.816406 36.410156 7.8125 L 36.46875 5.980469 L 37.046875 5.980469 C 37.394531 5.980469 37.800781 6.15625 38.089844 6.464844 Z M 37.878906 11.171875 C 38.359375 11.808594 38.570312 12.308594 38.570312 12.753906 C 38.570312 13.351562 38.496094 13.445312 37.625 13.851562 C 37.105469 14.082031 36.625 14.277344 36.566406 14.277344 C 36.371094 14.277344 36.429688 13.542969 36.644531 13.410156 C 36.875 13.253906 37.605469 11.863281 37.605469 11.574219 C 37.605469 11.152344 36.738281 11.460938 36.679688 11.902344 C 36.644531 12.15625 36.527344 12.347656 36.410156 12.347656 C 36.296875 12.347656 36.257812 12.117188 36.335938 11.75 C 36.390625 11.421875 36.449219 10.976562 36.449219 10.785156 C 36.449219 10.609375 36.605469 10.398438 36.796875 10.359375 C 36.972656 10.300781 37.144531 10.261719 37.164062 10.246094 C 37.183594 10.246094 37.492188 10.648438 37.878906 11.171875 Z M 35.679688 11.960938 C 35.679688 12.480469 35.640625 12.925781 35.601562 12.925781 C 35.5625 12.925781 35.3125 12.578125 35.023438 12.15625 L 34.503906 11.382812 L 34.945312 11.191406 C 35.660156 10.917969 35.679688 10.9375 35.679688 11.960938 Z M 8.679688 12.597656 C 8.679688 13.214844 8.621094 13.253906 7.597656 13.582031 C 4.222656 14.644531 3.164062 19.042969 5.726562 21.453125 C 7.734375 23.363281 11.28125 23.074219 12.785156 20.894531 C 13.460938 19.890625 13.691406 19.234375 13.691406 18.191406 C 13.691406 15.859375 12.148438 13.910156 9.933594 13.425781 C 9.429688 13.3125 9.355469 13.214844 9.371094 12.675781 C 9.390625 12.117188 9.449219 12.058594 9.953125 12.117188 C 10.761719 12.210938 12.363281 12.964844 13.132812 13.660156 C 14.136719 14.546875 14.886719 16.148438 15.003906 17.710938 C 15.082031 18.808594 15.003906 19.214844 14.617188 20.21875 C 14.058594 21.589844 13.25 22.628906 12.476562 22.976562 C 11.9375 23.210938 11.9375 23.226562 11.976562 24.773438 L 12.015625 26.335938 L 9.007812 26.390625 L 5.980469 26.449219 L 6.074219 24.925781 L 6.152344 23.421875 L 5.246094 22.765625 C 4.589844 22.28125 4.144531 21.703125 3.664062 20.757812 C 3.085938 19.601562 3.007812 19.273438 3.027344 18.058594 C 3.066406 15.28125 4.859375 12.945312 7.519531 12.230469 C 8.71875 11.902344 8.679688 11.882812 8.679688 12.597656 Z M 10.820312 14.585938 C 11.53125 14.953125 12.457031 16.050781 12.730469 16.898438 C 13.769531 20.007812 10.414062 22.996094 7.40625 21.628906 C 5.824219 20.914062 4.820312 18.984375 5.1875 17.363281 C 5.765625 14.777344 8.542969 13.410156 10.820312 14.585938 Z M 13.347656 23.828125 C 13.382812 24.210938 13.382812 24.558594 13.328125 24.597656 C 13.289062 24.65625 13.210938 26.371094 13.152344 28.4375 C 13.054688 33.183594 13.289062 33.761719 15.214844 33.761719 C 15.96875 33.761719 16.007812 33.78125 16.007812 34.359375 C 16.007812 35.113281 16.507812 35.980469 17.105469 36.25 C 17.355469 36.367188 18.417969 36.464844 19.480469 36.464844 L 21.386719 36.464844 L 21.386719 37.929688 C 21.386719 39.644531 21.117188 39.898438 20.269531 38.992188 C 19.789062 38.46875 19.574219 38.390625 18.746094 38.390625 C 17.78125 38.390625 17.164062 38.71875 17.164062 39.222656 C 17.164062 39.355469 16.953125 39.203125 16.683594 38.914062 C 16.257812 38.46875 16.027344 38.390625 15.140625 38.390625 C 14.269531 38.390625 14.039062 38.46875 13.75 38.855469 L 13.382812 39.316406 L 12.980469 38.855469 C 12.652344 38.488281 12.382812 38.390625 11.589844 38.390625 C 10.800781 38.390625 10.570312 38.46875 10.242188 38.894531 C 10.027344 39.164062 9.757812 39.335938 9.644531 39.261719 C 9.507812 39.183594 9.605469 38.972656 9.933594 38.683594 C 10.570312 38.0625 10.625 36.480469 10.027344 35.882812 C 9.644531 35.5 9.644531 35.5 10.027344 35.113281 C 10.414062 34.726562 10.472656 34.554688 10.453125 33.375 C 10.453125 32.894531 10.296875 32.585938 9.953125 32.277344 L 9.46875 31.871094 L 9.933594 31.5625 C 10.355469 31.292969 10.414062 31.101562 10.414062 30.097656 C 10.414062 29.09375 10.355469 28.898438 9.953125 28.648438 C 9.699219 28.476562 9.449219 28.089844 9.410156 27.78125 L 9.316406 27.203125 L 12.730469 27.203125 L 12.730469 25.484375 C 12.730469 23.769531 12.824219 23.152344 13.113281 23.152344 C 13.191406 23.152344 13.308594 23.460938 13.347656 23.828125 Z M 36.335938 24.230469 C 36.507812 24.289062 36.605469 24.425781 36.546875 24.519531 C 36.410156 24.714844 35.871094 24.519531 35.871094 24.289062 C 35.871094 24.078125 35.929688 24.078125 36.335938 24.230469 Z M 38.03125 25.851562 L 38.589844 25.851562 L 38.53125 30.5 C 38.476562 35.769531 38.496094 35.691406 36.875 35.691406 C 36.140625 35.691406 35.871094 35.574219 35.195312 34.957031 C 34.753906 34.574219 34.230469 34.148438 34.019531 34.011719 C 33.691406 33.820312 33.769531 33.78125 34.484375 33.78125 C 35.136719 33.761719 35.445312 33.644531 35.890625 33.203125 L 36.449219 32.644531 L 36.449219 25.0625 L 36.953125 25.445312 C 37.242188 25.679688 37.722656 25.851562 38.03125 25.851562 Z M 9.605469 30.019531 C 9.664062 30.789062 9.644531 30.828125 9.0625 30.90625 C 8.371094 31.003906 8.292969 30.964844 8.292969 30.269531 C 8.292969 29.382812 8.484375 29.113281 9.046875 29.171875 C 9.488281 29.226562 9.546875 29.324219 9.605469 30.019531 Z M 9.605469 33.742188 L 9.664062 34.554688 L 9.027344 34.496094 C 8.484375 34.4375 8.371094 34.359375 8.332031 33.898438 C 8.234375 33.085938 8.371094 32.875 8.988281 32.894531 C 9.507812 32.933594 9.546875 32.992188 9.605469 33.742188 Z M 26.5 34.320312 C 26.09375 34.609375 25.574219 35.054688 25.378906 35.285156 C 25.03125 35.671875 24.859375 35.691406 21.273438 35.691406 C 17.800781 35.691406 17.53125 35.671875 17.164062 35.304688 C 16.953125 35.09375 16.777344 34.667969 16.777344 34.339844 L 16.777344 33.761719 L 27.25 33.761719 Z M 32.804688 34.28125 C 33.304688 34.515625 34.078125 35.015625 34.519531 35.421875 C 35.429688 36.230469 36.449219 38.160156 36.449219 39.027344 C 36.449219 39.53125 36.390625 39.570312 35.851562 39.511719 C 35.332031 39.453125 35.214844 39.335938 34.925781 38.46875 C 33.539062 34.320312 28.0625 33.898438 26.230469 37.8125 C 25.84375 38.625 25.804688 38.875 25.996094 39.183594 C 26.191406 39.472656 26.191406 39.550781 25.996094 39.511719 C 25.628906 39.433594 25.804688 40.996094 26.265625 42 C 27.558594 44.738281 31.453125 45.394531 33.652344 43.273438 C 34.425781 42.519531 35.082031 41.265625 35.101562 40.554688 C 35.101562 40.1875 35.195312 40.128906 35.773438 40.128906 C 36.390625 40.128906 36.449219 40.1875 36.449219 40.667969 C 36.449219 41.5 35.371094 43.484375 34.484375 44.277344 C 33.269531 45.375 32.167969 45.800781 30.472656 45.800781 C 28.640625 45.820312 27.230469 45.183594 25.957031 43.773438 L 25.109375 42.828125 L 22.179688 42.828125 L 22.160156 41.613281 C 22.140625 40.957031 22.121094 39.53125 22.121094 38.429688 C 22.082031 36.597656 22.179688 36.171875 22.46875 36.65625 C 22.640625 36.925781 23.394531 36.886719 23.703125 36.597656 C 23.914062 36.40625 23.953125 36.40625 23.835938 36.597656 C 23.742188 36.773438 23.894531 36.847656 24.394531 36.847656 C 24.996094 36.847656 25.226562 36.695312 26.09375 35.789062 C 27.925781 33.839844 30.492188 33.261719 32.804688 34.28125 Z M 9.644531 37.371094 C 9.625 38.179688 9.605469 38.257812 9.371094 37.949219 C 9.0625 37.542969 8.679688 37.523438 8.679688 37.929688 C 8.679688 38.082031 8.601562 38.160156 8.484375 38.101562 C 8.273438 37.96875 8.214844 36.789062 8.429688 36.597656 C 8.484375 36.519531 8.792969 36.464844 9.101562 36.464844 C 9.625 36.464844 9.644531 36.5 9.644531 37.371094 Z M 33.191406 37.082031 C 35.101562 38.992188 34.578125 42.058594 32.109375 43.371094 C 31.78125 43.542969 31.070312 43.679688 30.472656 43.679688 C 29.0625 43.699219 28.042969 43.15625 27.25 41.980469 C 26.710938 41.210938 26.613281 40.863281 26.613281 39.972656 C 26.613281 38.738281 27.152344 37.445312 27.90625 36.847656 C 28.332031 36.519531 28.695312 36.464844 30.492188 36.464844 L 32.554688 36.464844 Z M 12.382812 39.742188 C 12.4375 40.070312 12.421875 40.359375 12.382812 40.417969 C 12.1875 40.589844 10.820312 40.515625 10.703125 40.320312 C 10.644531 40.207031 10.722656 40.128906 10.878906 40.128906 C 11.050781 40.128906 11.1875 39.992188 11.1875 39.839844 C 11.1875 39.683594 11.109375 39.550781 10.992188 39.550781 C 10.894531 39.550781 10.800781 39.453125 10.800781 39.355469 C 10.800781 39.242188 11.128906 39.164062 11.550781 39.164062 C 12.226562 39.164062 12.304688 39.222656 12.382812 39.742188 Z M 16.007812 39.859375 L 16.007812 40.535156 L 15.195312 40.476562 C 14.578125 40.4375 14.347656 40.320312 14.308594 40.070312 C 14.175781 39.394531 14.425781 39.164062 15.234375 39.164062 C 15.988281 39.164062 16.007812 39.183594 16.007812 39.859375 Z M 19.574219 39.839844 C 19.574219 40.378906 19.515625 40.417969 18.765625 40.476562 L 17.9375 40.535156 L 17.9375 39.144531 L 18.765625 39.203125 C 19.515625 39.261719 19.574219 39.300781 19.574219 39.839844 Z M 19.574219 39.839844 "/>
<path style=" stroke:none;fill-rule:nonzero;fill:rgb(38.431373%,38.431373%,38.431373%);fill-opacity:1;" d="M 25.765625 6.230469 C 25.4375 6.480469 25.476562 6.558594 26.34375 7.753906 C 26.863281 8.449219 27.753906 9.664062 28.3125 10.4375 C 28.871094 11.226562 30.316406 13.214844 31.492188 14.855469 C 32.6875 16.496094 34.136719 18.519531 34.714844 19.332031 C 35.273438 20.160156 35.8125 20.835938 35.890625 20.835938 C 35.949219 20.835938 36.121094 20.699219 36.257812 20.546875 C 36.429688 20.335938 36.371094 20.140625 35.910156 19.542969 C 35.332031 18.808594 26.960938 7.214844 26.421875 6.40625 C 26.171875 6.019531 26.09375 6 25.765625 6.230469 Z M 25.765625 6.230469 "/>
<path style=" stroke:none;fill-rule:nonzero;fill:rgb(38.431373%,38.431373%,38.431373%);fill-opacity:1;" d="M 46.496094 13.003906 C 46.304688 13.214844 46.441406 13.503906 47.097656 14.449219 C 47.925781 15.609375 48.328125 15.859375 48.523438 15.355469 C 48.621094 15.105469 47.113281 12.773438 46.84375 12.753906 C 46.769531 12.734375 46.613281 12.847656 46.496094 13.003906 Z M 46.496094 13.003906 "/>
<path style=" stroke:none;fill-rule:nonzero;fill:rgb(38.431373%,38.431373%,38.431373%);fill-opacity:1;" d="M 44.550781 13.773438 C 44.375 14.007812 44.492188 14.277344 45.148438 15.183594 C 45.609375 15.800781 45.996094 16.320312 46.015625 16.359375 C 46.074219 16.476562 46.671875 16.148438 46.671875 15.992188 C 46.671875 15.78125 45.070312 13.523438 44.917969 13.523438 C 44.839844 13.503906 44.683594 13.621094 44.550781 13.773438 Z M 44.550781 13.773438 "/>
<path style=" stroke:none;fill-rule:nonzero;fill:rgb(38.431373%,38.431373%,38.431373%);fill-opacity:1;" d="M 42.679688 14.410156 C 42.292969 14.546875 42.371094 14.777344 43.105469 15.722656 C 43.46875 16.207031 43.835938 16.746094 43.933594 16.898438 C 44.085938 17.191406 44.742188 17.09375 44.742188 16.765625 C 44.742188 16.554688 43.140625 14.277344 43.007812 14.296875 C 42.949219 14.296875 42.796875 14.355469 42.679688 14.410156 Z M 42.679688 14.410156 "/>
<path style=" stroke:none;fill-rule:nonzero;fill:rgb(38.431373%,38.431373%,38.431373%);fill-opacity:1;" d="M 19.285156 22.574219 C 19.285156 22.957031 19.421875 22.957031 24.78125 22.957031 C 30.144531 22.957031 30.277344 22.957031 30.277344 22.574219 C 30.277344 22.1875 30.144531 22.1875 24.78125 22.1875 C 19.421875 22.1875 19.285156 22.1875 19.285156 22.574219 Z M 19.285156 22.574219 "/>
<path style=" stroke:none;fill-rule:nonzero;fill:rgb(38.431373%,38.431373%,38.431373%);fill-opacity:1;" d="M 19.324219 26.277344 L 19.382812 26.71875 L 24.839844 26.777344 L 30.277344 26.816406 L 30.277344 25.851562 L 19.265625 25.851562 Z M 19.324219 26.277344 "/>
<path style=" stroke:none;fill-rule:nonzero;fill:rgb(38.431373%,38.431373%,38.431373%);fill-opacity:1;" d="M 8.003906 23.632812 C 7.734375 23.882812 7.519531 24.328125 7.519531 24.597656 C 7.519531 25.175781 8.3125 26.046875 8.8125 26.046875 C 9.566406 26.046875 10.007812 25.792969 10.277344 25.234375 C 11.011719 23.710938 9.179688 22.4375 8.003906 23.632812 Z M 9.605469 23.960938 C 9.605469 24.964844 9.449219 25.292969 9.027344 25.234375 C 8.445312 25.15625 8.15625 24.617188 8.464844 24.230469 C 8.621094 24.058594 8.890625 23.921875 9.082031 23.921875 C 9.296875 23.921875 9.449219 23.828125 9.449219 23.730469 C 9.449219 23.613281 9.488281 23.535156 9.527344 23.535156 C 9.585938 23.535156 9.625 23.730469 9.605469 23.960938 Z M 9.605469 23.960938 "/>
<path style=" stroke:none;fill-rule:nonzero;fill:rgb(38.431373%,38.431373%,38.431373%);fill-opacity:1;" d="M 22.949219 38.777344 C 22.71875 39.007812 22.5625 39.414062 22.5625 39.839844 C 22.5625 41.074219 23.914062 41.730469 24.859375 40.9375 C 25.457031 40.457031 25.476562 39.222656 24.898438 38.738281 C 24.320312 38.277344 23.433594 38.296875 22.949219 38.777344 Z M 24.453125 40.167969 C 24.125 40.824219 23.257812 40.457031 23.375 39.722656 C 23.453125 39.105469 24.339844 38.875 24.511719 39.433594 C 24.570312 39.664062 24.550781 39.992188 24.453125 40.167969 Z M 24.453125 40.167969 "/>
</g>
</svg>
