<?xml version="1.0" encoding="UTF-8"?>
<svg xmlns="http://www.w3.org/2000/svg" xmlns:xlink="http://www.w3.org/1999/xlink" width="48pt" height="48pt" viewBox="0 0 48 48" version="1.1">
<g id="surface1">
<path style=" stroke:none;fill-rule:nonzero;fill:rgb(38.431373%,38.431373%,38.431373%);fill-opacity:1;" d="M 46.453125 38.796875 L 46.453125 31.742188 C 46.453125 30.734375 45.800781 29.882812 44.902344 29.5625 L 44.902344 28.644531 C 44.902344 27.363281 43.859375 26.324219 42.582031 26.324219 L 33.921875 26.324219 C 33.601562 25.421875 32.75 24.773438 31.742188 24.773438 L 31.742188 15.085938 C 31.742188 13.144531 30.695312 11.339844 29.003906 10.378906 L 14.164062 1.921875 C 13.492188 0.777344 12.261719 0 10.839844 0 C 8.714844 0 6.984375 1.722656 6.96875 3.84375 L 6.214844 26.398438 C 4.441406 26.75 3.097656 28.316406 3.097656 30.195312 C 3.097656 31.027344 3.367188 31.792969 3.816406 32.425781 L 1.613281 34.992188 C 0.574219 36.207031 0 37.753906 0 39.351562 C 0 41.140625 0.695312 42.824219 1.960938 44.089844 L 4.285156 46.414062 C 5.308594 47.4375 6.667969 48 8.117188 48 L 16.257812 48 L 16.257812 46.453125 L 14.710938 46.453125 L 14.710938 42.210938 L 12.050781 40.082031 C 11.242188 39.4375 10.734375 38.515625 10.621094 37.488281 L 10.066406 32.492188 C 10.546875 31.84375 10.839844 31.054688 10.839844 30.195312 C 10.839844 28.992188 10.277344 27.933594 9.417969 27.222656 L 13.015625 7.066406 C 13.152344 6.972656 13.273438 6.863281 13.398438 6.75 L 21.34375 14.695312 C 21.070312 15.15625 20.902344 15.683594 20.902344 16.257812 C 20.902344 17.695312 21.894531 18.898438 23.226562 19.246094 L 23.226562 24.773438 L 22.945312 24.773438 C 21.84375 24.773438 20.886719 25.558594 20.667969 26.640625 L 18.597656 37.007812 L 18.585938 38.789062 C 17.625 39.769531 17.03125 41.105469 17.03125 42.582031 C 17.03125 45.566406 19.464844 48 22.453125 48 L 42.582031 48 C 45.570312 48 48 45.566406 48 42.582031 C 48 41.109375 47.40625 39.773438 46.453125 38.796875 Z M 6.96875 27.871094 C 8.25 27.871094 9.289062 28.914062 9.289062 30.195312 C 9.289062 31.472656 8.25 32.515625 6.96875 32.515625 C 5.6875 32.515625 4.644531 31.472656 4.644531 30.195312 C 4.644531 28.914062 5.6875 27.871094 6.96875 27.871094 Z M 11.082031 41.289062 L 13.160156 42.953125 L 13.160156 43.355469 L 11.613281 43.355469 L 11.613281 44.902344 L 13.160156 44.902344 L 13.160156 46.453125 L 8.117188 46.453125 C 7.082031 46.453125 6.109375 46.046875 5.378906 45.316406 L 3.054688 42.992188 C 2.085938 42.023438 1.546875 40.726562 1.546875 39.351562 C 1.546875 38.125 1.988281 36.933594 2.789062 36 L 4.949219 33.480469 C 5.539062 33.84375 6.226562 34.066406 6.96875 34.066406 C 7.570312 34.066406 8.132812 33.914062 8.640625 33.667969 L 9.082031 37.65625 C 9.242188 39.097656 9.953125 40.386719 11.082031 41.289062 Z M 7.980469 26.472656 C 7.90625 26.453125 7.839844 26.421875 7.765625 26.40625 L 8.417969 6.867188 C 9.082031 7.40625 9.917969 7.742188 10.839844 7.742188 C 11.007812 7.742188 11.167969 7.714844 11.332031 7.691406 Z M 10.839844 6.195312 C 9.558594 6.195312 8.515625 5.152344 8.515625 3.871094 C 8.515625 2.589844 9.558594 1.546875 10.839844 1.546875 C 12.121094 1.546875 13.160156 2.589844 13.160156 3.871094 C 13.160156 5.152344 12.121094 6.195312 10.839844 6.195312 Z M 34.066406 30.96875 L 35.613281 30.96875 L 35.613281 29.417969 L 34.066406 29.417969 L 34.066406 27.871094 L 42.582031 27.871094 C 43.007812 27.871094 43.355469 28.21875 43.355469 28.644531 L 43.355469 29.417969 L 37.160156 29.417969 L 37.160156 30.96875 L 44.128906 30.96875 C 44.554688 30.96875 44.902344 31.316406 44.902344 31.742188 L 44.902344 37.691406 C 44.199219 37.355469 43.414062 37.160156 42.582031 37.160156 L 34.066406 37.160156 Z M 14.335938 5.5 C 14.550781 5.042969 14.675781 4.539062 14.695312 4.007812 L 28.238281 11.722656 C 29.445312 12.410156 30.195312 13.699219 30.195312 15.085938 L 30.195312 24.773438 L 24.773438 24.773438 L 24.773438 19.246094 C 26.105469 18.898438 27.097656 17.695312 27.097656 16.257812 C 27.097656 14.550781 25.707031 13.160156 24 13.160156 C 23.425781 13.160156 22.898438 13.328125 22.4375 13.601562 Z M 22.453125 16.257812 C 22.453125 15.402344 23.144531 14.710938 24 14.710938 C 24.855469 14.710938 25.546875 15.402344 25.546875 16.257812 C 25.546875 17.113281 24.855469 17.804688 24 17.804688 C 23.144531 17.804688 22.453125 17.113281 22.453125 16.257812 Z M 20.128906 37.238281 L 22.1875 26.945312 C 22.257812 26.585938 22.578125 26.324219 22.945312 26.324219 L 31.742188 26.324219 C 32.167969 26.324219 32.515625 26.667969 32.515625 27.097656 L 32.515625 37.160156 L 22.453125 37.160156 C 21.621094 37.160156 20.835938 37.355469 20.128906 37.691406 Z M 42.582031 46.453125 L 22.453125 46.453125 C 20.316406 46.453125 18.582031 44.714844 18.582031 42.582031 C 18.582031 40.445312 20.316406 38.710938 22.453125 38.710938 L 42.582031 38.710938 C 44.714844 38.710938 46.453125 40.445312 46.453125 42.582031 C 46.453125 44.714844 44.714844 46.453125 42.582031 46.453125 Z M 42.582031 46.453125 "/>
<path style=" stroke:none;fill-rule:nonzero;fill:rgb(38.431373%,38.431373%,38.431373%);fill-opacity:1;" d="M 41.804688 39.484375 C 40.878906 39.484375 40.050781 39.902344 39.484375 40.554688 C 38.914062 39.902344 38.089844 39.484375 37.160156 39.484375 C 36.230469 39.484375 35.40625 39.902344 34.839844 40.554688 C 34.269531 39.902344 33.445312 39.484375 32.515625 39.484375 C 31.585938 39.484375 30.761719 39.902344 30.195312 40.554688 C 29.625 39.902344 28.800781 39.484375 27.871094 39.484375 C 26.941406 39.484375 26.117188 39.902344 25.546875 40.554688 C 24.980469 39.902344 24.15625 39.484375 23.226562 39.484375 C 21.519531 39.484375 20.128906 40.871094 20.128906 42.582031 C 20.128906 44.289062 21.519531 45.675781 23.226562 45.675781 C 24.15625 45.675781 24.980469 45.257812 25.546875 44.609375 C 26.117188 45.257812 26.941406 45.675781 27.871094 45.675781 C 28.800781 45.675781 29.625 45.257812 30.195312 44.609375 C 30.761719 45.257812 31.585938 45.675781 32.515625 45.675781 C 33.445312 45.675781 34.269531 45.257812 34.839844 44.609375 C 35.40625 45.257812 36.230469 45.675781 37.160156 45.675781 C 38.089844 45.675781 38.914062 45.257812 39.484375 44.609375 C 40.050781 45.257812 40.878906 45.675781 41.804688 45.675781 C 43.515625 45.675781 44.902344 44.289062 44.902344 42.582031 C 44.902344 40.871094 43.515625 39.484375 41.804688 39.484375 Z M 23.226562 44.128906 C 22.371094 44.128906 21.675781 43.433594 21.675781 42.582031 C 21.675781 41.726562 22.371094 41.03125 23.226562 41.03125 C 24.078125 41.03125 24.773438 41.726562 24.773438 42.582031 C 24.773438 43.433594 24.078125 44.128906 23.226562 44.128906 Z M 27.871094 44.128906 C 27.015625 44.128906 26.324219 43.433594 26.324219 42.582031 C 26.324219 41.726562 27.015625 41.03125 27.871094 41.03125 C 28.726562 41.03125 29.417969 41.726562 29.417969 42.582031 C 29.417969 43.433594 28.726562 44.128906 27.871094 44.128906 Z M 32.515625 44.128906 C 31.664062 44.128906 30.96875 43.433594 30.96875 42.582031 C 30.96875 41.726562 31.664062 41.03125 32.515625 41.03125 C 33.371094 41.03125 34.066406 41.726562 34.066406 42.582031 C 34.066406 43.433594 33.371094 44.128906 32.515625 44.128906 Z M 37.160156 44.128906 C 36.308594 44.128906 35.613281 43.433594 35.613281 42.582031 C 35.613281 41.726562 36.308594 41.03125 37.160156 41.03125 C 38.015625 41.03125 38.710938 41.726562 38.710938 42.582031 C 38.710938 43.433594 38.015625 44.128906 37.160156 44.128906 Z M 41.804688 44.128906 C 40.953125 44.128906 40.257812 43.433594 40.257812 42.582031 C 40.257812 41.726562 40.953125 41.03125 41.804688 41.03125 C 42.660156 41.03125 43.355469 41.726562 43.355469 42.582031 C 43.355469 43.433594 42.660156 44.128906 41.804688 44.128906 Z M 41.804688 44.128906 "/>
<path style=" stroke:none;fill-rule:nonzero;fill:rgb(38.431373%,38.431373%,38.431373%);fill-opacity:1;" d="M 31.742188 27.871094 L 23.363281 27.871094 L 22.464844 32.363281 L 22.453125 34.066406 L 31.742188 34.066406 Z M 30.195312 32.515625 L 24.015625 32.515625 L 24.636719 29.417969 L 30.195312 29.417969 Z M 30.195312 32.515625 "/>
<path style=" stroke:none;fill-rule:nonzero;fill:rgb(38.431373%,38.431373%,38.431373%);fill-opacity:1;" d="M 40.257812 32.515625 L 43.355469 32.515625 L 43.355469 34.066406 L 40.257812 34.066406 Z M 40.257812 32.515625 "/>
<path style=" stroke:none;fill-rule:nonzero;fill:rgb(38.431373%,38.431373%,38.431373%);fill-opacity:1;" d="M 35.613281 32.515625 L 38.710938 32.515625 L 38.710938 34.066406 L 35.613281 34.066406 Z M 35.613281 32.515625 "/>
</g>
</svg>
