<svg height="48pt" viewBox="0 0 512.00026 512" width="48pt" xmlns="http://www.w3.org/2000/svg"><path d="m462.667969 256 46.152343-43.019531c2.449219-2.285157 3.59375-5.644531 3.042969-8.953125-.546875-3.308594-2.71875-6.121094-5.78125-7.488282l-193.957031-86.777343v-99.761719c0-5.523438-4.476562-10-10-10h-92c-5.519531 0-10 4.476562-10 10v99.761719l-193.957031 86.777343c-3.058594 1.367188-5.226563 4.179688-5.78125 7.488282-.546875 3.308594.597656 6.667968 3.046875 8.953125l46.027344 42.902343-46.28125 43.136719c-2.449219 2.285157-3.59375 5.644531-3.042969 8.953125.546875 3.304688 2.71875 6.117188 5.777343 7.488282l48.085938 21.539062v83c0 4.003906 2.386719 7.625 6.070312 9.195312l192 82c1.253907.535157 2.59375.804688 3.929688.804688s2.671875-.269531 3.925781-.804688l59.117188-25.246093c5.082031-2.171875 7.441406-8.046875 5.269531-13.125-2.167969-5.078125-8.039062-7.4375-13.121094-5.269531l-45.191406 19.300781v-124.605469l36.90625 37.132812c1.917969 1.929688 4.488281 2.949219 7.097656 2.949219 1.378906 0 2.769532-.285156 4.082032-.871093l123.914062-55.503907v67.441407l-53.222656 22.730468c-5.078125 2.167969-7.4375 8.042969-5.269532 13.121094 1.621094 3.800781 5.316407 6.074219 9.203126 6.074219 1.308593 0 2.640624-.257813 3.921874-.804688l59.292969-25.324219c3.683594-1.570312 6.074219-5.191406 6.074219-9.195312v-83l48.085938-21.539062c3.058593-1.371094 5.230468-4.183594 5.777343-7.488282.550781-3.308594-.59375-6.667968-3.046875-8.953125zm-213.613281 33.070312c1.953124 1.953126 4.511718 2.929688 7.070312 2.929688 2.5625 0 5.121094-.976562 7.074219-2.929688l70.863281-70.863281 88.480469 37.792969-166.542969 71.125-166.417969-71.074219 88.609375-37.84375zm235.09375-80.433593-38.203126 35.609375-96.644531-41.277344 4.441407-4.441406c2.859374-2.859375 3.714843-7.164063 2.167968-10.898438-1.546875-3.738281-5.195312-6.171875-9.238281-6.171875h-34.546875v-49.785156zm-264.023438-17.179688v-171.457031h32.0625v93.5c0 5.523438 4.476562 10 10 10s10-4.476562 10-10v-93.5h19.9375v171.457031c0 5.519531 4.480469 10 10 10h20.40625l-66.40625 66.398438-66.402344-66.398438h20.402344c5.523438 0 10-4.480469 10-10zm-20-59.785156v49.785156h-34.542969c-4.042969 0-7.691406 2.433594-9.238281 6.171875-1.550781 3.734375-.691406 8.039063 2.164062 10.898438l4.445313 4.441406-96.644531 41.277344-38.203125-35.609375zm-134.070312 136.082031 172.460937 73.65625-38.734375 38.972656-171.9375-77.015624zm7.945312 78.203125 123.910156 55.503907c1.316406.585937 2.707032.871093 4.085938.871093 2.609375 0 5.175781-1.019531 7.09375-2.949219l36.910156-37.132812v124.605469l-172-73.457031zm370.109375-24.652343c0 .003906-.003906.003906-.003906.003906l-131.886719 59.074218-38.734375-38.972656 172.460937-73.65625 38.207032 35.613282zm0 0"/><path d="m351.941406 451.109375c-2.632812 0-5.210937 1.070313-7.070312 2.933594-1.863282 1.855469-2.929688 4.4375-2.929688 7.066406 0 2.632813 1.066406 5.210937 2.929688 7.070313 1.859375 1.859374 4.4375 2.929687 7.070312 2.929687 2.628906 0 5.207032-1.066406 7.066406-2.929687 1.871094-1.859376 2.933594-4.4375 2.933594-7.070313 0-2.628906-1.0625-5.210937-2.933594-7.066406-1.859374-1.863281-4.429687-2.933594-7.066406-2.933594zm0 0"/><path d="m262.191406 163.5c2.628906 0 5.207032-1.070312 7.066406-2.929688 1.863282-1.859374 2.933594-4.441406 2.933594-7.070312s-1.070312-5.210938-2.933594-7.070312c-1.859374-1.859376-4.4375-2.929688-7.066406-2.929688-2.632812 0-5.210937 1.070312-7.070312 2.929688-1.871094 1.859374-2.929688 4.441406-2.929688 7.070312s1.058594 5.210938 2.929688 7.070312c1.859375 1.859376 4.4375 2.929688 7.070312 2.929688zm0 0"/></svg>