<?xml version="1.0" encoding="UTF-8"?>
<svg xmlns="http://www.w3.org/2000/svg" xmlns:xlink="http://www.w3.org/1999/xlink" width="48pt" height="48pt" viewBox="0 0 48 48" version="1.1">
<g id="surface1">
<path style=" stroke:none;fill-rule:nonzero;fill:rgb(38.431373%,38.431373%,38.431373%);fill-opacity:1;" d="M 24 2 L 6 10 L 6 22 C 6 33.101562 13.679688 43.480469 24 46 C 34.320312 43.480469 42 33.101562 42 22 L 42 10 Z M 38 22 C 38 25.699219 36.980469 29.300781 35.238281 32.421875 L 32.339844 29.519531 C 34.960938 25.554688 34.425781 20.296875 31.058594 16.941406 C 27.152344 13.039062 20.828125 13.039062 16.921875 16.941406 C 13.019531 20.847656 13.019531 27.171875 16.921875 31.078125 C 20.277344 34.4375 25.535156 34.96875 29.5 32.359375 L 32.941406 35.800781 C 30.558594 38.640625 27.480469 40.820312 24 41.878906 C 15.960938 39.378906 10 31.039062 10 22 L 10 12.601562 L 24 6.378906 L 38 12.601562 Z M 24 30 C 20.679688 30 18 27.320312 18 24 C 18 20.679688 20.679688 18 24 18 C 27.320312 18 30 20.679688 30 24 C 30 27.320312 27.320312 30 24 30 Z M 24 30 "/>
</g>
</svg>
