<?xml version="1.0" encoding="UTF-8"?>
<svg xmlns="http://www.w3.org/2000/svg" xmlns:xlink="http://www.w3.org/1999/xlink" width="48pt" height="48pt" viewBox="0 0 48 48" version="1.1">
<g id="surface1">
<path style=" stroke:none;fill-rule:nonzero;fill:rgb(38.431373%,38.431373%,38.431373%);fill-opacity:1;" d="M 1.796875 42.082031 L 11.496094 47.65625 C 12.222656 48.0625 13.191406 48.0625 13.917969 47.65625 L 24.019531 41.917969 L 34.121094 47.65625 C 34.847656 48.0625 35.816406 48.0625 36.546875 47.65625 L 46.242188 42.082031 C 46.96875 41.675781 47.453125 40.867188 47.453125 39.980469 L 47.453125 28.183594 C 47.453125 27.292969 46.96875 26.484375 46.242188 26.082031 L 36.140625 20.261719 L 36.140625 7.980469 C 36.140625 7.089844 35.65625 6.28125 34.929688 5.878906 L 25.230469 0.304688 C 24.503906 -0.101562 23.535156 -0.101562 22.808594 0.304688 L 13.109375 5.878906 C 12.382812 6.28125 11.898438 7.089844 11.898438 7.980469 L 11.898438 20.34375 L 1.796875 26.082031 C 1.070312 26.484375 0.585938 27.292969 0.585938 28.183594 L 0.585938 40.0625 C 0.585938 40.867188 1.070312 41.675781 1.796875 42.082031 Z M 12.707031 38.203125 L 11.65625 37.152344 C 11.816406 36.828125 11.898438 36.425781 11.898438 36.019531 L 11.898438 34.644531 L 11.171875 33.191406 C 11.089844 33.03125 11.089844 32.949219 11.089844 32.789062 L 11.089844 31.253906 C 11.089844 30.363281 11.816406 29.636719 12.707031 29.636719 C 13.597656 29.636719 14.324219 30.363281 14.324219 31.253906 L 14.324219 32.789062 C 14.324219 32.949219 14.324219 33.03125 14.242188 33.109375 L 13.515625 34.644531 L 13.515625 36.019531 C 13.515625 36.425781 13.597656 36.746094 13.757812 37.152344 Z M 15.132812 36.019531 L 15.132812 34.96875 L 15.695312 33.839844 C 15.859375 33.515625 15.9375 33.109375 15.9375 32.789062 L 15.9375 31.253906 C 15.9375 29.476562 14.484375 28.019531 12.707031 28.019531 C 10.929688 28.019531 9.472656 29.476562 9.472656 31.253906 L 9.472656 32.789062 C 9.472656 33.191406 9.554688 33.515625 9.71875 33.839844 L 10.28125 34.96875 L 10.28125 36.019531 C 10.28125 36.34375 10.039062 36.667969 9.71875 36.828125 L 7.132812 37.554688 L 7.617188 31.253906 C 7.859375 28.425781 10.28125 26.324219 13.109375 26.566406 C 15.617188 26.726562 17.636719 28.746094 17.796875 31.253906 L 18.28125 37.554688 L 15.695312 36.828125 C 15.375 36.667969 15.132812 36.34375 15.132812 36.019531 Z M 6.242188 40.0625 C 6.242188 39.738281 6.484375 39.414062 6.808594 39.253906 L 10.121094 38.28125 C 10.203125 38.28125 10.363281 38.203125 10.445312 38.203125 L 11.574219 39.332031 L 9.472656 41.433594 L 9.472656 44.667969 L 6.242188 42.808594 Z M 13.109375 46.28125 C 12.867188 46.445312 12.546875 46.445312 12.304688 46.28125 L 11.089844 45.554688 L 11.089844 42.082031 L 14.96875 38.203125 C 15.050781 38.28125 15.210938 38.28125 15.292969 38.28125 L 18.605469 39.253906 C 18.929688 39.332031 19.171875 39.65625 19.171875 40.0625 L 19.171875 42.808594 Z M 27.253906 9.433594 C 26.445312 9.109375 25.554688 9.109375 24.910156 9.597656 L 24.019531 10.082031 L 23.132812 9.597656 C 22.402344 9.191406 21.515625 9.109375 20.789062 9.433594 L 20.789062 7.816406 C 20.789062 7.332031 21.109375 7.011719 21.597656 7.011719 L 26.445312 7.011719 C 26.929688 7.011719 27.253906 7.332031 27.253906 7.816406 Z M 20.789062 11.859375 C 20.789062 11.292969 21.273438 10.808594 21.839844 10.808594 C 22 10.808594 22.242188 10.890625 22.402344 10.96875 L 24.101562 12.019531 L 25.796875 10.96875 C 26.28125 10.644531 26.929688 10.808594 27.171875 11.292969 C 27.253906 11.453125 27.332031 11.617188 27.332031 11.859375 L 27.332031 13.636719 C 27.332031 13.878906 27.253906 14.039062 27.089844 14.203125 L 25.070312 16.222656 L 24.019531 17.191406 L 21.109375 14.28125 C 20.949219 14.121094 20.867188 13.960938 20.867188 13.71875 L 20.867188 11.859375 Z M 30.484375 22.605469 L 25.554688 25.433594 L 26.847656 22.039062 C 27.171875 21.152344 26.929688 20.183594 26.28125 19.453125 L 25.152344 18.324219 L 26.6875 16.789062 L 29.917969 17.839844 C 30.242188 17.917969 30.484375 18.242188 30.484375 18.566406 Z M 24.019531 19.453125 L 25.152344 20.585938 C 25.394531 20.828125 25.476562 21.152344 25.3125 21.476562 L 24.019531 24.949219 L 22.726562 21.476562 C 22.648438 21.152344 22.726562 20.828125 22.890625 20.585938 Z M 21.351562 16.789062 L 22.890625 18.324219 L 21.757812 19.453125 C 21.109375 20.101562 20.867188 21.152344 21.191406 22.039062 L 22.484375 25.433594 L 17.554688 22.605469 L 17.554688 18.726562 C 17.554688 18.402344 17.796875 18.082031 18.121094 18 Z M 35.738281 46.28125 C 35.496094 46.445312 35.171875 46.445312 34.929688 46.28125 L 28.867188 42.808594 L 28.867188 38.929688 C 28.867188 38.605469 29.109375 38.28125 29.433594 38.203125 L 32.667969 37.152344 C 34.121094 38.605469 36.546875 38.605469 38 37.152344 L 41.230469 38.203125 C 41.554688 38.28125 41.796875 38.605469 41.796875 38.929688 L 41.796875 42.808594 Z M 32.101562 31.253906 L 32.101562 31.089844 L 35.332031 30.445312 L 38.566406 31.089844 L 38.566406 33.191406 C 38.566406 33.351562 38.484375 33.515625 38.402344 33.675781 L 37.109375 35.695312 C 36.382812 36.667969 35.011719 36.910156 34.039062 36.101562 C 33.878906 35.9375 33.71875 35.859375 33.636719 35.695312 L 32.34375 33.675781 C 32.261719 33.515625 32.183594 33.351562 32.183594 33.191406 L 32.183594 31.253906 Z M 38.566406 29.476562 L 35.332031 28.828125 L 32.101562 29.476562 L 32.101562 28.019531 C 32.101562 27.535156 32.425781 27.210938 32.910156 27.210938 L 38.566406 27.210938 Z M 45.433594 27.453125 C 45.675781 27.617188 45.839844 27.859375 45.839844 28.183594 L 45.839844 40.0625 C 45.839844 40.382812 45.675781 40.625 45.433594 40.789062 L 43.414062 41.839844 L 43.414062 38.847656 C 43.414062 37.796875 42.769531 36.910156 41.71875 36.585938 L 38.96875 35.695312 L 39.695312 34.566406 C 39.9375 34.160156 40.101562 33.675781 40.101562 33.191406 L 40.101562 25.597656 L 32.828125 25.597656 C 31.453125 25.597656 30.402344 26.648438 30.402344 28.019531 L 30.402344 33.191406 C 30.402344 33.675781 30.566406 34.160156 30.808594 34.566406 L 31.535156 35.695312 L 28.789062 36.585938 C 27.898438 36.910156 27.253906 37.796875 27.253906 38.847656 L 27.253906 41.839844 L 24.828125 40.464844 L 24.828125 27.617188 C 24.988281 27.535156 25.070312 27.535156 25.230469 27.453125 L 35.332031 21.71875 Z M 13.917969 7.253906 L 23.617188 1.675781 C 23.859375 1.515625 24.183594 1.515625 24.425781 1.675781 L 34.121094 7.253906 C 34.363281 7.414062 34.523438 7.65625 34.523438 7.980469 L 34.523438 20.34375 L 32.101562 21.71875 L 32.101562 18.726562 C 32.101562 17.675781 31.453125 16.789062 30.402344 16.464844 L 27.898438 15.65625 L 28.140625 15.414062 C 28.625 14.929688 28.867188 14.363281 28.867188 13.71875 L 28.867188 7.816406 C 28.867188 6.445312 27.816406 5.394531 26.445312 5.394531 L 21.597656 5.394531 C 20.222656 5.394531 19.171875 6.445312 19.171875 7.816406 L 19.171875 13.636719 C 19.171875 14.28125 19.414062 14.929688 19.898438 15.332031 L 20.140625 15.574219 L 17.636719 16.382812 C 16.585938 16.707031 15.9375 17.597656 15.9375 18.648438 L 15.9375 21.636719 L 13.515625 20.261719 L 13.515625 7.980469 C 13.515625 7.65625 13.675781 7.414062 13.917969 7.253906 Z M 2.203125 28.183594 C 2.203125 27.859375 2.363281 27.617188 2.605469 27.453125 L 12.707031 21.71875 L 22.808594 27.453125 C 22.96875 27.535156 23.050781 27.535156 23.210938 27.617188 L 23.210938 40.464844 L 20.789062 41.839844 L 20.789062 40.0625 C 20.789062 39.332031 20.464844 38.6875 19.980469 38.28125 L 19.414062 31.089844 C 19.089844 27.375 15.859375 24.625 12.222656 24.867188 C 8.910156 25.109375 6.324219 27.777344 6 31.089844 L 5.433594 38.28125 C 4.949219 38.769531 4.625 39.414062 4.625 40.0625 L 4.625 41.839844 L 2.605469 40.707031 C 2.363281 40.546875 2.203125 40.304688 2.203125 39.980469 Z M 2.203125 28.183594 "/>
<path style=" stroke:none;fill-rule:nonzero;fill:rgb(38.431373%,38.431373%,38.431373%);fill-opacity:1;" d="M 15.132812 40.140625 L 17.554688 40.140625 L 17.554688 41.757812 L 15.132812 41.757812 Z M 15.132812 40.140625 "/>
<path style=" stroke:none;fill-rule:nonzero;fill:rgb(38.431373%,38.431373%,38.431373%);fill-opacity:1;" d="M 34.523438 39.332031 L 36.140625 39.332031 L 36.140625 40.949219 L 34.523438 40.949219 Z M 34.523438 39.332031 "/>
<path style=" stroke:none;fill-rule:nonzero;fill:rgb(38.431373%,38.431373%,38.431373%);fill-opacity:1;" d="M 34.523438 42.566406 L 36.140625 42.566406 L 36.140625 44.179688 L 34.523438 44.179688 Z M 34.523438 42.566406 "/>
<path style=" stroke:none;fill-rule:nonzero;fill:rgb(38.431373%,38.431373%,38.431373%);fill-opacity:1;" d="M 37.757812 39.332031 L 40.179688 39.332031 L 40.179688 40.949219 L 37.757812 40.949219 Z M 37.757812 39.332031 "/>
<path style=" stroke:none;fill-rule:nonzero;fill:rgb(38.431373%,38.431373%,38.431373%);fill-opacity:1;" d="M 28.058594 19.132812 L 29.675781 19.132812 L 29.675781 20.746094 L 28.058594 20.746094 Z M 28.058594 19.132812 "/>
</g>
</svg>
