<?xml version="1.0" encoding="UTF-8"?>
<svg xmlns="http://www.w3.org/2000/svg" xmlns:xlink="http://www.w3.org/1999/xlink" width="48pt" height="48pt" viewBox="0 0 48 48" version="1.1">
<g id="surface1">
<path style=" stroke:none;fill-rule:nonzero;fill:rgb(38.431373%,38.431373%,38.431373%);fill-opacity:1;" d="M 41.296875 33.847656 C 41.292969 33.839844 41.285156 33.828125 41.28125 33.820312 C 41.238281 33.753906 41.199219 33.6875 41.15625 33.625 C 41.132812 33.589844 41.109375 33.550781 41.085938 33.515625 C 41.058594 33.472656 41.027344 33.429688 40.996094 33.390625 C 40.960938 33.332031 40.921875 33.277344 40.878906 33.226562 C 40.867188 33.207031 40.855469 33.191406 40.84375 33.175781 C 40.835938 33.164062 40.828125 33.152344 40.820312 33.144531 C 40.769531 33.078125 40.722656 33.015625 40.671875 32.953125 C 40.65625 32.933594 40.636719 32.910156 40.621094 32.890625 C 40.570312 32.828125 40.519531 32.769531 40.46875 32.710938 C 40.449219 32.683594 40.425781 32.660156 40.40625 32.636719 C 40.363281 32.585938 40.316406 32.539062 40.273438 32.492188 C 40.242188 32.457031 40.210938 32.421875 40.175781 32.386719 C 40.152344 32.363281 40.125 32.335938 40.101562 32.3125 C 39.128906 31.328125 37.933594 30.613281 36.585938 30.214844 C 36.5625 30.207031 36.539062 30.203125 36.515625 30.199219 C 36.515625 30.199219 30.160156 29.015625 30.160156 29.015625 C 30.148438 29.015625 30.136719 29.015625 30.125 29.011719 C 29.828125 28.964844 29.523438 29.003906 29.25 29.125 C 29.03125 28.851562 28.882812 28.480469 28.882812 28.132812 L 28.882812 26.984375 C 29.285156 26.726562 29.675781 26.4375 30.050781 26.113281 C 31.628906 24.757812 32.621094 22.800781 32.832031 20.664062 C 33.988281 20.613281 34.914062 19.652344 34.914062 18.484375 L 34.914062 16.84375 C 34.914062 16.183594 34.617188 15.570312 34.117188 15.160156 L 34.117188 11.390625 C 36.414062 10.257812 36.914062 8.9375 36.914062 8.003906 C 36.914062 6.40625 35.425781 4.40625 33.027344 2.785156 C 31.492188 1.742188 28.277344 0 24 0 C 19.722656 0 16.507812 1.742188 14.972656 2.785156 C 12.574219 4.40625 11.085938 6.40625 11.085938 8.003906 C 11.085938 8.9375 11.585938 10.257812 13.882812 11.390625 L 13.882812 15.160156 C 13.382812 15.570312 13.085938 16.183594 13.085938 16.84375 L 13.085938 18.484375 C 13.085938 19.652344 14.007812 20.613281 15.167969 20.664062 C 15.378906 22.800781 16.371094 24.757812 17.949219 26.113281 C 18.324219 26.4375 18.714844 26.726562 19.117188 26.984375 L 19.117188 28.132812 C 19.117188 28.480469 18.96875 28.851562 18.75 29.125 C 18.464844 29 18.148438 28.960938 17.839844 29.015625 L 11.484375 30.199219 C 11.460938 30.203125 11.4375 30.207031 11.414062 30.214844 C 10.066406 30.613281 8.871094 31.328125 7.902344 32.308594 C 7.875 32.335938 7.847656 32.363281 7.824219 32.390625 C 7.792969 32.421875 7.757812 32.457031 7.726562 32.492188 C 7.683594 32.539062 7.636719 32.585938 7.59375 32.636719 C 7.574219 32.660156 7.554688 32.683594 7.53125 32.710938 C 7.480469 32.769531 7.429688 32.828125 7.378906 32.890625 C 7.363281 32.910156 7.34375 32.933594 7.328125 32.953125 C 7.277344 33.015625 7.230469 33.078125 7.179688 33.144531 C 7.171875 33.152344 7.164062 33.164062 7.15625 33.175781 C 7.140625 33.191406 7.132812 33.207031 7.121094 33.226562 C 7.078125 33.277344 7.039062 33.332031 7.003906 33.390625 C 6.972656 33.429688 6.941406 33.472656 6.914062 33.515625 C 6.890625 33.554688 6.867188 33.589844 6.84375 33.625 C 6.800781 33.6875 6.761719 33.753906 6.71875 33.820312 C 6.714844 33.828125 6.707031 33.839844 6.703125 33.847656 C 5.925781 35.128906 5.515625 36.582031 5.515625 38.097656 L 5.515625 38.957031 C 5.515625 39.34375 5.832031 39.660156 6.21875 39.660156 C 6.609375 39.660156 6.921875 39.34375 6.921875 38.957031 L 6.921875 38.097656 C 6.921875 37.414062 7.027344 36.742188 7.222656 36.105469 C 7.636719 36.433594 8.136719 36.609375 8.660156 36.609375 C 8.742188 36.609375 8.828125 36.605469 8.910156 36.59375 C 9.527344 36.527344 10.082031 36.226562 10.46875 35.746094 L 11.234375 34.796875 C 11.625 34.3125 11.800781 33.707031 11.734375 33.09375 C 11.683594 32.601562 11.480469 32.152344 11.15625 31.792969 C 11.359375 31.710938 11.566406 31.636719 11.777344 31.574219 L 15.832031 30.820312 L 19.050781 35.324219 C 19.375 35.773438 19.878906 36.023438 20.402344 36.023438 C 20.621094 36.023438 20.84375 35.980469 21.058594 35.890625 L 21.273438 35.796875 L 22.207031 36.886719 L 20.859375 46.59375 L 12.019531 46.59375 L 12.019531 40.890625 C 12.019531 40.5 11.703125 40.1875 11.316406 40.1875 C 10.929688 40.1875 10.613281 40.5 10.613281 40.890625 L 10.613281 46.59375 L 7.800781 46.59375 C 7.316406 46.59375 6.925781 46.199219 6.925781 45.71875 L 6.925781 42.230469 C 6.925781 41.839844 6.609375 41.527344 6.21875 41.527344 C 5.832031 41.527344 5.515625 41.839844 5.515625 42.230469 L 5.515625 45.71875 C 5.515625 46.976562 6.542969 48 7.800781 48 L 40.199219 48 C 41.457031 48 42.484375 46.976562 42.484375 45.71875 L 42.484375 38.097656 C 42.484375 36.582031 42.074219 35.128906 41.296875 33.847656 Z M 10.140625 33.914062 L 9.375 34.863281 C 9.222656 35.050781 9.003906 35.171875 8.761719 35.195312 C 8.519531 35.222656 8.28125 35.152344 8.089844 35 L 7.796875 34.761719 C 7.859375 34.648438 7.925781 34.539062 7.996094 34.433594 C 7.996094 34.429688 7.996094 34.429688 8 34.429688 C 8.058594 34.335938 8.121094 34.246094 8.183594 34.15625 C 8.203125 34.128906 8.222656 34.101562 8.242188 34.074219 C 8.296875 33.996094 8.355469 33.921875 8.414062 33.847656 C 8.429688 33.828125 8.445312 33.808594 8.460938 33.789062 C 8.527344 33.707031 8.597656 33.625 8.667969 33.546875 C 8.6875 33.523438 8.710938 33.5 8.730469 33.480469 C 8.800781 33.402344 8.871094 33.328125 8.945312 33.253906 C 8.953125 33.25 8.960938 33.242188 8.964844 33.234375 C 9.238281 32.96875 9.53125 32.726562 9.847656 32.503906 L 10.003906 32.628906 C 10.191406 32.78125 10.308594 33 10.335938 33.242188 C 10.363281 33.484375 10.292969 33.722656 10.140625 33.914062 Z M 37.996094 32.628906 L 38.152344 32.503906 C 38.46875 32.722656 38.761719 32.96875 39.035156 33.234375 C 39.039062 33.242188 39.046875 33.25 39.054688 33.253906 C 39.128906 33.328125 39.199219 33.402344 39.269531 33.480469 C 39.289062 33.5 39.3125 33.523438 39.332031 33.546875 C 39.402344 33.625 39.472656 33.707031 39.539062 33.789062 C 39.554688 33.808594 39.570312 33.828125 39.585938 33.847656 C 39.644531 33.921875 39.703125 33.996094 39.757812 34.074219 C 39.777344 34.101562 39.796875 34.128906 39.816406 34.15625 C 39.878906 34.246094 39.941406 34.335938 40 34.429688 C 40.003906 34.429688 40.003906 34.429688 40.003906 34.433594 C 40.074219 34.539062 40.140625 34.648438 40.203125 34.761719 L 39.910156 35 C 39.71875 35.152344 39.480469 35.222656 39.238281 35.195312 C 38.996094 35.171875 38.777344 35.050781 38.625 34.863281 L 37.859375 33.914062 C 37.542969 33.519531 37.605469 32.945312 37.996094 32.628906 Z M 29.601562 30.566406 L 29.789062 30.425781 C 29.820312 30.402344 29.863281 30.394531 29.902344 30.402344 L 30.640625 30.539062 L 27.804688 34.507812 C 27.730469 34.605469 27.605469 34.640625 27.492188 34.59375 L 25.402344 33.707031 Z M 24 32.996094 L 19.902344 29.933594 C 20.289062 29.425781 20.523438 28.777344 20.523438 28.132812 L 20.523438 27.722656 C 21.605469 28.175781 22.765625 28.414062 23.992188 28.429688 C 23.996094 28.429688 23.996094 28.429688 24 28.429688 C 24.003906 28.429688 24.003906 28.429688 24.007812 28.429688 C 25.234375 28.414062 26.394531 28.175781 27.476562 27.722656 L 27.476562 28.132812 C 27.476562 28.777344 27.710938 29.425781 28.097656 29.933594 Z M 25.367188 35.21875 L 24.726562 35.964844 L 23.273438 35.964844 L 22.632812 35.21875 L 24 34.640625 Z M 13.882812 9.785156 C 12.980469 9.230469 12.492188 8.613281 12.492188 8.003906 C 12.492188 6.738281 14.1875 5.011719 15.757812 3.949219 C 17.160156 3 20.097656 1.40625 24 1.40625 C 27.902344 1.40625 30.839844 3 32.242188 3.949219 C 33.8125 5.011719 35.507812 6.738281 35.507812 8.003906 C 35.507812 8.613281 35.019531 9.230469 34.117188 9.785156 L 34.117188 8.507812 C 34.117188 7.515625 33.445312 6.648438 32.480469 6.402344 C 30.660156 5.9375 27.082031 5.15625 23.558594 5.15625 C 23.554688 5.15625 23.554688 5.15625 23.550781 5.15625 C 20.5 5.15625 17.472656 5.828125 15.46875 6.390625 C 14.535156 6.652344 13.882812 7.511719 13.882812 8.480469 Z M 16.320312 12.257812 C 16.3125 12.25 16.300781 12.242188 16.292969 12.238281 C 16.246094 12.207031 16.203125 12.179688 16.160156 12.148438 C 16.144531 12.136719 16.125 12.125 16.109375 12.113281 C 16.074219 12.089844 16.039062 12.0625 16.007812 12.039062 C 15.984375 12.023438 15.964844 12.003906 15.941406 11.988281 C 15.914062 11.964844 15.890625 11.945312 15.867188 11.925781 C 15.839844 11.902344 15.816406 11.882812 15.789062 11.859375 C 15.773438 11.84375 15.753906 11.824219 15.738281 11.808594 C 15.710938 11.78125 15.683594 11.757812 15.660156 11.730469 C 15.648438 11.71875 15.632812 11.703125 15.621094 11.691406 C 15.621094 11.691406 15.621094 11.6875 15.621094 11.6875 L 27.425781 11.6875 C 27.816406 11.6875 28.128906 11.371094 28.128906 10.984375 C 28.128906 10.59375 27.816406 10.28125 27.425781 10.28125 L 15.289062 10.28125 L 15.289062 8.480469 C 15.289062 8.140625 15.519531 7.835938 15.847656 7.746094 C 17.769531 7.203125 20.660156 6.5625 23.550781 6.5625 C 23.554688 6.5625 23.554688 6.5625 23.558594 6.5625 C 26.925781 6.5625 30.375 7.316406 32.132812 7.765625 C 32.472656 7.851562 32.710938 8.15625 32.710938 8.507812 L 32.710938 10.28125 L 30.824219 10.28125 C 30.4375 10.28125 30.121094 10.59375 30.121094 10.984375 C 30.121094 11.371094 30.4375 11.6875 30.824219 11.6875 L 32.382812 11.6875 C 32.378906 11.6875 32.378906 11.691406 32.378906 11.691406 C 32.367188 11.703125 32.351562 11.71875 32.339844 11.730469 C 32.316406 11.757812 32.289062 11.78125 32.261719 11.808594 C 32.246094 11.824219 32.226562 11.84375 32.210938 11.859375 C 32.183594 11.882812 32.160156 11.902344 32.132812 11.925781 C 32.109375 11.945312 32.085938 11.964844 32.058594 11.988281 C 32.039062 12.003906 32.015625 12.023438 31.992188 12.039062 C 31.960938 12.0625 31.925781 12.089844 31.890625 12.113281 C 31.875 12.125 31.855469 12.136719 31.839844 12.148438 C 31.796875 12.179688 31.753906 12.207031 31.707031 12.238281 C 31.699219 12.242188 31.6875 12.25 31.679688 12.257812 C 31.386719 12.441406 31.039062 12.617188 30.640625 12.78125 C 30.632812 12.785156 30.625 12.789062 30.617188 12.792969 C 29.109375 13.414062 26.84375 13.886719 24 13.886719 C 21.15625 13.886719 18.890625 13.414062 17.382812 12.792969 C 17.375 12.789062 17.367188 12.785156 17.359375 12.78125 C 16.960938 12.617188 16.613281 12.441406 16.320312 12.257812 Z M 16.386719 13.890625 L 16.386719 15.261719 C 16 15.0625 15.609375 14.953125 15.289062 14.894531 L 15.289062 13.261719 C 15.589844 13.476562 15.953125 13.6875 16.386719 13.890625 Z M 31.613281 13.890625 C 32.046875 13.6875 32.410156 13.476562 32.710938 13.261719 L 32.710938 14.894531 C 32.390625 14.953125 32 15.058594 31.613281 15.261719 Z M 18.863281 25.046875 C 17.425781 23.808594 16.574219 21.949219 16.53125 19.949219 C 16.523438 19.566406 16.210938 19.261719 15.828125 19.261719 L 15.269531 19.261719 C 14.839844 19.261719 14.492188 18.914062 14.492188 18.484375 L 14.492188 16.84375 C 14.492188 16.609375 14.597656 16.390625 14.777344 16.246094 C 15.027344 16.265625 15.488281 16.339844 15.882812 16.589844 C 15.886719 16.59375 15.890625 16.59375 15.894531 16.597656 C 15.949219 16.632812 16.003906 16.671875 16.054688 16.714844 C 16.058594 16.722656 16.066406 16.726562 16.070312 16.730469 C 16.097656 16.753906 16.121094 16.777344 16.144531 16.800781 C 16.167969 16.820312 16.1875 16.839844 16.210938 16.859375 C 16.21875 16.863281 16.222656 16.867188 16.230469 16.875 C 16.246094 16.886719 16.265625 16.898438 16.28125 16.910156 C 16.289062 16.914062 16.296875 16.921875 16.300781 16.925781 C 16.328125 16.941406 16.351562 16.953125 16.375 16.96875 C 16.402344 16.980469 16.425781 16.992188 16.453125 17.003906 C 16.460938 17.007812 16.46875 17.011719 16.472656 17.011719 C 16.496094 17.019531 16.515625 17.027344 16.535156 17.035156 C 16.542969 17.035156 16.550781 17.039062 16.558594 17.039062 C 16.585938 17.046875 16.609375 17.054688 16.636719 17.0625 C 16.636719 17.0625 16.636719 17.0625 16.640625 17.0625 C 16.667969 17.066406 16.695312 17.070312 16.722656 17.074219 C 16.730469 17.074219 16.738281 17.074219 16.746094 17.074219 C 16.765625 17.078125 16.789062 17.078125 16.808594 17.078125 C 16.816406 17.078125 16.820312 17.078125 16.824219 17.078125 C 16.828125 17.078125 16.832031 17.078125 16.832031 17.078125 C 16.859375 17.078125 16.890625 17.078125 16.917969 17.074219 C 16.949219 17.070312 16.976562 17.066406 17.003906 17.0625 C 17.011719 17.058594 17.019531 17.058594 17.027344 17.054688 C 17.050781 17.050781 17.070312 17.046875 17.089844 17.039062 C 17.097656 17.039062 17.105469 17.035156 17.117188 17.035156 C 17.144531 17.023438 17.171875 17.015625 17.199219 17.003906 C 17.5625 16.851562 17.796875 16.5 17.796875 16.109375 L 17.796875 14.425781 C 19.605469 14.996094 21.832031 15.292969 24 15.292969 C 26.167969 15.292969 28.394531 14.996094 30.203125 14.425781 L 30.203125 16.109375 C 30.203125 16.5 30.4375 16.851562 30.800781 17.003906 C 30.828125 17.015625 30.855469 17.023438 30.882812 17.035156 C 30.894531 17.035156 30.902344 17.039062 30.910156 17.039062 C 30.929688 17.046875 30.953125 17.050781 30.972656 17.058594 C 30.980469 17.058594 30.988281 17.058594 30.996094 17.0625 C 31.050781 17.074219 31.109375 17.078125 31.167969 17.078125 C 31.167969 17.078125 31.171875 17.078125 31.175781 17.078125 C 31.179688 17.078125 31.183594 17.078125 31.1875 17.078125 C 31.210938 17.078125 31.234375 17.078125 31.253906 17.074219 C 31.261719 17.074219 31.269531 17.074219 31.277344 17.074219 C 31.332031 17.066406 31.386719 17.054688 31.441406 17.039062 C 31.449219 17.039062 31.457031 17.035156 31.464844 17.035156 C 31.484375 17.027344 31.503906 17.019531 31.527344 17.011719 C 31.53125 17.007812 31.539062 17.007812 31.546875 17.003906 C 31.574219 16.992188 31.597656 16.980469 31.625 16.96875 C 31.648438 16.953125 31.671875 16.941406 31.699219 16.925781 C 31.703125 16.921875 31.710938 16.914062 31.71875 16.910156 C 31.734375 16.898438 31.753906 16.886719 31.769531 16.875 C 31.777344 16.867188 31.785156 16.863281 31.789062 16.859375 C 31.8125 16.839844 31.835938 16.820312 31.855469 16.800781 C 31.878906 16.777344 31.902344 16.753906 31.929688 16.730469 C 31.933594 16.726562 31.941406 16.722656 31.949219 16.714844 C 31.96875 16.695312 31.992188 16.675781 32.019531 16.660156 C 32.019531 16.660156 32.023438 16.65625 32.023438 16.65625 C 32.050781 16.636719 32.078125 16.617188 32.101562 16.601562 C 32.109375 16.597656 32.117188 16.589844 32.125 16.585938 C 32.148438 16.570312 32.171875 16.558594 32.195312 16.542969 C 32.199219 16.542969 32.203125 16.539062 32.207031 16.539062 C 32.234375 16.523438 32.261719 16.507812 32.289062 16.496094 C 32.296875 16.492188 32.304688 16.488281 32.3125 16.484375 C 32.335938 16.472656 32.359375 16.460938 32.386719 16.449219 C 32.390625 16.449219 32.394531 16.445312 32.394531 16.445312 C 32.425781 16.433594 32.453125 16.421875 32.484375 16.410156 C 32.488281 16.410156 32.492188 16.40625 32.5 16.40625 C 32.527344 16.394531 32.550781 16.382812 32.578125 16.375 C 32.582031 16.375 32.582031 16.375 32.585938 16.375 C 32.613281 16.363281 32.644531 16.355469 32.675781 16.347656 C 32.675781 16.347656 32.675781 16.34375 32.679688 16.34375 C 32.894531 16.285156 33.089844 16.257812 33.222656 16.246094 C 33.402344 16.390625 33.507812 16.609375 33.507812 16.84375 L 33.507812 18.484375 C 33.507812 18.914062 33.160156 19.261719 32.730469 19.261719 L 32.171875 19.261719 C 31.789062 19.261719 31.476562 19.566406 31.46875 19.949219 C 31.425781 21.949219 30.574219 23.808594 29.136719 25.046875 C 27.640625 26.335938 25.914062 27 24 27.019531 C 22.085938 27 20.359375 26.335938 18.863281 25.046875 Z M 20.507812 34.59375 C 20.394531 34.640625 20.265625 34.605469 20.195312 34.507812 L 17.359375 30.539062 L 18.097656 30.402344 C 18.136719 30.394531 18.179688 30.402344 18.210938 30.425781 L 18.394531 30.566406 C 18.398438 30.566406 18.398438 30.566406 18.398438 30.566406 L 22.597656 33.707031 Z M 22.277344 46.59375 L 23.5625 37.371094 L 24.4375 37.371094 L 25.722656 46.59375 Z M 40.199219 46.59375 L 37.386719 46.59375 L 37.386719 40.890625 C 37.386719 40.5 37.070312 40.1875 36.683594 40.1875 C 36.296875 40.1875 35.980469 40.5 35.980469 40.890625 L 35.980469 46.59375 L 27.140625 46.59375 L 25.792969 36.886719 L 26.726562 35.796875 L 26.941406 35.890625 C 27.15625 35.980469 27.378906 36.023438 27.597656 36.023438 C 28.121094 36.023438 28.625 35.773438 28.949219 35.324219 L 32.167969 30.820312 L 36.222656 31.574219 C 36.433594 31.636719 36.640625 31.710938 36.84375 31.792969 C 36.097656 32.625 36.042969 33.898438 36.765625 34.796875 L 37.53125 35.746094 C 37.917969 36.226562 38.472656 36.527344 39.089844 36.59375 C 39.171875 36.601562 39.257812 36.609375 39.339844 36.609375 C 39.863281 36.609375 40.363281 36.433594 40.777344 36.101562 C 40.972656 36.742188 41.074219 37.414062 41.074219 38.097656 L 41.074219 45.71875 C 41.074219 46.199219 40.683594 46.59375 40.199219 46.59375 Z M 40.199219 46.59375 "/>
<path style=" stroke:none;fill-rule:nonzero;fill:rgb(38.431373%,38.431373%,38.431373%);fill-opacity:1;" d="M 33.601562 40.1875 L 29.898438 40.1875 C 29.261719 40.1875 28.746094 40.703125 28.746094 41.335938 L 28.746094 43.308594 C 28.746094 43.941406 29.261719 44.457031 29.898438 44.457031 L 33.601562 44.457031 C 34.234375 44.457031 34.75 43.941406 34.75 43.308594 L 34.75 41.335938 C 34.75 40.703125 34.234375 40.1875 33.601562 40.1875 Z M 30.15625 43.050781 L 30.15625 41.59375 L 33.34375 41.59375 L 33.34375 43.050781 Z M 30.15625 43.050781 "/>
<path style=" stroke:none;fill-rule:nonzero;fill:rgb(38.431373%,38.431373%,38.431373%);fill-opacity:1;" d="M 18.101562 40.1875 L 14.398438 40.1875 C 13.765625 40.1875 13.25 40.703125 13.25 41.335938 L 13.25 43.308594 C 13.25 43.941406 13.765625 44.457031 14.398438 44.457031 L 18.101562 44.457031 C 18.738281 44.457031 19.253906 43.941406 19.253906 43.308594 L 19.253906 41.335938 C 19.253906 40.703125 18.738281 40.1875 18.101562 40.1875 Z M 17.84375 43.050781 L 14.65625 43.050781 L 14.65625 41.59375 L 17.84375 41.59375 Z M 17.84375 43.050781 "/>
</g>
</svg>
