<?xml version="1.0" encoding="UTF-8"?>
<svg xmlns="http://www.w3.org/2000/svg" xmlns:xlink="http://www.w3.org/1999/xlink" width="48pt" height="48pt" viewBox="0 0 48 48" version="1.1">
<g id="surface1">
<path style=" stroke:none;fill-rule:nonzero;fill:rgb(38.431373%,38.431373%,38.431373%);fill-opacity:1;" d="M 32.4375 42.09375 C 31.917969 42.09375 31.5 42.511719 31.5 43.03125 C 31.5 43.546875 31.917969 43.96875 32.4375 43.96875 C 32.953125 43.96875 33.375 43.546875 33.375 43.03125 C 33.375 42.511719 32.953125 42.09375 32.4375 42.09375 Z M 32.4375 42.09375 "/>
<path style=" stroke:none;fill-rule:nonzero;fill:rgb(38.431373%,38.431373%,38.431373%);fill-opacity:1;" d="M 41.289062 33.730469 C 40.335938 32.324219 38.996094 31.253906 37.417969 30.628906 L 30.539062 27.90625 C 32.335938 26.15625 33.375 23.746094 33.375 21.1875 C 33.375 20.175781 33.214844 19.191406 32.90625 18.25 C 33.191406 18.085938 33.375 17.777344 33.375 17.4375 L 33.375 14.566406 L 35.011719 11.292969 L 36.605469 10.496094 C 36.925781 10.335938 37.125 10.011719 37.125 9.65625 L 37.125 6.84375 C 37.125 6.441406 36.867188 6.082031 36.484375 5.953125 L 33.816406 5.066406 L 27.378906 0.191406 C 27.214844 0.0664062 27.015625 0 26.8125 0 L 21.1875 0 C 20.984375 0 20.785156 0.0664062 20.621094 0.191406 L 14.183594 5.066406 L 11.515625 5.953125 C 11.132812 6.082031 10.875 6.441406 10.875 6.84375 L 10.875 9.65625 C 10.875 10.011719 11.074219 10.335938 11.394531 10.496094 L 12.988281 11.292969 L 14.625 14.566406 L 14.625 17.4375 C 14.625 17.777344 14.808594 18.085938 15.09375 18.25 C 14.78125 19.191406 14.625 20.175781 14.625 21.1875 C 14.625 23.746094 15.664062 26.15625 17.460938 27.90625 L 10.582031 30.628906 C 9.003906 31.253906 7.664062 32.324219 6.710938 33.730469 C 5.753906 35.132812 5.25 36.773438 5.25 38.472656 L 5.25 47.0625 C 5.25 47.582031 5.667969 48 6.1875 48 L 23.0625 48 C 23.0625 48 23.066406 48 23.066406 48 L 24.933594 48 C 24.933594 48 24.9375 48 24.9375 48 L 41.8125 48 C 42.332031 48 42.75 47.582031 42.75 47.0625 L 42.75 38.472656 C 42.75 36.773438 42.246094 35.132812 41.289062 33.730469 Z M 33.484375 31.089844 L 27.75 40.589844 L 27.75 37.75 C 27.75 37.144531 27.550781 36.546875 27.1875 36.0625 L 25.53125 33.855469 C 26.300781 33.355469 26.8125 32.484375 26.8125 31.5 L 26.8125 30.132812 C 27.511719 29.914062 28.179688 29.613281 28.808594 29.238281 Z M 14.527344 10.175781 C 14.433594 9.992188 14.289062 9.847656 14.105469 9.753906 L 12.75 9.078125 L 12.75 7.519531 L 14.921875 6.796875 C 15.019531 6.761719 15.109375 6.714844 15.191406 6.652344 L 21.503906 1.875 L 26.496094 1.875 L 32.808594 6.652344 C 32.890625 6.714844 32.980469 6.761719 33.078125 6.796875 L 35.25 7.519531 L 35.25 9.078125 L 33.894531 9.753906 C 33.710938 9.847656 33.5625 9.992188 33.472656 10.175781 L 31.859375 13.40625 L 16.140625 13.40625 Z M 16.5 15.28125 L 31.5 15.28125 L 31.5 16.757812 L 29.046875 17.566406 C 27.410156 18.101562 25.710938 18.375 23.988281 18.375 C 23.128906 18.375 22.261719 18.304688 21.410156 18.167969 C 20.566406 18.03125 19.71875 17.824219 18.898438 17.554688 L 17.089844 16.957031 C 17.007812 16.859375 16.90625 16.78125 16.789062 16.722656 C 16.695312 16.679688 16.597656 16.648438 16.5 16.636719 Z M 16.5 21.1875 C 16.5 20.386719 16.625 19.605469 16.871094 18.859375 L 18.3125 19.335938 C 19.226562 19.636719 20.167969 19.867188 21.113281 20.019531 C 22.058594 20.171875 23.027344 20.25 23.988281 20.25 C 25.910156 20.25 27.808594 19.945312 29.632812 19.347656 L 31.128906 18.855469 C 31.375 19.601562 31.5 20.382812 31.5 21.1875 C 31.5 23.675781 30.273438 25.992188 28.210938 27.394531 C 28.199219 27.402344 28.183594 27.414062 28.167969 27.421875 C 27.40625 27.933594 26.5625 28.296875 25.667969 28.5 C 24.582031 28.75 23.417969 28.75 22.332031 28.5 C 21.429688 28.296875 20.582031 27.929688 19.8125 27.410156 C 17.738281 26.011719 16.5 23.6875 16.5 21.1875 Z M 24.9375 30.515625 L 24.9375 31.5 C 24.9375 32.015625 24.515625 32.4375 24 32.4375 C 23.75 32.4375 23.515625 32.339844 23.335938 32.164062 C 23.160156 31.984375 23.0625 31.75 23.0625 31.5 L 23.0625 30.515625 C 23.375 30.546875 23.6875 30.5625 24 30.5625 C 24.3125 30.5625 24.625 30.546875 24.9375 30.515625 Z M 19.191406 29.234375 C 19.820312 29.613281 20.488281 29.914062 21.1875 30.132812 L 21.1875 31.5 C 21.1875 32.25 21.480469 32.957031 22.011719 33.488281 C 22.152344 33.628906 22.304688 33.75 22.464844 33.859375 L 20.8125 36.0625 C 20.449219 36.546875 20.25 37.144531 20.25 37.75 L 20.25 40.589844 L 14.515625 31.085938 Z M 7.125 46.125 L 7.125 38.472656 C 7.125 35.761719 8.753906 33.367188 11.273438 32.371094 L 12.746094 31.785156 L 20.308594 44.3125 L 21.402344 46.125 Z M 25.875 43.695312 L 24.410156 46.125 L 23.589844 46.125 L 22.125 43.695312 L 22.125 37.75 C 22.125 37.546875 22.191406 37.347656 22.3125 37.1875 L 24 34.9375 L 25.6875 37.1875 C 25.808594 37.347656 25.875 37.546875 25.875 37.75 Z M 26.597656 46.125 L 35.253906 31.789062 L 36.726562 32.371094 C 39.246094 33.367188 40.875 35.761719 40.875 38.472656 L 40.875 46.125 Z M 26.597656 46.125 "/>
<path style=" stroke:none;fill-rule:nonzero;fill:rgb(38.431373%,38.431373%,38.431373%);fill-opacity:1;" d="M 24 4.03125 C 21.933594 4.03125 20.25 5.714844 20.25 7.78125 C 20.25 9.847656 21.933594 11.53125 24 11.53125 C 26.066406 11.53125 27.75 9.847656 27.75 7.78125 C 27.75 5.714844 26.066406 4.03125 24 4.03125 Z M 24 9.65625 C 22.964844 9.65625 22.125 8.816406 22.125 7.78125 C 22.125 6.746094 22.964844 5.90625 24 5.90625 C 25.035156 5.90625 25.875 6.746094 25.875 7.78125 C 25.875 8.816406 25.035156 9.65625 24 9.65625 Z M 24 9.65625 "/>
<path style=" stroke:none;fill-rule:nonzero;fill:rgb(38.431373%,38.431373%,38.431373%);fill-opacity:1;" d="M 38.0625 42.09375 L 36.1875 42.09375 C 35.667969 42.09375 35.25 42.511719 35.25 43.03125 C 35.25 43.550781 35.667969 43.96875 36.1875 43.96875 L 38.0625 43.96875 C 38.578125 43.96875 39 43.550781 39 43.03125 C 39 42.511719 38.578125 42.09375 38.0625 42.09375 Z M 38.0625 42.09375 "/>
</g>
</svg>
