<?xml version="1.0" encoding="UTF-8"?>
<svg xmlns="http://www.w3.org/2000/svg"
    xmlns:xlink="http://www.w3.org/1999/xlink" width="48pt" height="48pt" viewBox="0 0 48 48" version="1.1">
    <g id="surface1">
        <path style=" stroke:none;fill-rule:nonzero;fill:rgb(38.431373%,38.431373%,38.431373%);fill-opacity:1;" d="M 46.890625 20.820312 L 44.296875 20.578125 C 43.992188 19.527344 43.578125 18.53125 43.03125 17.578125 L 44.675781 15.59375 C 45.074219 15.105469 45.039062 14.414062 44.601562 13.960938 L 41.359375 10.683594 C 40.921875 10.234375 40.203125 10.195312 39.714844 10.597656 L 37.730469 12.242188 C 36.792969 11.707031 35.78125 11.28125 34.746094 10.976562 L 34.5 8.394531 C 34.441406 7.773438 33.917969 7.296875 33.285156 7.296875 L 29.238281 7.296875 L 29.238281 3.644531 C 29.238281 2.972656 28.691406 2.425781 28.019531 2.425781 C 27.351562 2.425781 26.800781 2.972656 26.800781 3.644531 L 26.800781 9.734375 L 22.195312 9.734375 C 20.234375 9.734375 18.371094 10.660156 17.175781 12.21875 L 12.160156 18.835938 L 3.714844 21.136719 C 1.523438 21.734375 0.0117188 23.71875 0 25.996094 L 0 29.226562 C 0.0117188 32.003906 2.277344 34.246094 5.054688 34.246094 L 5.714844 34.246094 C 6.628906 37.644531 10.125 39.644531 13.523438 38.730469 C 15.703125 38.132812 17.421875 36.425781 18.007812 34.246094 L 26.800781 34.246094 L 26.800781 44.355469 C 26.800781 45.027344 27.351562 45.574219 28.019531 45.574219 C 28.691406 45.574219 29.238281 45.027344 29.238281 44.355469 L 29.238281 41.433594 L 33.285156 41.433594 C 33.917969 41.433594 34.441406 40.957031 34.5 40.324219 L 34.746094 37.730469 C 35.792969 37.425781 36.792969 37.011719 37.742188 36.476562 L 39.726562 38.121094 C 40.214844 38.523438 40.921875 38.484375 41.359375 38.046875 L 44.636719 34.769531 C 45.074219 34.332031 45.113281 33.613281 44.710938 33.125 L 43.066406 31.140625 C 43.601562 30.1875 44.027344 29.191406 44.332031 28.15625 L 46.890625 27.910156 C 47.511719 27.851562 48 27.324219 48 26.691406 L 48 22.027344 C 48 21.40625 47.511719 20.882812 46.890625 20.820312 Z M 11.855469 36.523438 C 9.683594 36.523438 7.917969 34.757812 7.917969 32.589844 C 7.917969 30.421875 9.683594 28.652344 11.855469 28.652344 C 14.023438 28.652344 15.789062 30.421875 15.789062 32.589844 C 15.789062 34.757812 14.035156 36.523438 11.855469 36.523438 Z M 26.800781 31.796875 L 18.175781 31.796875 C 17.75 28.300781 14.570312 25.828125 11.085938 26.242188 C 8.1875 26.59375 5.894531 28.886719 5.53125 31.796875 L 5.042969 31.796875 C 3.605469 31.808594 2.4375 30.652344 2.425781 29.214844 L 2.425781 25.996094 C 2.4375 24.828125 3.214844 23.804688 4.347656 23.488281 L 13.195312 21.074219 C 13.449219 21.003906 13.679688 20.855469 13.839844 20.636719 L 19.125 13.707031 C 19.859375 12.742188 21.003906 12.183594 22.210938 12.183594 L 26.800781 12.183594 Z M 29.238281 19.1875 C 32.089844 18.238281 35.171875 19.785156 36.121094 22.648438 C 37.070312 25.511719 35.523438 28.582031 32.660156 29.53125 C 31.554688 29.894531 30.347656 29.894531 29.238281 29.53125 Z M 45.5625 25.570312 L 43.25 25.789062 C 42.726562 25.839844 42.285156 26.230469 42.175781 26.742188 C 41.871094 28.105469 41.324219 29.398438 40.554688 30.566406 C 40.265625 31.015625 40.300781 31.589844 40.640625 32.003906 L 42.128906 33.808594 L 40.421875 35.511719 L 38.621094 34.039062 C 38.203125 33.699219 37.621094 33.660156 37.167969 33.964844 C 36.011719 34.734375 34.722656 35.28125 33.355469 35.574219 C 32.832031 35.683594 32.453125 36.121094 32.40625 36.644531 L 32.1875 38.984375 L 29.238281 38.984375 L 29.238281 32.054688 C 33.492188 33.003906 37.707031 30.324219 38.644531 26.070312 C 39.59375 21.820312 36.914062 17.605469 32.660156 16.652344 C 31.527344 16.398438 30.359375 16.398438 29.238281 16.652344 L 29.238281 9.746094 L 32.175781 9.746094 L 32.40625 12.074219 C 32.453125 12.597656 32.84375 13.035156 33.355469 13.144531 C 34.722656 13.449219 36.011719 13.996094 37.183594 14.753906 C 37.632812 15.046875 38.203125 15.007812 38.621094 14.667969 L 40.410156 13.183594 L 42.089844 14.875 L 40.59375 16.691406 C 40.25 17.105469 40.214844 17.6875 40.519531 18.140625 C 41.289062 19.296875 41.835938 20.589844 42.128906 21.953125 C 42.25 22.476562 42.675781 22.855469 43.210938 22.902344 L 45.5625 23.136719 Z M 45.5625 25.570312 "/>
    </g>
</svg>
