<?xml version="1.0" encoding="UTF-8"?>
<svg xmlns="http://www.w3.org/2000/svg" xmlns:xlink="http://www.w3.org/1999/xlink" width="48pt" height="48pt" viewBox="0 0 48 48" version="1.1">
<g id="surface1">
<path style=" stroke:none;fill-rule:nonzero;fill:rgb(38.431373%,38.431373%,38.431373%);fill-opacity:1;" d="M 44.800781 33.5 L 43 33.5 L 43 26.878906 C 43 24.011719 40.261719 21.5 37.144531 21.5 L 25 21.5 L 25 15.5 L 27.800781 15.5 C 29.566406 15.496094 30.996094 14.066406 31 12.300781 L 31 5.699219 C 30.996094 3.933594 29.566406 2.503906 27.800781 2.5 L 20.199219 2.5 C 18.433594 2.503906 17.003906 3.933594 17 5.699219 L 17 12.300781 C 17.003906 14.066406 18.433594 15.496094 20.199219 15.5 L 23 15.5 L 23 21.5 L 10.855469 21.5 C 7.738281 21.5 5 24.011719 5 26.878906 L 5 33.5 L 3.199219 33.5 C 1.433594 33.503906 0.00390625 34.933594 0 36.699219 L 0 42.300781 C 0.00390625 44.066406 1.433594 45.496094 3.199219 45.5 L 8.800781 45.5 C 10.566406 45.496094 11.996094 44.066406 12 42.300781 L 12 36.699219 C 11.996094 34.933594 10.566406 33.503906 8.800781 33.5 L 7 33.5 L 7 26.878906 C 7 24.945312 9.035156 23.5 10.855469 23.5 L 23 23.5 L 23 33.5 L 21.199219 33.5 C 19.433594 33.503906 18.003906 34.933594 18 36.699219 L 18 42.300781 C 18.003906 44.066406 19.433594 45.496094 21.199219 45.5 L 26.800781 45.5 C 28.566406 45.496094 29.996094 44.066406 30 42.300781 L 30 36.699219 C 29.996094 34.933594 28.566406 33.503906 26.800781 33.5 L 25 33.5 L 25 23.5 L 37.144531 23.5 C 38.964844 23.5 41 24.945312 41 26.878906 L 41 33.5 L 39.199219 33.5 C 37.433594 33.503906 36.003906 34.933594 36 36.699219 L 36 42.300781 C 36.003906 44.066406 37.433594 45.496094 39.199219 45.5 L 44.800781 45.5 C 46.566406 45.496094 47.996094 44.066406 48 42.300781 L 48 36.699219 C 47.996094 34.933594 46.566406 33.503906 44.800781 33.5 Z M 8.800781 35.5 C 9.460938 35.5 10 36.039062 10 36.699219 L 10 42.300781 C 10 42.960938 9.460938 43.5 8.800781 43.5 L 3.199219 43.5 C 2.539062 43.5 2 42.960938 2 42.300781 L 2 36.699219 C 2 36.039062 2.539062 35.5 3.199219 35.5 Z M 26.800781 35.5 C 27.460938 35.5 28 36.039062 28 36.699219 L 28 42.300781 C 28 42.960938 27.460938 43.5 26.800781 43.5 L 21.199219 43.5 C 20.539062 43.5 20 42.960938 20 42.300781 L 20 36.699219 C 20 36.039062 20.539062 35.5 21.199219 35.5 Z M 20.199219 13.5 C 19.539062 13.5 19 12.960938 19 12.300781 L 19 5.699219 C 19 5.039062 19.539062 4.5 20.199219 4.5 L 27.800781 4.5 C 28.460938 4.5 29 5.039062 29 5.699219 L 29 12.300781 C 29 12.960938 28.460938 13.5 27.800781 13.5 Z M 46 42.300781 C 46 42.960938 45.460938 43.5 44.800781 43.5 L 39.199219 43.5 C 38.539062 43.5 38 42.960938 38 42.300781 L 38 36.699219 C 38 36.039062 38.539062 35.5 39.199219 35.5 L 44.800781 35.5 C 45.460938 35.5 46 36.039062 46 36.699219 Z M 46 42.300781 "/>
</g>
</svg>
