<?xml version="1.0" encoding="UTF-8"?>
<svg xmlns="http://www.w3.org/2000/svg" xmlns:xlink="http://www.w3.org/1999/xlink" width="48pt" height="48pt" viewBox="0 0 48 48" version="1.1">
<g id="surface1">
<path style=" stroke:none;fill-rule:nonzero;fill:rgb(38.431373%,38.431373%,38.431373%);fill-opacity:1;" d="M 45.859375 33.675781 C 45.035156 32.238281 43.203125 31.746094 41.765625 32.574219 L 34.453125 36.796875 C 34.054688 36.195312 33.453125 35.761719 32.761719 35.574219 L 21.570312 32.574219 C 20.707031 32.34375 19.800781 32.335938 18.9375 32.550781 L 15 33.539062 L 15 32.25 C 15 31.835938 14.664062 31.5 14.25 31.5 L 8.25 31.5 C 7.835938 31.5 7.5 31.835938 7.5 32.25 L 7.5 33 L 2.25 33 C 1.835938 33 1.5 33.335938 1.5 33.75 L 1.5 44.25 C 1.5 44.664062 1.835938 45 2.25 45 L 7.5 45 L 7.5 45.75 C 7.5 46.164062 7.835938 46.5 8.25 46.5 L 14.25 46.5 C 14.664062 46.5 15 46.164062 15 45.75 L 15 44.714844 L 15.964844 45.195312 C 16.695312 45.558594 17.496094 45.75 18.3125 45.75 L 29.542969 45.75 C 30.464844 45.75 31.371094 45.507812 32.167969 45.046875 L 44.769531 37.773438 C 46.199219 36.9375 46.683594 35.109375 45.859375 33.675781 Z M 3 43.5 L 3 34.5 L 7.5 34.5 L 7.5 43.5 Z M 13.5 45 L 9 45 L 9 33 L 13.5 33 Z M 44.015625 36.476562 L 31.417969 43.75 C 30.847656 44.078125 30.199219 44.253906 29.542969 44.253906 L 18.3125 44.253906 C 17.730469 44.253906 17.15625 44.117188 16.636719 43.855469 L 15 43.035156 L 15 35.085938 L 19.300781 34.011719 C 19.917969 33.855469 20.566406 33.863281 21.179688 34.027344 L 32.371094 37.027344 C 32.898438 37.15625 33.3125 37.5625 33.457031 38.085938 C 33.601562 38.609375 33.453125 39.167969 33.066406 39.550781 C 32.679688 39.933594 32.117188 40.074219 31.59375 39.925781 L 22.648438 37.527344 C 22.25 37.421875 21.839844 37.660156 21.734375 38.058594 C 21.628906 38.457031 21.863281 38.867188 22.261719 38.972656 L 31.207031 41.375 C 31.460938 41.441406 31.722656 41.476562 31.988281 41.476562 C 32.824219 41.484375 33.625 41.136719 34.191406 40.519531 C 34.757812 39.902344 35.039062 39.074219 34.960938 38.242188 L 42.515625 33.878906 C 43.234375 33.484375 44.136719 33.726562 44.558594 34.429688 C 44.96875 35.144531 44.730469 36.058594 44.015625 36.476562 Z M 44.015625 36.476562 "/>
<path style=" stroke:none;fill-rule:nonzero;fill:rgb(38.431373%,38.431373%,38.431373%);fill-opacity:1;" d="M 21.75 23.25 L 24.566406 23.25 C 24.609375 23.359375 24.648438 23.460938 24.695312 23.5625 L 22.703125 25.554688 C 22.410156 25.847656 22.410156 26.324219 22.703125 26.617188 L 25.882812 29.796875 C 26.175781 30.089844 26.652344 30.089844 26.945312 29.796875 L 28.9375 27.804688 C 29.039062 27.847656 29.140625 27.890625 29.25 27.933594 L 29.25 30.75 C 29.25 31.164062 29.585938 31.5 30 31.5 L 34.5 31.5 C 34.914062 31.5 35.25 31.164062 35.25 30.75 L 35.25 27.933594 C 35.359375 27.890625 35.460938 27.847656 35.5625 27.804688 L 37.554688 29.796875 C 37.851562 30.078125 38.316406 30.078125 38.617188 29.796875 L 41.796875 26.617188 C 42.089844 26.324219 42.089844 25.847656 41.796875 25.554688 L 39.804688 23.5625 C 39.851562 23.460938 39.890625 23.359375 39.933594 23.25 L 42.75 23.25 C 43.164062 23.25 43.5 22.914062 43.5 22.5 L 43.5 18 C 43.5 17.585938 43.164062 17.25 42.75 17.25 L 39.933594 17.25 C 39.890625 17.140625 39.851562 17.039062 39.804688 16.9375 L 41.796875 14.945312 C 42.089844 14.652344 42.089844 14.175781 41.796875 13.882812 L 38.617188 10.703125 C 38.324219 10.410156 37.847656 10.410156 37.554688 10.703125 L 35.5625 12.695312 C 35.460938 12.652344 35.359375 12.609375 35.25 12.566406 L 35.25 9.75 C 35.25 9.335938 34.914062 9 34.5 9 L 30 9 C 29.585938 9 29.25 9.335938 29.25 9.75 L 29.25 12.566406 C 29.140625 12.609375 29.039062 12.652344 28.9375 12.695312 L 26.945312 10.703125 C 26.648438 10.421875 26.183594 10.421875 25.882812 10.703125 L 22.703125 13.882812 C 22.410156 14.175781 22.410156 14.652344 22.703125 14.945312 L 24.695312 16.9375 C 24.648438 17.039062 24.609375 17.140625 24.566406 17.25 L 21.75 17.25 C 21.335938 17.25 21 17.585938 21 18 L 21 22.5 C 21 22.914062 21.335938 23.25 21.75 23.25 Z M 22.5 18.75 L 25.09375 18.75 C 25.421875 18.75 25.710938 18.539062 25.808594 18.230469 C 25.925781 17.855469 26.078125 17.492188 26.261719 17.144531 C 26.421875 16.851562 26.371094 16.492188 26.136719 16.253906 L 24.300781 14.414062 L 26.417969 12.296875 L 28.257812 14.136719 C 28.496094 14.371094 28.855469 14.421875 29.148438 14.261719 C 29.496094 14.078125 29.859375 13.925781 30.234375 13.808594 C 30.542969 13.707031 30.75 13.417969 30.75 13.09375 L 30.75 10.5 L 33.75 10.5 L 33.75 13.09375 C 33.75 13.421875 33.960938 13.710938 34.269531 13.808594 C 34.644531 13.925781 35.007812 14.078125 35.355469 14.261719 C 35.648438 14.421875 36.007812 14.371094 36.246094 14.136719 L 38.085938 12.296875 L 40.203125 14.414062 L 38.363281 16.253906 C 38.128906 16.492188 38.078125 16.851562 38.238281 17.144531 C 38.421875 17.492188 38.574219 17.855469 38.691406 18.230469 C 38.789062 18.539062 39.078125 18.75 39.40625 18.75 L 42 18.75 L 42 21.75 L 39.40625 21.75 C 39.078125 21.75 38.789062 21.960938 38.691406 22.269531 C 38.574219 22.644531 38.421875 23.007812 38.238281 23.355469 C 38.078125 23.648438 38.128906 24.007812 38.363281 24.246094 L 40.203125 26.085938 L 38.085938 28.203125 L 36.246094 26.363281 C 36.007812 26.128906 35.648438 26.078125 35.355469 26.238281 C 35.007812 26.421875 34.644531 26.574219 34.269531 26.691406 C 33.960938 26.789062 33.75 27.078125 33.75 27.40625 L 33.75 30 L 30.75 30 L 30.75 27.40625 C 30.75 27.078125 30.539062 26.789062 30.230469 26.691406 C 29.855469 26.574219 29.492188 26.421875 29.144531 26.238281 C 28.851562 26.078125 28.492188 26.128906 28.253906 26.363281 L 26.414062 28.203125 L 24.300781 26.085938 L 26.140625 24.246094 C 26.375 24.007812 26.425781 23.648438 26.265625 23.355469 C 26.082031 23.007812 25.929688 22.644531 25.8125 22.269531 C 25.710938 21.960938 25.421875 21.75 25.09375 21.75 L 22.5 21.75 Z M 22.5 18.75 "/>
<path style=" stroke:none;fill-rule:nonzero;fill:rgb(38.431373%,38.431373%,38.431373%);fill-opacity:1;" d="M 32.25 24.75 C 29.765625 24.75 27.75 22.734375 27.75 20.25 C 27.75 17.765625 29.765625 15.75 32.25 15.75 C 34.734375 15.75 36.75 17.765625 36.75 20.25 C 36.746094 22.734375 34.734375 24.746094 32.25 24.75 Z M 32.25 17.25 C 30.59375 17.25 29.25 18.59375 29.25 20.25 C 29.25 21.90625 30.59375 23.25 32.25 23.25 C 33.90625 23.25 35.25 21.90625 35.25 20.25 C 35.25 18.59375 33.90625 17.25 32.25 17.25 Z M 32.25 17.25 "/>
<path style=" stroke:none;fill-rule:nonzero;fill:rgb(38.431373%,38.431373%,38.431373%);fill-opacity:1;" d="M 13.5 20.25 L 10.5 20.25 C 10.085938 20.25 9.75 19.914062 9.75 19.5 L 9.75 18.183594 L 8.816406 19.117188 C 8.523438 19.40625 8.050781 19.40625 7.757812 19.117188 L 5.632812 16.992188 C 5.34375 16.699219 5.34375 16.226562 5.632812 15.933594 L 6.566406 15 L 5.25 15 C 4.835938 15 4.5 14.664062 4.5 14.25 L 4.5 11.25 C 4.5 10.835938 4.835938 10.5 5.25 10.5 L 6.566406 10.5 L 5.632812 9.566406 C 5.34375 9.273438 5.34375 8.800781 5.632812 8.507812 L 7.757812 6.382812 C 8.050781 6.09375 8.523438 6.09375 8.816406 6.382812 L 9.75 7.316406 L 9.75 6 C 9.75 5.585938 10.085938 5.25 10.5 5.25 L 13.5 5.25 C 13.914062 5.25 14.25 5.585938 14.25 6 L 14.25 7.316406 L 15.183594 6.382812 C 15.476562 6.09375 15.949219 6.09375 16.242188 6.382812 L 18.367188 8.507812 C 18.65625 8.800781 18.65625 9.273438 18.367188 9.566406 L 17.433594 10.5 L 18.75 10.5 C 19.164062 10.5 19.5 10.835938 19.5 11.25 L 19.5 14.25 C 19.5 14.664062 19.164062 15 18.75 15 L 17.433594 15 L 18.367188 15.933594 C 18.65625 16.226562 18.65625 16.699219 18.367188 16.992188 L 16.242188 19.117188 C 15.949219 19.40625 15.476562 19.40625 15.183594 19.117188 L 14.25 18.183594 L 14.25 19.5 C 14.25 19.914062 13.914062 20.25 13.5 20.25 Z M 11.25 18.75 L 12.75 18.75 L 12.75 16.988281 C 12.75 16.65625 12.96875 16.363281 13.285156 16.269531 C 13.386719 16.238281 13.488281 16.195312 13.585938 16.144531 C 13.875 15.992188 14.230469 16.046875 14.464844 16.277344 L 15.710938 17.523438 L 16.773438 16.460938 L 15.523438 15.214844 C 15.292969 14.984375 15.238281 14.628906 15.390625 14.335938 C 15.441406 14.238281 15.484375 14.136719 15.515625 14.03125 C 15.613281 13.714844 15.90625 13.5 16.238281 13.5 L 18 13.5 L 18 12 L 16.238281 12 C 15.90625 12 15.617188 11.785156 15.519531 11.46875 C 15.488281 11.363281 15.445312 11.261719 15.394531 11.164062 C 15.242188 10.871094 15.296875 10.515625 15.527344 10.285156 L 16.773438 9.039062 L 15.710938 7.976562 L 14.464844 9.226562 C 14.234375 9.457031 13.878906 9.511719 13.585938 9.359375 C 13.492188 9.308594 13.390625 9.265625 13.285156 9.234375 C 12.96875 9.140625 12.75 8.84375 12.75 8.511719 L 12.75 6.75 L 11.25 6.75 L 11.25 8.511719 C 11.25 8.84375 11.03125 9.136719 10.714844 9.230469 C 10.613281 9.261719 10.511719 9.304688 10.414062 9.355469 C 10.125 9.507812 9.769531 9.453125 9.535156 9.222656 L 8.289062 7.976562 L 7.226562 9.039062 L 8.476562 10.285156 C 8.707031 10.515625 8.761719 10.871094 8.609375 11.164062 C 8.558594 11.261719 8.515625 11.363281 8.484375 11.46875 C 8.386719 11.785156 8.09375 12 7.765625 12 L 6 12 L 6 13.5 L 7.761719 13.5 C 8.09375 13.5 8.382812 13.714844 8.480469 14.03125 C 8.511719 14.136719 8.554688 14.238281 8.605469 14.335938 C 8.757812 14.628906 8.703125 14.984375 8.472656 15.214844 L 7.226562 16.460938 L 8.289062 17.523438 L 9.535156 16.273438 C 9.765625 16.042969 10.121094 15.988281 10.414062 16.140625 C 10.507812 16.191406 10.609375 16.234375 10.714844 16.265625 C 11.03125 16.359375 11.25 16.65625 11.25 16.988281 Z M 11.25 18.75 "/>
<path style=" stroke:none;fill-rule:nonzero;fill:rgb(38.431373%,38.431373%,38.431373%);fill-opacity:1;" d="M 12 15.75 C 10.34375 15.75 9 14.40625 9 12.75 C 9 11.09375 10.34375 9.75 12 9.75 C 13.65625 9.75 15 11.09375 15 12.75 C 15 14.40625 13.65625 15.75 12 15.75 Z M 12 11.25 C 11.171875 11.25 10.5 11.921875 10.5 12.75 C 10.5 13.578125 11.171875 14.25 12 14.25 C 12.828125 14.25 13.5 13.578125 13.5 12.75 C 13.5 11.921875 12.828125 11.25 12 11.25 Z M 12 11.25 "/>
</g>
</svg>
