<?xml version="1.0" encoding="UTF-8"?>
<svg xmlns="http://www.w3.org/2000/svg" xmlns:xlink="http://www.w3.org/1999/xlink" width="48pt" height="48pt" viewBox="0 0 48 48" version="1.1">
<g id="surface1">
<path style=" stroke:none;fill-rule:nonzero;fill:rgb(38.431373%,38.431373%,38.431373%);fill-opacity:1;" d="M 24 27.035156 C 9.578125 27.035156 1.636719 33.859375 1.636719 46.25 C 1.636719 47.214844 2.417969 48 3.386719 48 L 44.613281 48 C 45.582031 48 46.363281 47.214844 46.363281 46.25 C 46.363281 33.859375 38.421875 27.035156 24 27.035156 Z M 5.203125 44.496094 C 5.890625 35.234375 12.207031 30.539062 24 30.539062 C 35.792969 30.539062 42.109375 35.234375 42.796875 44.496094 Z M 5.203125 44.496094 "/>
<path style=" stroke:none;fill-rule:nonzero;fill:rgb(38.431373%,38.431373%,38.431373%);fill-opacity:1;" d="M 24 0 C 17.375 0 12.378906 5.097656 12.378906 11.851562 C 12.378906 18.808594 17.59375 24.464844 24 24.464844 C 30.40625 24.464844 35.621094 18.808594 35.621094 11.855469 C 35.621094 5.097656 30.625 0 24 0 Z M 24 20.964844 C 19.523438 20.964844 15.882812 16.878906 15.882812 11.855469 C 15.882812 7.015625 19.296875 3.503906 24 3.503906 C 28.628906 3.503906 32.117188 7.09375 32.117188 11.855469 C 32.117188 16.878906 28.476562 20.964844 24 20.964844 Z M 24 20.964844 "/>
</g>
</svg>
